# Blender 4.2.3 LTS
# www.blender.org
mtllib clearStage.mtl
o 0_body.001
v 10.000002 -0.808445 -11.999998
v 10.000002 -0.000044 -11.999998
v 10.000000 -0.808446 0.000001
v 10.000000 -0.000045 0.000002
v -9.999998 -0.808445 -12.000002
v -9.999998 -0.000044 -12.000002
v -10.000000 -0.808446 -0.000002
v -10.000000 -0.000045 -0.000002
v -2.000000 -0.808446 -0.000000
v -2.000000 -0.000045 -0.000000
v -1.999998 -0.808445 -12.000000
v -1.999998 -0.000044 -12.000000
v 2.000000 -0.808446 0.000000
v 2.000002 -0.000044 -12.000000
v 2.000000 -0.000045 0.000000
v 2.000002 -0.808445 -12.000000
v -2.000001 -0.808447 6.864078
v -2.000001 -0.000046 6.864078
v 1.999999 -0.808447 6.864079
v 1.999999 -0.000046 6.864079
v -2.000000 -0.000045 1.262188
v 2.000000 -0.000045 1.262188
v 2.000000 -0.808446 1.262188
v -2.000000 -0.808446 1.262187
v -2.000000 -0.000045 2.080624
v 2.000000 -0.000045 2.080624
v 2.000000 -0.808446 2.080624
v -2.000000 -0.808446 2.080624
vn 1.0000 -0.0000 -0.0000
vn -0.0000 -0.0000 1.0000
vn -1.0000 -0.0000 -0.0000
vn -0.0000 -0.0000 -1.0000
vn -0.0000 -1.0000 -0.0000
vn -0.0000 1.0000 -0.0000
vt 0.435778 0.598698
vt 0.438267 0.574063
vt 0.438267 0.598698
vt 0.445735 0.580222
vt 0.448225 0.574063
vt 0.448225 0.580222
vt 0.440757 0.574063
vt 0.440757 0.598698
vt 0.440757 0.580222
vt 0.443246 0.574063
vt 0.443246 0.580222
vt 0.406164 0.570177
vt 0.412323 0.545542
vt 0.412323 0.570177
vt 0.430799 0.570177
vt 0.436958 0.545542
vt 0.436958 0.570177
vt 0.424640 0.545542
vt 0.424640 0.570177
vt 0.418482 0.574063
vt 0.406164 0.601529
vt 0.406164 0.574063
vt 0.443246 0.592540
vt 0.443246 0.598698
vt 0.449275 0.570177
vt 0.455434 0.545542
vt 0.455434 0.570177
vt 0.450714 0.574063
vt 0.450714 0.580222
vt 0.430799 0.545542
vt 0.449275 0.545542
vt 0.440757 0.592540
vt 0.443246 0.586381
vt 0.445735 0.574063
vt 0.445735 0.586381
vt 0.430799 0.601529
vt 0.433288 0.574063
vt 0.433288 0.601529
vt 0.430799 0.574063
vt 0.418482 0.601529
vt 0.435778 0.574063
vt 0.453203 0.574063
vt 0.450714 0.577950
vt 0.412323 0.574063
vt 0.455434 0.549428
vt 0.457924 0.545542
vt 0.457924 0.549428
vt 0.436958 0.574063
vt 0.504771 0.544450
vt 0.493542 0.555817
vt 0.493542 0.544450
vt 0.470807 0.544449
vt 0.482175 0.600007
vt 0.470807 0.600007
vt 0.493542 0.567185
vt 0.504771 0.555817
vt 0.504771 0.567185
vt 0.482175 0.544449
vt 0.493542 0.600007
vt 0.440757 0.574063
vt 0.406164 0.545542
vt 0.435778 0.601529
vt 0.453203 0.577950
vt 0.424640 0.574063
vt 0.449275 0.574063
vt 0.493542 0.544449
s 0
usemtl Material.002
f 2/1/1 3/2/1 1/3/1
f 10/4/2 7/5/2 9/6/2
f 8/3/3 5/7/3 7/8/3
f 14/9/4 1/10/4 16/11/4
f 7/12/5 11/13/5 9/14/5
f 4/15/6 14/16/6 15/17/6
f 9/14/5 16/18/5 13/19/5
f 25/20/6 20/21/6 26/22/6
f 6/8/4 11/23/4 5/24/4
f 10/25/6 6/26/6 8/27/6
f 4/6/2 13/28/2 3/29/2
f 13/19/5 1/30/5 3/15/5
f 15/17/6 12/31/6 10/25/6
f 12/32/4 16/11/4 11/23/4
f 20/33/2 17/34/2 19/35/2
f 26/36/1 19/37/1 27/38/1
f 27/39/5 17/40/5 28/20/5
f 28/41/3 18/38/3 25/37/3
f 9/42/3 21/43/3 10/28/3
f 13/19/5 24/44/5 9/14/5
f 15/45/1 23/46/1 13/47/1
f 10/25/6 22/48/6 15/17/6
f 24/49/3 25/50/3 21/51/3
f 23/52/5 28/53/5 24/54/5
f 22/55/1 27/56/1 23/57/1
f 21/58/6 26/59/6 22/53/6
f 2/1/1 4/41/1 3/2/1
f 10/4/2 8/34/2 7/5/2
f 8/3/3 6/2/3 5/7/3
f 14/9/4 2/60/4 1/10/4
f 7/12/5 5/61/5 11/13/5
f 4/15/6 2/30/6 14/16/6
f 9/14/5 11/13/5 16/18/5
f 25/20/6 18/40/6 20/21/6
f 6/8/4 12/32/4 11/23/4
f 10/25/6 12/31/6 6/26/6
f 4/6/2 15/5/2 13/28/2
f 13/19/5 16/18/5 1/30/5
f 15/17/6 14/16/6 12/31/6
f 12/32/4 14/9/4 16/11/4
f 20/33/2 18/10/2 17/34/2
f 26/36/1 20/39/1 19/37/1
f 27/39/5 19/36/5 17/40/5
f 28/41/3 17/62/3 18/38/3
f 9/42/3 24/63/3 21/43/3
f 13/19/5 23/64/5 24/44/5
f 15/45/1 22/26/1 23/46/1
f 10/25/6 21/65/6 22/48/6
f 24/49/3 28/56/3 25/50/3
f 23/52/5 27/58/5 28/53/5
f 22/55/1 26/50/1 27/56/1
f 21/58/6 25/66/6 26/59/6
