{
	"asset":{
		"generator":"Khronos glTF Blender I/O v4.2.70",
		"version":"2.0"
	},
	"scene":0,
	"scenes":[
		{
			"name":"Scene",
			"nodes":[
				99
			]
		}
	],
	"nodes":[
		{
			"name":"face",
			"rotation":[
				-0.011081171222031116,
				2.3840394192120584e-07,
				9.992620261721984e-16,
				0.9999386072158813
			],
			"translation":[
				-7.330390414545798e-16,
				-7.62956915423274e-08,
				-2.7939677238464355e-09
			]
		},
		{
			"name":"spine.011.L",
			"rotation":[
				-0.11767774075269699,
				0.011009594425559044,
				0.0517270602285862,
				0.9916426539421082
			],
			"scale":[
				1,
				0.9999999403953552,
				0.9999998807907104
			],
			"translation":[
				-5.587935447692871e-09,
				0.06562303006649017,
				1.586158759891987e-08
			]
		},
		{
			"children":[
				1
			],
			"name":"spine.010.L",
			"rotation":[
				-0.15929272770881653,
				0.024239981546998024,
				0.012598182074725628,
				0.9868533611297607
			],
			"scale":[
				1,
				1,
				1.0000001192092896
			],
			"translation":[
				-1.30385160446167e-08,
				0.07327781617641449,
				2.2730091586709023e-08
			]
		},
		{
			"children":[
				2
			],
			"name":"spine.009.L",
			"rotation":[
				0.04989549145102501,
				0.0033228907268494368,
				0.08618896454572678,
				0.9950230717658997
			],
			"scale":[
				1,
				0.9999999403953552,
				1.000000238418579
			],
			"translation":[
				-9.313225746154785e-10,
				0.05575352907180786,
				6.54981704428792e-08
			]
		},
		{
			"children":[
				3
			],
			"name":"spine.008.L",
			"rotation":[
				-0.933847963809967,
				-0.028065994381904602,
				-0.009766061790287495,
				0.3564336597919464
			],
			"scale":[
				1,
				1,
				0.9999999403953552
			],
			"translation":[
				0.03975025564432144,
				-0.0349736325442791,
				-0.16608913242816925
			]
		},
		{
			"name":"spine.015.L",
			"rotation":[
				-0.1587456315755844,
				0.012026514858007431,
				0.028534527868032455,
				0.9868338108062744
			],
			"translation":[
				-9.313225746154785e-10,
				0.06036088615655899,
				1.4272518455982208e-07
			]
		},
		{
			"children":[
				5
			],
			"name":"spine.014.L",
			"rotation":[
				-0.11091623455286026,
				0.024096040055155754,
				0.01954493671655655,
				0.9933453798294067
			],
			"scale":[
				0.9999999403953552,
				0.9999999403953552,
				0.9999999403953552
			],
			"translation":[
				-3.725290298461914e-09,
				0.06462933123111725,
				-1.2689270079135895e-08
			]
		},
		{
			"children":[
				6
			],
			"name":"spine.013.L",
			"rotation":[
				0.10256227105855942,
				0.0013994245091453195,
				0.06697963178157806,
				0.992467999458313
			],
			"scale":[
				1,
				1.0000001192092896,
				1
			],
			"translation":[
				1.6763806343078613e-08,
				0.051189009100198746,
				-1.812586560845375e-07
			]
		},
		{
			"children":[
				7
			],
			"name":"spine.012.L",
			"rotation":[
				-0.9476813077926636,
				-0.016828538849949837,
				-0.0061956290155649185,
				0.3187139630317688
			],
			"scale":[
				1,
				1,
				1.0000003576278687
			],
			"translation":[
				0.10500318557024002,
				-0.035601433366537094,
				-0.15749788284301758
			]
		},
		{
			"name":"spine.019.L",
			"rotation":[
				-0.07859064638614655,
				-0.002176641020923853,
				0.10454671084880829,
				0.9914074540138245
			],
			"scale":[
				1,
				1.0000001192092896,
				1.0000001192092896
			],
			"translation":[
				9.313225746154785e-08,
				0.06131058558821678,
				-6.891787052154541e-08
			]
		},
		{
			"children":[
				9
			],
			"name":"spine.018.L",
			"rotation":[
				0.0053188977763056755,
				0.006369495764374733,
				0.1944902092218399,
				0.9808693528175354
			],
			"scale":[
				0.9999998807907104,
				1,
				0.9999999403953552
			],
			"translation":[
				7.450580596923828e-09,
				0.04423105716705322,
				1.1175870895385742e-08
			]
		},
		{
			"children":[
				10
			],
			"name":"spine.017.L",
			"rotation":[
				-0.07332821190357208,
				-0.04000809043645859,
				0.048620130866765976,
				0.9953182339668274
			],
			"scale":[
				1,
				1,
				0.9999999403953552
			],
			"translation":[
				8.847564458847046e-09,
				0.040293119847774506,
				2.6542693376541138e-08
			]
		},
		{
			"children":[
				11
			],
			"name":"spine.016.L",
			"rotation":[
				-0.9747685790061951,
				0.030077073723077774,
				-0.0011495715007185936,
				0.22117944061756134
			],
			"scale":[
				1,
				1,
				1.0000011920928955
			],
			"translation":[
				0.17933779954910278,
				-0.08197557926177979,
				-0.1608298122882843
			]
		},
		{
			"name":"spine.011.R",
			"rotation":[
				-0.11767768114805222,
				-0.01100959163159132,
				-0.0517270602285862,
				0.9916426539421082
			],
			"translation":[
				-1.4901161193847656e-08,
				0.06562310457229614,
				1.9453000277280807e-07
			]
		},
		{
			"children":[
				13
			],
			"name":"spine.010.R",
			"rotation":[
				-0.15929271280765533,
				-0.024239974096417427,
				-0.012598189525306225,
				0.9868533611297607
			],
			"scale":[
				0.9999999403953552,
				0.9999998807907104,
				1.0000001192092896
			],
			"translation":[
				9.313225746154785e-09,
				0.07327786087989807,
				1.128646545112133e-07
			]
		},
		{
			"children":[
				14
			],
			"name":"spine.009.R",
			"rotation":[
				0.049895498901605606,
				-0.003322885138913989,
				-0.08618900924921036,
				0.9950230717658997
			],
			"scale":[
				1,
				0.9999998807907104,
				1
			],
			"translation":[
				-2.7939677238464355e-09,
				0.05575324967503548,
				3.723107511177659e-08
			]
		},
		{
			"children":[
				15
			],
			"name":"spine.008.R",
			"rotation":[
				-0.933847963809967,
				0.028066108003258705,
				0.009766306728124619,
				0.3564336597919464
			],
			"scale":[
				0.9999999403953552,
				1,
				1.0000001192092896
			],
			"translation":[
				-0.03975033015012741,
				-0.0349736325442791,
				-0.16608911752700806
			]
		},
		{
			"name":"spine.015.R",
			"rotation":[
				-0.15874555706977844,
				-0.012026522308588028,
				-0.028534511104226112,
				0.9868338704109192
			],
			"scale":[
				0.9999999403953552,
				1,
				1
			],
			"translation":[
				1.1175870895385742e-08,
				0.06036088615655899,
				-1.3969838619232178e-07
			]
		},
		{
			"children":[
				17
			],
			"name":"spine.014.R",
			"rotation":[
				-0.11091621965169907,
				-0.024096041917800903,
				-0.01954493671655655,
				0.9933453798294067
			],
			"scale":[
				1,
				0.9999998807907104,
				1
			],
			"translation":[
				-3.725290298461914e-09,
				0.06462934613227844,
				-1.3224780559539795e-07
			]
		},
		{
			"children":[
				18
			],
			"name":"spine.013.R",
			"rotation":[
				0.10256224870681763,
				-0.0013994125183671713,
				-0.06697962433099747,
				0.9924680590629578
			],
			"translation":[
				-1.1641532182693481e-08,
				0.05118900164961815,
				4.443427314981818e-08
			]
		},
		{
			"children":[
				19
			],
			"name":"spine.012.R",
			"rotation":[
				-0.9476813077926636,
				0.016828611493110657,
				0.006195863243192434,
				0.318713903427124
			],
			"scale":[
				1,
				1,
				1.0000004768371582
			],
			"translation":[
				-0.10500326007604599,
				-0.035601433366537094,
				-0.157497838139534
			]
		},
		{
			"name":"spine.019.R",
			"rotation":[
				-0.0785907655954361,
				0.0021766340360045433,
				-0.10454674065113068,
				0.9914074540138245
			],
			"scale":[
				1.0000001192092896,
				1,
				0.9999999403953552
			],
			"translation":[
				-9.685754776000977e-08,
				0.06131058558821678,
				4.842877388000488e-08
			]
		},
		{
			"children":[
				21
			],
			"name":"spine.018.R",
			"rotation":[
				0.005318834912031889,
				-0.00636955164372921,
				-0.1944902390241623,
				0.9808694124221802
			],
			"scale":[
				0.9999999403953552,
				0.9999999403953552,
				0.9999999403953552
			],
			"translation":[
				1.30385160446167e-08,
				0.04423107951879501,
				-7.171183824539185e-08
			]
		},
		{
			"children":[
				22
			],
			"name":"spine.017.R",
			"rotation":[
				-0.07332821935415268,
				0.04000808671116829,
				-0.04862040653824806,
				0.9953182339668274
			],
			"scale":[
				0.9999999403953552,
				1,
				0.9999999403953552
			],
			"translation":[
				-2.561137080192566e-09,
				0.040293268859386444,
				4.307366907596588e-08
			]
		},
		{
			"children":[
				23
			],
			"name":"spine.016.R",
			"rotation":[
				-0.9747685790061951,
				-0.0300767682492733,
				0.001149903517216444,
				0.2211795151233673
			],
			"scale":[
				0.9999999403953552,
				1,
				1.0000003576278687
			],
			"translation":[
				-0.17933785915374756,
				-0.08197557926177979,
				-0.16082970798015594
			]
		},
		{
			"children":[
				0,
				4,
				8,
				12,
				16,
				20,
				24
			],
			"name":"spine.006",
			"rotation":[
				-0.1062503308057785,
				-2.3706894580755034e-07,
				-3.5729387079985655e-15,
				0.9943394064903259
			],
			"scale":[
				1,
				0.9999998807907104,
				0.9999999403953552
			],
			"translation":[
				6.261366225442143e-15,
				0.06559441983699799,
				2.7939677238464355e-09
			]
		},
		{
			"children":[
				25
			],
			"name":"spine.005",
			"rotation":[
				0.08165644109249115,
				2.3762235912272445e-07,
				-2.673462986364436e-15,
				0.9966605305671692
			],
			"scale":[
				1,
				0.9999999403953552,
				0.9999998807907104
			],
			"translation":[
				7.102511023163605e-16,
				0.07691975682973862,
				1.862645149230957e-09
			]
		},
		{
			"children":[
				26
			],
			"name":"spine.004",
			"rotation":[
				0.0612662099301815,
				-1.1898536200760645e-07,
				-7.303499582889117e-09,
				0.998121440410614
			],
			"scale":[
				1,
				0.9999999403953552,
				0.9999999403953552
			],
			"translation":[
				-3.5734202462290796e-22,
				0.22996972501277924,
				-5.587935447692871e-09
			]
		},
		{
			"name":"f_index.03.L",
			"rotation":[
				0.008281870745122433,
				-0.038878437131643295,
				0.051482927054166794,
				0.9978824853897095
			],
			"scale":[
				0.9999999403953552,
				0.9999998211860657,
				0.9999998807907104
			],
			"translation":[
				0,
				0.03522571921348572,
				1.9918661564588547e-07
			]
		},
		{
			"children":[
				28
			],
			"name":"f_index.02.L",
			"rotation":[
				-0.041857197880744934,
				-0.015084431506693363,
				-0.011429945006966591,
				0.9989443421363831
			],
			"translation":[
				-1.862645149230957e-08,
				0.04067389294505119,
				7.916241884231567e-09
			]
		},
		{
			"children":[
				29
			],
			"name":"f_index.01.L",
			"rotation":[
				0.09279756993055344,
				0.05734899267554283,
				-0.006340804044157267,
				0.9940118193626404
			],
			"scale":[
				0.9999999403953552,
				0.9999999403953552,
				1
			],
			"translation":[
				1.862645149230957e-08,
				0.0986759290099144,
				2.514570951461792e-08
			]
		},
		{
			"name":"thumb.03.L",
			"rotation":[
				0.11144670844078064,
				0.10765686631202698,
				0.059160102158784866,
				0.9861489534378052
			],
			"scale":[
				1.0000001192092896,
				1.0000001192092896,
				1
			],
			"translation":[
				-2.421438694000244e-08,
				0.04814177006483078,
				-4.284083843231201e-08
			]
		},
		{
			"children":[
				31
			],
			"name":"thumb.02.L",
			"rotation":[
				0.023902764543890953,
				0.033135004341602325,
				-0.05447768047451973,
				0.997678816318512
			],
			"scale":[
				1.0000001192092896,
				1,
				1
			],
			"translation":[
				-1.317821443080902e-07,
				0.03988046571612358,
				-1.862645149230957e-09
			]
		},
		{
			"children":[
				32
			],
			"name":"thumb.01.L",
			"rotation":[
				-0.05458727106451988,
				0.6347784996032715,
				0.1401638686656952,
				0.7579119801521301
			],
			"scale":[
				0.9999999403953552,
				1.0000001192092896,
				1.0000001192092896
			],
			"translation":[
				-0.009778279811143875,
				0.006671144627034664,
				0.0017597423866391182
			]
		},
		{
			"children":[
				30,
				33
			],
			"name":"palm.01.L",
			"rotation":[
				0.016375340521335602,
				0.6523067951202393,
				0.07785174995660782,
				0.7537683844566345
			],
			"scale":[
				1,
				0.9999998807907104,
				0.9999998807907104
			],
			"translation":[
				-0.0017781672067940235,
				0.020903585478663445,
				0.02158881351351738
			]
		},
		{
			"name":"f_middle.03.L",
			"rotation":[
				-0.0027677060570567846,
				-0.0019890484400093555,
				0.0035435098689049482,
				0.9999879002571106
			],
			"scale":[
				1,
				1,
				0.9999999403953552
			],
			"translation":[
				-1.1175870895385742e-08,
				0.038419805467128754,
				3.282912075519562e-08
			]
		},
		{
			"children":[
				35
			],
			"name":"f_middle.02.L",
			"rotation":[
				0.05222099646925926,
				-0.011375268921256065,
				-0.017456715926527977,
				0.9984182119369507
			],
			"scale":[
				1,
				0.9999998807907104,
				1
			],
			"translation":[
				0,
				0.05263032764196396,
				3.5390257835388184e-08
			]
		},
		{
			"children":[
				36
			],
			"name":"f_middle.01.L",
			"rotation":[
				0.07876608520746231,
				0.019807200878858566,
				0.01293550617992878,
				0.9966124296188354
			],
			"scale":[
				1,
				0.9999998807907104,
				1
			],
			"translation":[
				1.210719347000122e-08,
				0.1015654131770134,
				-4.691537469625473e-08
			]
		},
		{
			"children":[
				37
			],
			"name":"palm.02.L",
			"rotation":[
				-0.033981986343860626,
				0.6840875744819641,
				0.04554261267185211,
				0.7271831631660461
			],
			"scale":[
				1,
				0.9999998807907104,
				0.9999998807907104
			],
			"translation":[
				-0.001912083476781845,
				0.021130245178937912,
				0.00884486734867096
			]
		},
		{
			"name":"f_ring.03.L",
			"rotation":[
				-0.007778436876833439,
				-0.025842901319265366,
				-0.0056535592302680016,
				0.9996197819709778
			],
			"translation":[
				-3.026798367500305e-09,
				0.038865018635988235,
				-3.91155481338501e-08
			]
		},
		{
			"children":[
				39
			],
			"name":"f_ring.02.L",
			"rotation":[
				-0.0009914591209962964,
				-0.02796313352882862,
				0.008986825123429298,
				0.9995680451393127
			],
			"scale":[
				0.9999999403953552,
				0.9999998807907104,
				1
			],
			"translation":[
				-7.450580596923828e-09,
				0.04424852132797241,
				-1.909211277961731e-08
			]
		},
		{
			"children":[
				40
			],
			"name":"f_ring.01.L",
			"rotation":[
				0.1257815957069397,
				-0.0030862586572766304,
				0.014379025436937809,
				0.9919489622116089
			],
			"scale":[
				1,
				1,
				0.9999999403953552
			],
			"translation":[
				-3.725290298461914e-09,
				0.10030622780323029,
				8.12578946352005e-08
			]
		},
		{
			"children":[
				41
			],
			"name":"palm.03.L",
			"rotation":[
				-0.057089805603027344,
				0.6934089660644531,
				0.012387381866574287,
				0.7181722521781921
			],
			"scale":[
				1,
				0.9999999403953552,
				1
			],
			"translation":[
				-0.0009172502905130386,
				0.02105853147804737,
				-0.008449185639619827
			]
		},
		{
			"name":"f_pinky.03.L",
			"rotation":[
				0.02137770876288414,
				-0.020362915471196175,
				-0.008660012856125832,
				0.9995265603065491
			],
			"scale":[
				1,
				1,
				0.9999998807907104
			],
			"translation":[
				2.60770320892334e-08,
				0.027101732790470123,
				1.6344711184501648e-07
			]
		},
		{
			"children":[
				43
			],
			"name":"f_pinky.02.L",
			"rotation":[
				0.039156459271907806,
				0.016613729298114777,
				0.00038754736306145787,
				0.9990949034690857
			],
			"scale":[
				1,
				0.9999999403953552,
				0.9999999403953552
			],
			"translation":[
				1.4901161193847656e-08,
				0.03868221491575241,
				-1.955777406692505e-08
			]
		},
		{
			"children":[
				44
			],
			"name":"f_pinky.01.L",
			"rotation":[
				0.008556787855923176,
				-0.09763297438621521,
				0.027694670483469963,
				0.9948002696037292
			],
			"scale":[
				0.9999999403953552,
				0.9999998807907104,
				0.9999999403953552
			],
			"translation":[
				3.725290298461914e-08,
				0.10053745657205582,
				-6.798654794692993e-08
			]
		},
		{
			"children":[
				45
			],
			"name":"palm.04.L",
			"rotation":[
				-0.045416511595249176,
				0.7226835489273071,
				-0.046347104012966156,
				0.688126266002655
			],
			"scale":[
				1,
				1.0000001192092896,
				1
			],
			"translation":[
				-0.0023277951404452324,
				0.020107923075556755,
				-0.02323300950229168
			]
		},
		{
			"children":[
				34,
				38,
				42,
				46
			],
			"name":"hand.L",
			"rotation":[
				-0.012265680357813835,
				0.01205915492027998,
				0.04230799525976181,
				0.998956561088562
			],
			"scale":[
				0.9999999403953552,
				0.9999999403953552,
				0.9999999403953552
			],
			"translation":[
				4.540197551250458e-08,
				0.26016080379486084,
				1.816079020500183e-08
			]
		},
		{
			"children":[
				47
			],
			"name":"forearm.L",
			"rotation":[
				0.025488289073109627,
				0.06337181478738785,
				0.042443979531526566,
				0.9967612028121948
			],
			"scale":[
				1,
				0.9999998807907104,
				1
			],
			"translation":[
				6.984919309616089e-09,
				0.372823029756546,
				-1.862645149230957e-08
			]
		},
		{
			"children":[
				48
			],
			"name":"upper_arm.L",
			"rotation":[
				0.24452534317970276,
				0.6771686673164368,
				-0.1933579295873642,
				0.6665303707122803
			],
			"scale":[
				0.9999999403953552,
				0.9999999403953552,
				0.9999999403953552
			],
			"translation":[
				0.007580524310469627,
				0.23360855877399445,
				0.040934301912784576
			]
		},
		{
			"children":[
				49
			],
			"name":"shoulder.L",
			"rotation":[
				-0.6721317768096924,
				-0.25538766384124756,
				-0.34828871488571167,
				0.6014242172241211
			],
			"scale":[
				0.9999999403953552,
				0.9999999403953552,
				1
			],
			"translation":[
				0.021772824227809906,
				0.1799197793006897,
				0.09881477802991867
			]
		},
		{
			"name":"breast.L.003",
			"rotation":[
				0.012172513641417027,
				2.0661680366629298e-07,
				-7.255388290161591e-09,
				0.999925971031189
			],
			"scale":[
				1,
				0.9999999403953552,
				0.9999999403953552
			],
			"translation":[
				-5.758209464801212e-09,
				0.08038084954023361,
				-1.6403042479851138e-08
			]
		},
		{
			"children":[
				51
			],
			"name":"breast.L.002",
			"rotation":[
				-0.017406780272722244,
				-5.690754941931053e-14,
				1.397205107167565e-08,
				0.999848484992981
			],
			"scale":[
				1,
				0.9999999403953552,
				1
			],
			"translation":[
				5.810987246945842e-09,
				0.055375006049871445,
				1.246923204689665e-07
			]
		},
		{
			"children":[
				52
			],
			"name":"breast.L.001",
			"rotation":[
				0.009821457788348198,
				-3.576106166747195e-07,
				-4.3710599584301235e-09,
				0.9999517798423767
			],
			"translation":[
				-4.098066774815834e-09,
				0.04393070563673973,
				2.080372141222142e-08
			]
		},
		{
			"children":[
				53
			],
			"name":"breast.L",
			"rotation":[
				3.227356870638687e-08,
				0.6744362115859985,
				0.7383331060409546,
				2.9480542451665315e-08
			],
			"scale":[
				1,
				1,
				0.9999999403953552
			],
			"translation":[
				0.13097962737083435,
				0.0818105936050415,
				0.030376918613910675
			]
		},
		{
			"name":"f_index.03.R",
			"rotation":[
				0.008281870745122433,
				0.038878437131643295,
				-0.051482927054166794,
				0.9978824853897095
			],
			"scale":[
				0.9999999403953552,
				0.9999998211860657,
				0.9999998807907104
			],
			"translation":[
				0,
				0.03522571921348572,
				1.9918661564588547e-07
			]
		},
		{
			"children":[
				55
			],
			"name":"f_index.02.R",
			"rotation":[
				-0.041857197880744934,
				0.015084431506693363,
				0.011429945006966591,
				0.9989443421363831
			],
			"translation":[
				1.862645149230957e-08,
				0.04067389294505119,
				7.916241884231567e-09
			]
		},
		{
			"children":[
				56
			],
			"name":"f_index.01.R",
			"rotation":[
				0.09279756993055344,
				-0.05734899267554283,
				0.006340804044157267,
				0.9940118193626404
			],
			"scale":[
				0.9999999403953552,
				0.9999999403953552,
				1
			],
			"translation":[
				-1.862645149230957e-08,
				0.0986759290099144,
				2.514570951461792e-08
			]
		},
		{
			"name":"thumb.03.R",
			"rotation":[
				0.11144670844078064,
				-0.10765686631202698,
				-0.059160102158784866,
				0.9861489534378052
			],
			"scale":[
				1.0000001192092896,
				1.0000001192092896,
				1
			],
			"translation":[
				2.421438694000244e-08,
				0.04814177006483078,
				-4.284083843231201e-08
			]
		},
		{
			"children":[
				58
			],
			"name":"thumb.02.R",
			"rotation":[
				0.023902764543890953,
				-0.033135004341602325,
				0.05447768047451973,
				0.997678816318512
			],
			"scale":[
				1.0000001192092896,
				1,
				1
			],
			"translation":[
				1.317821443080902e-07,
				0.03988046571612358,
				-1.862645149230957e-09
			]
		},
		{
			"children":[
				59
			],
			"name":"thumb.01.R",
			"rotation":[
				-0.05458727106451988,
				-0.6347784996032715,
				-0.1401638686656952,
				0.7579119801521301
			],
			"scale":[
				0.9999999403953552,
				1.0000001192092896,
				1.0000001192092896
			],
			"translation":[
				0.009778279811143875,
				0.006671144627034664,
				0.0017597423866391182
			]
		},
		{
			"children":[
				57,
				60
			],
			"name":"palm.01.R",
			"rotation":[
				0.016375340521335602,
				-0.6523067951202393,
				-0.07785174995660782,
				0.7537683844566345
			],
			"scale":[
				1,
				0.9999998807907104,
				0.9999998807907104
			],
			"translation":[
				0.0017781672067940235,
				0.020903585478663445,
				0.02158881351351738
			]
		},
		{
			"name":"f_middle.03.R",
			"rotation":[
				-0.0027677060570567846,
				0.0019890484400093555,
				-0.0035435098689049482,
				0.9999879002571106
			],
			"scale":[
				1,
				1,
				0.9999999403953552
			],
			"translation":[
				1.1175870895385742e-08,
				0.038419805467128754,
				3.282912075519562e-08
			]
		},
		{
			"children":[
				62
			],
			"name":"f_middle.02.R",
			"rotation":[
				0.05222099646925926,
				0.011375268921256065,
				0.017456715926527977,
				0.9984182119369507
			],
			"scale":[
				1,
				0.9999998807907104,
				1
			],
			"translation":[
				0,
				0.05263032764196396,
				3.5390257835388184e-08
			]
		},
		{
			"children":[
				63
			],
			"name":"f_middle.01.R",
			"rotation":[
				0.07876608520746231,
				-0.019807200878858566,
				-0.01293550617992878,
				0.9966124296188354
			],
			"scale":[
				1,
				0.9999998807907104,
				1
			],
			"translation":[
				-1.210719347000122e-08,
				0.1015654131770134,
				-4.691537469625473e-08
			]
		},
		{
			"children":[
				64
			],
			"name":"palm.02.R",
			"rotation":[
				-0.033981986343860626,
				-0.6840875744819641,
				-0.04554261267185211,
				0.7271831631660461
			],
			"scale":[
				1,
				0.9999998807907104,
				0.9999998807907104
			],
			"translation":[
				0.001912083476781845,
				0.021130245178937912,
				0.00884486734867096
			]
		},
		{
			"name":"f_ring.03.R",
			"rotation":[
				-0.007778436876833439,
				0.025842901319265366,
				0.0056535592302680016,
				0.9996197819709778
			],
			"translation":[
				3.026798367500305e-09,
				0.038865018635988235,
				-3.91155481338501e-08
			]
		},
		{
			"children":[
				66
			],
			"name":"f_ring.02.R",
			"rotation":[
				-0.0009914591209962964,
				0.02796313352882862,
				-0.008986825123429298,
				0.9995680451393127
			],
			"scale":[
				0.9999999403953552,
				0.9999998807907104,
				1
			],
			"translation":[
				7.450580596923828e-09,
				0.04424852132797241,
				-1.909211277961731e-08
			]
		},
		{
			"children":[
				67
			],
			"name":"f_ring.01.R",
			"rotation":[
				0.1257815957069397,
				0.0030862586572766304,
				-0.014379025436937809,
				0.9919489622116089
			],
			"scale":[
				1,
				1,
				0.9999999403953552
			],
			"translation":[
				3.725290298461914e-09,
				0.10030622780323029,
				8.12578946352005e-08
			]
		},
		{
			"children":[
				68
			],
			"name":"palm.03.R",
			"rotation":[
				-0.057089805603027344,
				-0.6934089660644531,
				-0.012387381866574287,
				0.7181722521781921
			],
			"scale":[
				1,
				0.9999999403953552,
				1
			],
			"translation":[
				0.0009172502905130386,
				0.02105853147804737,
				-0.008449185639619827
			]
		},
		{
			"name":"f_pinky.03.R",
			"rotation":[
				0.02137770876288414,
				0.020362915471196175,
				0.008660012856125832,
				0.9995265603065491
			],
			"scale":[
				1,
				1,
				0.9999998807907104
			],
			"translation":[
				-2.60770320892334e-08,
				0.027101732790470123,
				1.6344711184501648e-07
			]
		},
		{
			"children":[
				70
			],
			"name":"f_pinky.02.R",
			"rotation":[
				0.039156459271907806,
				-0.016613729298114777,
				-0.00038754736306145787,
				0.9990949034690857
			],
			"scale":[
				1,
				0.9999999403953552,
				0.9999999403953552
			],
			"translation":[
				-1.4901161193847656e-08,
				0.03868221491575241,
				-1.955777406692505e-08
			]
		},
		{
			"children":[
				71
			],
			"name":"f_pinky.01.R",
			"rotation":[
				0.008556787855923176,
				0.09763297438621521,
				-0.027694670483469963,
				0.9948002696037292
			],
			"scale":[
				0.9999999403953552,
				0.9999998807907104,
				0.9999999403953552
			],
			"translation":[
				-3.725290298461914e-08,
				0.10053745657205582,
				-6.798654794692993e-08
			]
		},
		{
			"children":[
				72
			],
			"name":"palm.04.R",
			"rotation":[
				-0.045416511595249176,
				-0.7226835489273071,
				0.046347104012966156,
				0.688126266002655
			],
			"scale":[
				1,
				1.0000001192092896,
				1
			],
			"translation":[
				0.0023277951404452324,
				0.020107923075556755,
				-0.02323300950229168
			]
		},
		{
			"children":[
				61,
				65,
				69,
				73
			],
			"name":"hand.R",
			"rotation":[
				-0.012265680357813835,
				-0.01205915492027998,
				-0.04230799525976181,
				0.998956561088562
			],
			"scale":[
				0.9999999403953552,
				0.9999999403953552,
				0.9999999403953552
			],
			"translation":[
				-4.540197551250458e-08,
				0.26016080379486084,
				1.816079020500183e-08
			]
		},
		{
			"children":[
				74
			],
			"name":"forearm.R",
			"rotation":[
				0.025488289073109627,
				-0.06337181478738785,
				-0.042443979531526566,
				0.9967612028121948
			],
			"scale":[
				1,
				0.9999998807907104,
				1
			],
			"translation":[
				-6.984919309616089e-09,
				0.372823029756546,
				-1.862645149230957e-08
			]
		},
		{
			"children":[
				75
			],
			"name":"upper_arm.R",
			"rotation":[
				0.24452534317970276,
				-0.6771686673164368,
				0.1933579295873642,
				0.6665303707122803
			],
			"scale":[
				0.9999999403953552,
				0.9999999403953552,
				0.9999999403953552
			],
			"translation":[
				-0.007580524310469627,
				0.23360855877399445,
				0.040934301912784576
			]
		},
		{
			"children":[
				76
			],
			"name":"shoulder.R",
			"rotation":[
				-0.6721317768096924,
				0.25538766384124756,
				0.34828871488571167,
				0.6014242172241211
			],
			"scale":[
				0.9999999403953552,
				0.9999999403953552,
				1
			],
			"translation":[
				-0.021772824227809906,
				0.1799197793006897,
				0.09881477802991867
			]
		},
		{
			"name":"breast.R.003",
			"rotation":[
				0.012172513641417027,
				-2.0661680366629298e-07,
				7.2553860697155415e-09,
				0.999925971031189
			],
			"scale":[
				1,
				0.9999999403953552,
				0.9999999403953552
			],
			"translation":[
				5.7582099088904215e-09,
				0.08038084954023361,
				-1.6403028268996422e-08
			]
		},
		{
			"children":[
				78
			],
			"name":"breast.R.002",
			"rotation":[
				-0.017406780272722244,
				2.8314976502786388e-14,
				-1.397205107167565e-08,
				0.999848484992981
			],
			"scale":[
				1,
				0.9999999403953552,
				1
			],
			"translation":[
				-5.810987246945842e-09,
				0.055375006049871445,
				1.246923204689665e-07
			]
		},
		{
			"children":[
				79
			],
			"name":"breast.R.001",
			"rotation":[
				0.009821457788348198,
				4.450292294677638e-07,
				3.5124125830066077e-09,
				0.9999517798423767
			],
			"translation":[
				-4.098066774815834e-09,
				0.04393070563673973,
				-2.0974821879349292e-09
			]
		},
		{
			"children":[
				80
			],
			"name":"breast.R",
			"rotation":[
				3.227356870638687e-08,
				0.6744362115859985,
				0.7383331060409546,
				2.9480542451665315e-08
			],
			"scale":[
				1,
				1,
				0.9999999403953552
			],
			"translation":[
				-0.13097962737083435,
				0.0818105936050415,
				0.030376918613910675
			]
		},
		{
			"children":[
				27,
				50,
				54,
				77,
				81
			],
			"name":"spine.003",
			"rotation":[
				-0.027233673259615898,
				-1.1916505826548018e-07,
				-3.24650728522613e-09,
				0.9996290802955627
			],
			"translation":[
				-4.440892098500626e-16,
				0.18221327662467957,
				1.862645149230957e-09
			]
		},
		{
			"children":[
				82
			],
			"name":"spine.002",
			"rotation":[
				-0.06498613953590393,
				-3.337724646567861e-15,
				-1.549390304944609e-08,
				0.9978861808776855
			],
			"scale":[
				1,
				1.0000001192092896,
				1
			],
			"translation":[
				-2.4077961846558082e-15,
				0.16696950793266296,
				1.0099029168486595e-08
			]
		},
		{
			"children":[
				83
			],
			"name":"spine.001",
			"rotation":[
				-0.15181677043437958,
				1.1232428739365208e-15,
				-3.619593869075288e-08,
				0.9884086847305298
			],
			"scale":[
				1,
				0.9999999403953552,
				0.9999999403953552
			],
			"translation":[
				-2.886579864025407e-15,
				0.12743668258190155,
				1.210719347000122e-08
			]
		},
		{
			"name":"pelvis.L",
			"rotation":[
				-0.2812320590019226,
				-0.7488290667533875,
				-0.37667936086654663,
				0.467200368642807
			],
			"scale":[
				1,
				1.0000003576278687,
				1
			],
			"translation":[
				-2.6645352591003757e-15,
				-4.284083843231201e-08,
				1.1175870895385742e-08
			]
		},
		{
			"name":"pelvis.R",
			"rotation":[
				-0.28123217821121216,
				0.7488289475440979,
				0.37667930126190186,
				0.4672006070613861
			],
			"scale":[
				1,
				1.000000238418579,
				1
			],
			"translation":[
				-2.6645352591003757e-15,
				-4.284083843231201e-08,
				1.1175870895385742e-08
			]
		},
		{
			"name":"toe.L",
			"rotation":[
				0.02592291496694088,
				-0.9525720477104187,
				0.30315274000167847,
				0.005738323554396629
			],
			"scale":[
				1,
				0.9999999403953552,
				1.0000001192092896
			],
			"translation":[
				7.887138053774834e-09,
				0.21776790916919708,
				-5.820766091346741e-10
			]
		},
		{
			"name":"heel.02.L",
			"rotation":[
				0.6602106690406799,
				0.654930830001831,
				-0.257453978061676,
				0.26249754428863525
			],
			"scale":[
				1,
				0.9999998211860657,
				1
			],
			"translation":[
				-0.041925739496946335,
				0.09099118411540985,
				0.1490357667207718
			]
		},
		{
			"children":[
				87,
				88
			],
			"name":"foot.L",
			"rotation":[
				-0.4630066156387329,
				-0.010030215606093407,
				0.03266996145248413,
				0.8856958150863647
			],
			"scale":[
				0.9999998807907104,
				0.9999999403953552,
				0.9999998807907104
			],
			"translation":[
				-5.1513779908418655e-09,
				0.6315314173698425,
				-1.3271346688270569e-08
			]
		},
		{
			"children":[
				89
			],
			"name":"shin.L",
			"rotation":[
				0.1193380132317543,
				0.007078136317431927,
				-0.004300036933273077,
				0.9928191304206848
			],
			"scale":[
				0.9999998807907104,
				0.9999999403953552,
				1
			],
			"translation":[
				1.784064806997776e-08,
				0.457034707069397,
				-4.7584762796759605e-09
			]
		},
		{
			"children":[
				90
			],
			"name":"thigh.L",
			"rotation":[
				0.9692143797874451,
				0.031042050570249557,
				-0.008526724763214588,
				0.24410481750965118
			],
			"scale":[
				1,
				1.0000001192092896,
				1.0000011920928955
			],
			"translation":[
				0.12967628240585327,
				-0.0075698853470385075,
				0.05845332890748978
			]
		},
		{
			"name":"toe.R",
			"rotation":[
				0.02592291124165058,
				0.9525720477104187,
				-0.30315282940864563,
				0.00573832169175148
			],
			"scale":[
				1,
				1.000000238418579,
				0.9999998211860657
			],
			"translation":[
				-7.53789208829403e-09,
				0.2177678495645523,
				-8.614733815193176e-09
			]
		},
		{
			"name":"heel.02.R",
			"rotation":[
				0.6602105498313904,
				-0.6549309492111206,
				0.25745415687561035,
				0.26249760389328003
			],
			"scale":[
				0.9999998211860657,
				0.9999998211860657,
				0.9999998807907104
			],
			"translation":[
				0.04192572459578514,
				0.09099118411540985,
				0.1490357369184494
			]
		},
		{
			"children":[
				92,
				93
			],
			"name":"foot.R",
			"rotation":[
				-0.46300655603408813,
				0.010030207224190235,
				-0.03266996517777443,
				0.8856958150863647
			],
			"scale":[
				0.9999998807907104,
				0.9999999403953552,
				1
			],
			"translation":[
				8.64383764564991e-09,
				0.6315314769744873,
				-2.444721758365631e-09
			]
		},
		{
			"children":[
				94
			],
			"name":"shin.R",
			"rotation":[
				0.11933796107769012,
				-0.007078125141561031,
				0.004300026223063469,
				0.9928191304206848
			],
			"scale":[
				0.9999999403953552,
				1,
				1.0000001192092896
			],
			"translation":[
				-1.4813849702477455e-08,
				0.4570348858833313,
				3.827153705060482e-09
			]
		},
		{
			"children":[
				95
			],
			"name":"thigh.R",
			"rotation":[
				0.9692144393920898,
				-0.031042123213410378,
				0.008526965975761414,
				0.2441047877073288
			],
			"scale":[
				1,
				1,
				1.0000014305114746
			],
			"translation":[
				-0.12967631220817566,
				-0.00756988488137722,
				0.0584532655775547
			]
		},
		{
			"children":[
				84,
				85,
				86,
				91,
				96
			],
			"name":"spine",
			"rotation":[
				0.19815760850906372,
				1.1684538492318097e-07,
				2.362222950580417e-08,
				0.9801701307296753
			],
			"translation":[
				0,
				1.278093934059143,
				-0.06567539274692535
			]
		},
		{
			"mesh":0,
			"name":"0_body",
			"skin":0
		},
		{
			"children":[
				98,
				97
			],
			"name":"metarig"
		}
	],
	"materials":[
		{
			"doubleSided":true,
			"name":"Material.001",
			"pbrMetallicRoughness":{
				"baseColorTexture":{
					"index":0
				},
				"metallicFactor":0,
				"roughnessFactor":0.5
			}
		}
	],
	"meshes":[
		{
			"name":"Plane.003",
			"primitives":[
				{
					"attributes":{
						"POSITION":0,
						"NORMAL":1,
						"TEXCOORD_0":2,
						"JOINTS_0":3,
						"WEIGHTS_0":4
					},
					"indices":5,
					"material":0
				}
			]
		}
	],
	"textures":[
		{
			"sampler":0,
			"source":0
		}
	],
	"images":[
		{
			"mimeType":"image/png",
			"name":"texfox.png.001",
			"uri":"texfox.png"
		}
	],
	"skins":[
		{
			"inverseBindMatrices":6,
			"joints":[
				97,
				84,
				83,
				82,
				27,
				26,
				25,
				0,
				4,
				3,
				2,
				1,
				8,
				7,
				6,
				5,
				12,
				11,
				10,
				9,
				16,
				15,
				14,
				13,
				20,
				19,
				18,
				17,
				24,
				23,
				22,
				21,
				50,
				49,
				48,
				47,
				34,
				30,
				29,
				28,
				33,
				32,
				31,
				38,
				37,
				36,
				35,
				42,
				41,
				40,
				39,
				46,
				45,
				44,
				43,
				54,
				53,
				52,
				51,
				77,
				76,
				75,
				74,
				61,
				57,
				56,
				55,
				60,
				59,
				58,
				65,
				64,
				63,
				62,
				69,
				68,
				67,
				66,
				73,
				72,
				71,
				70,
				81,
				80,
				79,
				78,
				85,
				86,
				91,
				90,
				89,
				87,
				88,
				96,
				95,
				94,
				92,
				93
			],
			"name":"metarig"
		}
	],
	"accessors":[
		{
			"bufferView":0,
			"componentType":5126,
			"count":36439,
			"max":[
				1.0774827003479004,
				2.541628122329712,
				0.1951133906841278
			],
			"min":[
				-1.0774827003479004,
				-0.003749632276594639,
				-0.31128567457199097
			],
			"type":"VEC3"
		},
		{
			"bufferView":1,
			"componentType":5126,
			"count":36439,
			"type":"VEC3"
		},
		{
			"bufferView":2,
			"componentType":5126,
			"count":36439,
			"type":"VEC2"
		},
		{
			"bufferView":3,
			"componentType":5121,
			"count":36439,
			"type":"VEC4"
		},
		{
			"bufferView":4,
			"componentType":5126,
			"count":36439,
			"type":"VEC4"
		},
		{
			"bufferView":5,
			"componentType":5123,
			"count":205875,
			"type":"SCALAR"
		},
		{
			"bufferView":6,
			"componentType":5126,
			"count":98,
			"type":"MAT4"
		}
	],
	"bufferViews":[
		{
			"buffer":0,
			"byteLength":437268,
			"byteOffset":0,
			"target":34962
		},
		{
			"buffer":0,
			"byteLength":437268,
			"byteOffset":437268,
			"target":34962
		},
		{
			"buffer":0,
			"byteLength":291512,
			"byteOffset":874536,
			"target":34962
		},
		{
			"buffer":0,
			"byteLength":145756,
			"byteOffset":1166048,
			"target":34962
		},
		{
			"buffer":0,
			"byteLength":583024,
			"byteOffset":1311804,
			"target":34962
		},
		{
			"buffer":0,
			"byteLength":411750,
			"byteOffset":1894828,
			"target":34963
		},
		{
			"buffer":0,
			"byteLength":6272,
			"byteOffset":2306580
		}
	],
	"samplers":[
		{
			"magFilter":9729,
			"minFilter":9987
		}
	],
	"buffers":[
		{
			"byteLength":2312852,
			"uri":"fox.bin"
		}
	]
}
