# Blender 3.3.1
# www.blender.org
mtllib kariBullet.mtl
o 立方体
v 1.284777 0.000000 -2.218114
v 0.000000 0.565728 -1.000000
v 0.000000 0.565728 1.000000
v 0.000000 0.000000 3.148217
v 0.000000 0.000000 -1.000000
v -1.284777 0.000000 -2.218114
v 0.000000 -0.565728 -1.000000
v 0.000000 -0.565728 1.000000
vn -0.6880 -0.0000 -0.7257
vn 0.4030 0.9152 -0.0000
vn 0.7286 0.6624 0.1744
vn 0.6880 -0.0000 -0.7257
vn -0.4030 0.9152 -0.0000
vn -0.7286 0.6624 0.1744
vn 0.4030 -0.9152 -0.0000
vn 0.7286 -0.6624 0.1744
vn -0.4030 -0.9152 -0.0000
vn -0.7286 -0.6624 0.1744
vt 0.935517 0.044732
vt 0.059511 0.519531
vt 0.921202 0.908011
vt 0.289062 0.620610
vt 0.797165 0.233324
vt 0.587161 0.233324
vt 0.322296 0.233324
vt 0.391298 0.745043
vt 0.289062 0.519531
vt 0.935517 0.421916
vt 0.518614 0.519531
vt 0.921202 0.582075
vt 0.289062 0.418452
vt 0.801647 0.745043
vt 0.620176 0.745043
s 0
usemtl マテリアル
f 5/9/1 2/4/1 1/2/1
f 1/1/2 2/5/2 3/6/2
f 1/1/3 3/6/3 4/7/3
f 5/9/4 6/11/4 2/4/4
f 6/10/5 3/6/5 2/5/5
f 6/10/6 4/7/6 3/6/6
f 5/9/1 1/2/1 7/13/1
f 1/3/7 8/15/7 7/14/7
f 1/3/8 4/8/8 8/15/8
f 5/9/4 7/13/4 6/11/4
f 6/12/9 7/14/9 8/15/9
f 6/12/10 8/15/10 4/8/10
