# Blender 3.3.1
# www.blender.org
mtllib bill1.mtl
o Cube
v -5.000000 32.005234 5.000000
v -5.000000 0.003900 5.000000
v -5.000000 32.005234 -5.000000
v -5.000000 0.003900 -5.000000
v 5.000000 32.005234 5.000000
v 5.000000 0.003900 5.000000
v 5.000000 32.005234 -5.000000
v 5.000000 0.003900 -5.000000
vn -0.0000 1.0000 -0.0000
vn -0.0000 -0.0000 -1.0000
vn 1.0000 -0.0000 -0.0000
vn -0.0000 -1.0000 -0.0000
vn -1.0000 -0.0000 -0.0000
vn -0.0000 -0.0000 1.0000
vt 0.625000 0.753461
vt -0.002490 0.000025
vt 0.997617 0.000025
vt -0.002490 0.746514
vt 0.375000 0.748539
vt 0.997617 0.748975
vt 0.625000 0.996078
vt 0.746595 0.749000
vt 0.254406 0.000025
vt 0.746595 0.000000
vt 0.375000 0.998539
vt 0.254406 0.746514
vt 0.875000 0.753461
vt 0.500539 0.000025
vt 0.753025 0.000025
vt 0.125000 0.748539
vt 0.753025 0.748975
vt 0.500539 0.746514
vt 0.875000 0.996078
vt 0.504461 0.749000
vt 0.260868 0.000025
vt 0.260868 0.746514
vt 0.504461 0.000000
vt 0.125000 0.998539
s 0
usemtl Material
f 5/13/1 3/7/1 1/1/1
f 3/8/2 8/23/2 4/10/2
f 7/21/3 6/18/3 8/22/3
f 2/5/4 8/24/4 6/16/4
f 1/2/5 4/12/5 2/4/5
f 5/15/6 2/6/6 6/17/6
f 5/13/1 7/19/1 3/7/1
f 3/8/2 7/20/2 8/23/2
f 7/21/3 5/14/3 6/18/3
f 2/5/4 4/11/4 8/24/4
f 1/2/5 3/9/5 4/12/5
f 5/15/6 1/3/6 2/6/6
