# Blender 3.3.1
# www.blender.org
mtllib arrowEffect.mtl
o 平面
v 0.500000 -1.000003 0.001315
v 0.108507 -0.000000 0.200000
v 0.108507 0.000000 -0.200000
v -0.500000 0.000000 0.000000
v 0.500000 1.000003 -0.001315
v -0.195746 0.000000 -0.100000
v 0.304254 -0.500001 0.100657
v 0.304254 -0.500001 -0.099343
v 0.000000 -0.500001 0.000657
v 0.000000 0.500001 -0.000657
v 0.304253 0.500001 -0.100657
v 0.108507 0.000000 0.000000
v -0.195746 -0.000000 0.100000
v 0.304253 0.500001 0.099343
v -0.347873 0.000000 -0.050000
v 0.206380 -0.250001 0.150329
v 0.206380 -0.250001 -0.149671
v -0.250000 -0.250001 0.000329
v 0.250000 0.750002 -0.000986
v 0.402127 0.750002 -0.050986
v 0.108507 0.000000 -0.100000
v -0.347873 -0.000000 0.050000
v 0.402127 0.750002 0.049014
v -0.043620 0.000000 -0.150000
v 0.402127 -0.750002 0.050986
v 0.402127 -0.750002 -0.049014
v 0.250000 -0.750002 0.000986
v -0.250000 0.250001 -0.000329
v 0.206380 0.250001 -0.150329
v 0.108507 -0.000000 0.100000
v -0.043620 -0.000000 0.150000
v 0.206380 0.250001 0.149671
v 0.206380 0.250001 -0.050329
v 0.304253 0.500001 -0.000657
v 0.206380 0.250001 0.049671
v 0.152127 0.500001 0.049343
v -0.097873 0.250001 0.049671
v 0.054254 0.250001 0.099671
v -0.097873 0.250001 -0.050329
v 0.152127 0.500001 -0.050657
v 0.054254 0.250001 -0.100329
v 0.206380 -0.250001 0.050329
v 0.304254 -0.500001 0.000657
v 0.206380 -0.250001 -0.049671
v 0.152127 -0.500001 -0.049343
v -0.097873 -0.250001 -0.049671
v 0.054254 -0.250001 -0.099671
v -0.097873 -0.250001 0.050329
v 0.152127 -0.500001 0.050657
v 0.054254 -0.250001 0.100329
vn -0.2982 -0.2970 0.9071
vn -0.2979 -0.2991 -0.9065
vn 0.9312 0.3646 -0.0000
vn -0.2982 0.2970 -0.9071
vn -0.2979 0.2991 0.9065
vn 0.9312 -0.3646 -0.0000
vt 0.000000 0.000000
vt 1.000000 0.000000
vt 0.000000 1.000000
vt 1.000000 0.000000
vt 0.000000 1.000000
vt 1.000000 1.000000
vt 0.000000 0.000000
vt 1.000000 0.500000
vt 0.500000 1.000000
vt 0.000000 0.500000
vt 0.500000 0.000000
vt 0.000000 0.500000
vt 0.500000 0.500000
vt 0.500000 0.500000
vt 0.000000 0.500000
vt 0.500000 0.000000
vt 0.000000 1.000000
vt 1.000000 0.500000
vt 0.500000 1.000000
vt 0.000000 0.500000
vt 1.000000 0.750000
vt 0.750000 1.000000
vt 0.750000 0.000000
vt 0.000000 0.750000
vt 0.000000 0.750000
vt 0.750000 0.750000
vt 0.250000 0.250000
vt 0.000000 0.250000
vt 0.250000 0.000000
vt 0.000000 1.000000
vt 1.000000 0.750000
vt 0.750000 1.000000
vt 0.000000 0.250000
vt 0.250000 1.000000
vt 1.000000 0.250000
vt 0.000000 0.250000
vt 0.250000 0.000000
vt 0.000000 0.250000
vt 0.250000 0.250000
vt 0.750000 0.750000
vt 0.750000 0.000000
vt 0.000000 0.750000
vt 0.000000 1.000000
vt 1.000000 0.250000
vt 0.250000 1.000000
vt 0.000000 0.750000
vt 0.000000 0.750000
vt 0.000000 0.500000
vt 0.000000 0.750000
vt 0.250000 0.500000
vt 0.500000 0.750000
vt 0.250000 0.750000
vt 0.750000 0.500000
vt 0.500000 0.250000
vt 0.750000 0.250000
vt 0.000000 0.750000
vt 0.000000 0.500000
vt 0.000000 0.750000
vt 0.250000 0.500000
vt 0.500000 0.750000
vt 0.250000 0.750000
vt 0.750000 0.500000
vt 0.500000 0.250000
vt 0.750000 0.250000
s 0
usemtl マテリアル
f 1/1/1 25/37/1 27/39/1
f 4/6/2 15/22/2 18/26/2
f 1/1/3 26/38/3 25/36/3
f 5/7/4 20/29/4 19/27/4
f 4/6/5 22/32/5 28/40/5
f 5/7/6 23/33/6 20/28/6
f 11/15/6 33/47/6 29/42/6
f 11/15/6 34/48/6 33/47/6
f 14/20/6 32/46/6 35/49/6
f 10/14/5 36/50/5 19/27/5
f 10/14/5 37/51/5 36/50/5
f 13/19/5 31/45/5 38/52/5
f 10/14/4 39/53/4 28/40/4
f 10/14/4 40/54/4 39/53/4
f 11/16/4 29/41/4 41/55/4
f 7/10/3 42/56/3 16/24/3
f 7/10/3 43/57/3 42/56/3
f 8/12/3 17/25/3 44/58/3
f 9/13/2 45/59/2 27/39/2
f 9/13/2 46/60/2 45/59/2
f 6/9/2 24/34/2 47/61/2
f 9/13/1 48/62/1 18/26/1
f 9/13/1 49/63/1 48/62/1
f 7/11/1 16/23/1 50/64/1
f 50/64/1 31/44/1 13/18/1
f 50/64/1 16/23/1 31/44/1
f 16/23/1 2/2/1 31/44/1
f 48/62/1 50/64/1 13/18/1
f 48/62/1 49/63/1 50/64/1
f 49/63/1 7/11/1 50/64/1
f 18/26/1 22/31/1 4/6/1
f 18/26/1 48/62/1 22/31/1
f 48/62/1 13/18/1 22/31/1
f 47/61/2 17/25/2 8/12/2
f 47/61/2 24/34/2 17/25/2
f 24/34/2 3/5/2 17/25/2
f 45/59/2 47/61/2 8/12/2
f 45/59/2 46/60/2 47/61/2
f 46/60/2 6/9/2 47/61/2
f 27/39/2 26/38/2 1/1/2
f 27/39/2 45/59/2 26/38/2
f 45/59/2 8/12/2 26/38/2
f 44/58/3 21/30/3 12/17/3
f 44/58/3 17/25/3 21/30/3
f 17/25/3 3/5/3 21/30/3
f 42/56/3 44/58/3 12/17/3
f 42/56/3 43/57/3 44/58/3
f 43/57/3 8/12/3 44/58/3
f 16/24/3 30/43/3 2/3/3
f 16/24/3 42/56/3 30/43/3
f 42/56/3 12/17/3 30/43/3
f 41/55/4 24/35/4 6/8/4
f 41/55/4 29/41/4 24/35/4
f 29/41/4 3/4/4 24/35/4
f 39/53/4 41/55/4 6/8/4
f 39/53/4 40/54/4 41/55/4
f 40/54/4 11/16/4 41/55/4
f 28/40/4 15/21/4 4/6/4
f 28/40/4 39/53/4 15/21/4
f 39/53/4 6/8/4 15/21/4
f 38/52/5 32/46/5 14/20/5
f 38/52/5 31/45/5 32/46/5
f 31/45/5 2/3/5 32/46/5
f 36/50/5 38/52/5 14/20/5
f 36/50/5 37/51/5 38/52/5
f 37/51/5 13/19/5 38/52/5
f 19/27/5 23/33/5 5/7/5
f 19/27/5 36/50/5 23/33/5
f 36/50/5 14/20/5 23/33/5
f 35/49/6 30/43/6 12/17/6
f 35/49/6 32/46/6 30/43/6
f 32/46/6 2/3/6 30/43/6
f 33/47/6 35/49/6 12/17/6
f 33/47/6 34/48/6 35/49/6
f 34/48/6 14/20/6 35/49/6
f 29/42/6 21/30/6 3/5/6
f 29/42/6 33/47/6 21/30/6
f 33/47/6 12/17/6 21/30/6
f 20/28/6 34/48/6 11/15/6
f 20/28/6 23/33/6 34/48/6
f 23/33/6 14/20/6 34/48/6
f 28/40/5 37/51/5 10/14/5
f 28/40/5 22/32/5 37/51/5
f 22/32/5 13/19/5 37/51/5
f 19/27/4 40/54/4 10/14/4
f 19/27/4 20/29/4 40/54/4
f 20/29/4 11/16/4 40/54/4
f 25/36/3 43/57/3 7/10/3
f 25/36/3 26/38/3 43/57/3
f 26/38/3 8/12/3 43/57/3
f 18/26/2 46/60/2 9/13/2
f 18/26/2 15/22/2 46/60/2
f 15/22/2 6/9/2 46/60/2
f 27/39/1 49/63/1 9/13/1
f 27/39/1 25/37/1 49/63/1
f 25/37/1 7/11/1 49/63/1
