# Blender 3.3.1
# www.blender.org
mtllib arrowEffect.mtl
o 平面
v 0.500000 -1.000003 0.001315
v 0.108507 -0.000000 0.200000
v 0.108507 0.000000 -0.200000
v -0.500000 0.000000 0.000000
v 0.500000 1.000003 -0.001315
v -0.195746 0.000000 -0.100000
v 0.304254 -0.500001 0.100657
v 0.304254 -0.500001 -0.099343
v 0.000000 -0.500001 0.000657
v 0.000000 0.500001 -0.000657
v 0.304253 0.500001 -0.100657
v 0.108507 0.000000 0.000000
v -0.195746 -0.000000 0.100000
v 0.304253 0.500001 0.099343
v -0.347873 0.000000 -0.050000
v 0.206380 -0.250001 0.150329
v 0.206380 -0.250001 -0.149671
v -0.250000 -0.250001 0.000329
v 0.250000 0.750002 -0.000986
v 0.402127 0.750002 -0.050986
v 0.108507 0.000000 -0.100000
v -0.347873 -0.000000 0.050000
v 0.402127 0.750002 0.049014
v -0.043620 0.000000 -0.150000
v 0.402127 -0.750002 0.050986
v 0.402127 -0.750002 -0.049014
v 0.250000 -0.750002 0.000986
v -0.250000 0.250001 -0.000329
v 0.206380 0.250001 -0.150329
v 0.108507 -0.000000 0.100000
v -0.043620 -0.000000 0.150000
v 0.206380 0.250001 0.149671
v 0.206380 0.250001 -0.050329
v 0.304253 0.500001 -0.000657
v 0.206380 0.250001 0.049671
v 0.152127 0.500001 0.049343
v -0.097873 0.250001 0.049671
v 0.054254 0.250001 0.099671
v -0.097873 0.250001 -0.050329
v 0.152127 0.500001 -0.050657
v 0.054254 0.250001 -0.100329
v 0.206380 -0.250001 0.050329
v 0.304254 -0.500001 0.000657
v 0.206380 -0.250001 -0.049671
v 0.152127 -0.500001 -0.049343
v -0.097873 -0.250001 -0.049671
v 0.054254 -0.250001 -0.099671
v -0.097873 -0.250001 0.050329
v 0.152127 -0.500001 0.050657
v 0.054254 -0.250001 0.100329
v -0.423937 0.000000 -0.025000
v 0.157444 -0.125000 0.175164
v 0.157444 -0.125000 -0.174836
v -0.375000 -0.125000 0.000164
v 0.375000 0.875003 -0.001150
v 0.451063 0.875003 -0.026150
v 0.108507 0.000000 -0.150000
v -0.423937 -0.000000 0.025000
v 0.451063 0.875003 0.023850
v -0.119683 0.000000 -0.125000
v 0.353190 -0.625002 0.075822
v 0.353190 -0.625002 -0.074178
v 0.125000 -0.625002 0.000822
v -0.125000 0.375001 -0.000493
v 0.255317 0.375001 -0.125493
v 0.108507 -0.000000 0.050000
v -0.119683 -0.000000 0.125000
v 0.255317 0.375001 0.124507
v 0.157444 0.125000 -0.025164
v 0.304253 0.500001 0.049343
v 0.255317 0.375001 0.074507
v 0.228190 0.500001 0.074343
v -0.146810 0.125000 0.074836
v -0.070746 0.125000 0.099836
v -0.146810 0.125000 -0.075164
v 0.228190 0.500001 -0.075657
v 0.179253 0.375001 -0.100493
v 0.157444 -0.125000 0.025164
v 0.304254 -0.500001 -0.049343
v 0.255317 -0.375001 -0.074507
v 0.228190 -0.500001 -0.074343
v -0.146810 -0.125000 -0.074836
v -0.070746 -0.125000 -0.099836
v -0.146810 -0.125000 0.075164
v 0.228190 -0.500001 0.075657
v 0.179254 -0.375001 0.100493
v -0.271810 0.000000 -0.075000
v 0.255317 -0.375001 0.125493
v 0.255317 -0.375001 -0.124507
v -0.125000 -0.375001 0.000493
v 0.125000 0.625002 -0.000822
v 0.353190 0.625002 -0.075822
v 0.108507 0.000000 -0.050000
v -0.271810 -0.000000 0.075000
v 0.353190 0.625002 0.074178
v 0.032444 0.000000 -0.175000
v 0.451063 -0.875003 0.026150
v 0.451063 -0.875003 -0.023850
v 0.375000 -0.875003 0.001150
v -0.375000 0.125000 -0.000164
v 0.157444 0.125000 -0.175164
v 0.108507 -0.000000 0.150000
v 0.032444 -0.000000 0.175000
v 0.157444 0.125000 0.174836
v 0.255317 0.375001 -0.075493
v 0.304253 0.500001 -0.050657
v 0.157444 0.125000 0.024836
v 0.076063 0.500001 0.024343
v -0.048937 0.375001 0.024507
v 0.179253 0.375001 0.099507
v -0.048937 0.375001 -0.025493
v 0.076063 0.500001 -0.025657
v -0.070746 0.125000 -0.100164
v 0.255317 -0.375001 0.075493
v 0.304254 -0.500001 0.050657
v 0.157444 -0.125000 -0.024836
v 0.076063 -0.500001 -0.024343
v -0.048937 -0.375001 -0.024507
v 0.179254 -0.375001 -0.099507
v -0.048937 -0.375001 0.025493
v 0.076063 -0.500001 0.025657
v -0.070746 -0.125000 0.100164
v 0.005317 -0.125000 0.125164
v 0.130317 -0.250001 0.125329
v 0.081380 -0.125000 0.150164
v -0.021810 -0.250001 0.075329
v 0.027127 -0.375001 0.050493
v 0.103190 -0.375001 0.075493
v -0.298937 -0.125000 0.025164
v -0.173937 -0.250001 0.025329
v -0.222873 -0.125000 0.050164
v 0.130317 -0.250001 -0.124671
v 0.005317 -0.125000 -0.124836
v 0.081380 -0.125000 -0.149836
v 0.103190 -0.375001 -0.074507
v 0.027127 -0.375001 -0.049507
v -0.021810 -0.250001 -0.074671
v 0.326063 -0.750002 -0.024014
v 0.201063 -0.625002 -0.024178
v 0.277127 -0.625002 -0.049178
v 0.157444 -0.125000 -0.074836
v 0.206380 -0.250001 -0.099671
v 0.157444 -0.125000 -0.124836
v 0.206380 -0.250001 0.000329
v 0.255317 -0.375001 0.025493
v 0.255317 -0.375001 -0.024507
v 0.157444 -0.125000 0.125164
v 0.206380 -0.250001 0.100329
v 0.157444 -0.125000 0.075164
v 0.005317 0.125000 -0.125164
v 0.130317 0.250001 -0.125329
v 0.081380 0.125000 -0.150164
v -0.021810 0.250001 -0.075329
v 0.027127 0.375001 -0.050493
v 0.103190 0.375001 -0.075493
v -0.298937 0.125000 -0.025164
v -0.173937 0.250001 -0.025329
v -0.222873 0.125000 -0.050164
v 0.130317 0.250001 0.124671
v 0.005317 0.125000 0.124836
v 0.081380 0.125000 0.149836
v 0.103190 0.375001 0.074507
v 0.027127 0.375001 0.049507
v -0.021810 0.250001 0.074671
v 0.326063 0.750002 0.024014
v 0.201063 0.625002 0.024178
v 0.277127 0.625002 0.049178
v 0.157444 0.125000 0.074836
v 0.206380 0.250001 0.099671
v 0.157444 0.125000 0.124836
v 0.206380 0.250001 -0.000329
v 0.255317 0.375001 -0.025493
v 0.255317 0.375001 0.024507
v 0.157444 0.125000 -0.125164
v 0.206380 0.250001 -0.100329
v 0.157444 0.125000 -0.075164
v 0.353190 0.625002 -0.025822
v 0.402127 0.750002 -0.000986
v 0.353190 0.625002 0.024178
v -0.173937 0.250001 0.024671
v -0.298937 0.125000 0.024836
v -0.222873 0.125000 0.049836
v 0.201063 0.625002 -0.025822
v 0.326063 0.750002 -0.025986
v 0.277127 0.625002 -0.050822
v 0.353190 -0.625002 0.025822
v 0.402127 -0.750002 0.000986
v 0.353190 -0.625002 -0.024178
v -0.173937 -0.250001 -0.024671
v -0.298937 -0.125000 -0.024836
v -0.222873 -0.125000 -0.049836
v 0.201063 -0.625002 0.025822
v 0.326063 -0.750002 0.025986
v 0.277127 -0.625002 0.050822
vn -0.2982 -0.2970 0.9071
vn -0.2979 -0.2991 -0.9065
vn 0.9312 0.3646 -0.0000
vn -0.2982 0.2970 -0.9071
vn -0.2979 0.2991 0.9065
vn 0.9312 -0.3646 -0.0000
vt 0.000000 0.000000
vt 0.000000 1.000000
vt 1.000000 0.000000
vt 1.000000 0.000000
vt 0.000000 1.000000
vt 1.000000 1.000000
vt 0.000000 0.000000
vt 1.000000 0.500000
vt 0.500000 1.000000
vt 0.000000 0.500000
vt 0.500000 0.000000
vt 0.000000 0.500000
vt 0.500000 0.500000
vt 0.500000 0.500000
vt 0.000000 0.500000
vt 0.500000 0.000000
vt 0.000000 1.000000
vt 0.500000 1.000000
vt 1.000000 0.500000
vt 0.000000 0.500000
vt 1.000000 0.750000
vt 0.750000 1.000000
vt 0.750000 0.000000
vt 0.000000 0.750000
vt 0.000000 0.750000
vt 0.750000 0.750000
vt 0.250000 0.250000
vt 0.000000 0.250000
vt 0.250000 0.000000
vt 0.000000 1.000000
vt 1.000000 0.750000
vt 0.750000 1.000000
vt 0.000000 0.250000
vt 1.000000 0.250000
vt 0.250000 1.000000
vt 0.000000 0.250000
vt 0.250000 0.000000
vt 0.000000 0.250000
vt 0.250000 0.250000
vt 0.750000 0.750000
vt 0.750000 0.000000
vt 0.000000 0.750000
vt 0.000000 1.000000
vt 1.000000 0.250000
vt 0.250000 1.000000
vt 0.000000 0.750000
vt 0.000000 0.750000
vt 0.000000 0.500000
vt 0.000000 0.750000
vt 0.250000 0.500000
vt 0.500000 0.750000
vt 0.250000 0.750000
vt 0.750000 0.500000
vt 0.500000 0.250000
vt 0.750000 0.250000
vt 0.000000 0.750000
vt 0.000000 0.500000
vt 0.000000 0.750000
vt 0.250000 0.500000
vt 0.500000 0.750000
vt 0.250000 0.750000
vt 0.750000 0.500000
vt 0.500000 0.250000
vt 0.750000 0.250000
vt 1.000000 0.875000
vt 0.875000 1.000000
vt 0.000000 0.875000
vt 0.875000 0.000000
vt 0.000000 0.875000
vt 0.875000 0.875000
vt 0.125000 0.125000
vt 0.000000 0.125000
vt 0.125000 0.000000
vt 0.000000 1.000000
vt 1.000000 0.875000
vt 0.875000 1.000000
vt 0.000000 0.125000
vt 1.000000 0.375000
vt 0.375000 1.000000
vt 0.375000 0.000000
vt 0.000000 0.375000
vt 0.000000 0.375000
vt 0.375000 0.375000
vt 0.625000 0.625000
vt 0.625000 0.000000
vt 0.000000 0.625000
vt 0.000000 1.000000
vt 1.000000 0.375000
vt 0.375000 1.000000
vt 0.000000 0.625000
vt 0.000000 0.875000
vt 0.000000 0.500000
vt 0.000000 0.625000
vt 0.125000 0.500000
vt 0.500000 0.875000
vt 0.375000 0.875000
vt 0.875000 0.500000
vt 0.500000 0.125000
vt 0.625000 0.125000
vt 0.000000 0.875000
vt 0.000000 0.500000
vt 0.000000 0.625000
vt 0.125000 0.500000
vt 0.500000 0.875000
vt 0.375000 0.875000
vt 0.875000 0.500000
vt 0.500000 0.125000
vt 0.625000 0.125000
vt 0.625000 1.000000
vt 1.000000 0.625000
vt 0.625000 0.000000
vt 0.000000 0.625000
vt 0.000000 0.625000
vt 0.625000 0.625000
vt 0.375000 0.375000
vt 0.375000 0.000000
vt 0.000000 0.375000
vt 0.000000 1.000000
vt 0.625000 1.000000
vt 1.000000 0.625000
vt 0.000000 0.375000
vt 1.000000 0.125000
vt 0.125000 1.000000
vt 0.000000 0.125000
vt 0.125000 0.000000
vt 0.000000 0.125000
vt 0.125000 0.125000
vt 0.875000 0.875000
vt 0.000000 0.875000
vt 0.875000 0.000000
vt 0.000000 1.000000
vt 0.125000 1.000000
vt 1.000000 0.125000
vt 0.000000 0.875000
vt 0.000000 0.625000
vt 0.000000 0.500000
vt 0.000000 0.875000
vt 0.375000 0.500000
vt 0.500000 0.625000
vt 0.125000 0.625000
vt 0.625000 0.500000
vt 0.500000 0.375000
vt 0.875000 0.375000
vt 0.000000 0.625000
vt 0.000000 0.500000
vt 0.000000 0.875000
vt 0.375000 0.500000
vt 0.500000 0.625000
vt 0.125000 0.625000
vt 0.625000 0.500000
vt 0.500000 0.375000
vt 0.875000 0.375000
vt 0.875000 0.250000
vt 0.750000 0.125000
vt 0.875000 0.125000
vt 0.750000 0.375000
vt 0.625000 0.375000
vt 0.625000 0.250000
vt 0.875000 0.750000
vt 0.750000 0.625000
vt 0.875000 0.625000
vt 0.125000 0.750000
vt 0.250000 0.875000
vt 0.125000 0.875000
vt 0.250000 0.625000
vt 0.375000 0.625000
vt 0.375000 0.750000
vt 0.125000 0.250000
vt 0.250000 0.375000
vt 0.125000 0.375000
vt 0.000000 0.875000
vt 0.000000 0.750000
vt 0.000000 0.875000
vt 0.000000 0.750000
vt 0.000000 0.625000
vt 0.000000 0.625000
vt 0.000000 0.875000
vt 0.000000 0.750000
vt 0.000000 0.875000
vt 0.875000 0.250000
vt 0.750000 0.125000
vt 0.875000 0.125000
vt 0.750000 0.375000
vt 0.625000 0.375000
vt 0.625000 0.250000
vt 0.875000 0.750000
vt 0.750000 0.625000
vt 0.875000 0.625000
vt 0.125000 0.750000
vt 0.250000 0.875000
vt 0.125000 0.875000
vt 0.250000 0.625000
vt 0.375000 0.625000
vt 0.375000 0.750000
vt 0.125000 0.250000
vt 0.250000 0.375000
vt 0.125000 0.375000
vt 0.000000 0.875000
vt 0.000000 0.750000
vt 0.000000 0.875000
vt 0.000000 0.750000
vt 0.000000 0.625000
vt 0.000000 0.625000
vt 0.000000 0.875000
vt 0.000000 0.750000
vt 0.000000 0.875000
vt 0.000000 0.375000
vt 0.000000 0.250000
vt 0.000000 0.375000
vt 0.625000 0.750000
vt 0.750000 0.875000
vt 0.625000 0.875000
vt 0.375000 0.250000
vt 0.250000 0.125000
vt 0.375000 0.125000
vt 0.000000 0.375000
vt 0.000000 0.250000
vt 0.000000 0.375000
vt 0.625000 0.750000
vt 0.750000 0.875000
vt 0.625000 0.875000
vt 0.375000 0.250000
vt 0.250000 0.125000
vt 0.375000 0.125000
s 0
usemtl マテリアル
f 1/1/1 97/125/1 99/127/1
f 4/6/2 51/66/2 54/70/2
f 1/1/3 98/126/3 97/124/3
f 5/7/4 56/73/4 55/71/4
f 4/6/5 58/76/5 100/128/5
f 5/7/6 59/77/6 56/72/6
f 11/15/6 105/135/6 65/86/6
f 11/15/6 106/136/6 105/135/6
f 14/20/6 68/90/6 71/93/6
f 10/14/5 108/138/5 91/115/5
f 10/14/5 109/139/5 108/138/5
f 13/18/5 67/89/5 74/96/5
f 10/14/4 111/141/4 64/84/4
f 10/14/4 112/142/4 111/141/4
f 11/16/4 65/85/4 77/99/4
f 7/10/3 114/144/3 88/112/3
f 7/10/3 115/145/3 114/144/3
f 8/12/3 89/113/3 80/102/3
f 9/13/2 117/147/2 63/83/2
f 9/13/2 118/148/2 117/147/2
f 6/9/2 60/79/2 83/105/2
f 9/13/1 120/150/1 90/114/1
f 9/13/1 121/151/1 120/150/1
f 7/11/1 88/111/1 86/108/1
f 50/64/1 123/153/1 122/152/1
f 50/64/1 124/154/1 123/153/1
f 16/23/1 52/68/1 125/155/1
f 48/62/1 126/156/1 84/106/1
f 48/62/1 127/157/1 126/156/1
f 49/63/1 85/107/1 128/158/1
f 18/26/1 129/159/1 54/70/1
f 18/26/1 130/160/1 129/159/1
f 48/62/1 84/106/1 131/161/1
f 47/61/2 132/162/2 119/149/2
f 47/61/2 133/163/2 132/162/2
f 24/35/2 96/123/2 134/164/2
f 45/59/2 135/165/2 81/103/2
f 45/59/2 136/166/2 135/165/2
f 46/60/2 82/104/2 137/167/2
f 27/39/2 138/168/2 99/127/2
f 27/39/2 139/169/2 138/168/2
f 45/59/2 81/103/2 140/170/2
f 44/58/3 141/171/3 116/146/3
f 44/58/3 142/172/3 141/171/3
f 17/25/3 53/69/3 143/173/3
f 42/56/3 144/174/3 78/100/3
f 42/56/3 145/175/3 144/174/3
f 43/57/3 79/101/3 146/176/3
f 16/24/3 147/177/3 52/67/3
f 16/24/3 148/178/3 147/177/3
f 42/56/3 78/100/3 149/179/3
f 41/55/4 150/180/4 113/143/4
f 41/55/4 151/181/4 150/180/4
f 29/41/4 101/130/4 152/182/4
f 39/53/4 153/183/4 75/97/4
f 39/53/4 154/184/4 153/183/4
f 40/54/4 76/98/4 155/185/4
f 28/40/4 156/186/4 100/128/4
f 28/40/4 157/187/4 156/186/4
f 39/53/4 75/97/4 158/188/4
f 38/52/5 159/189/5 110/140/5
f 38/52/5 160/190/5 159/189/5
f 31/45/5 103/132/5 161/191/5
f 36/50/5 162/192/5 72/94/5
f 36/50/5 163/193/5 162/192/5
f 37/51/5 73/95/5 164/194/5
f 19/27/5 165/195/5 55/71/5
f 19/27/5 166/196/5 165/195/5
f 36/50/5 72/94/5 167/197/5
f 35/49/6 168/198/6 107/137/6
f 35/49/6 169/199/6 168/198/6
f 32/46/6 104/134/6 170/200/6
f 33/47/6 171/201/6 69/91/6
f 33/47/6 172/202/6 171/201/6
f 34/48/6 70/92/6 173/203/6
f 29/42/6 174/204/6 101/129/6
f 29/42/6 175/205/6 174/204/6
f 33/47/6 69/91/6 176/206/6
f 20/28/6 177/207/6 92/117/6
f 20/28/6 178/208/6 177/207/6
f 23/33/6 95/121/6 179/209/6
f 28/40/5 180/210/5 64/84/5
f 28/40/5 181/211/5 180/210/5
f 22/32/5 94/119/5 182/212/5
f 19/27/4 183/213/4 91/115/4
f 19/27/4 184/214/4 183/213/4
f 20/29/4 92/116/4 185/215/4
f 25/36/3 186/216/3 61/81/3
f 25/36/3 187/217/3 186/216/3
f 26/38/3 62/82/3 188/218/3
f 18/26/2 189/219/2 90/114/2
f 18/26/2 190/220/2 189/219/2
f 15/22/2 87/109/2 191/221/2
f 27/39/1 192/222/1 63/83/1
f 27/39/1 193/223/1 192/222/1
f 25/37/1 61/80/1 194/224/1
f 194/224/1 85/107/1 49/63/1
f 194/224/1 61/80/1 85/107/1
f 61/80/1 7/11/1 85/107/1
f 192/222/1 194/224/1 49/63/1
f 192/222/1 193/223/1 194/224/1
f 193/223/1 25/37/1 194/224/1
f 63/83/1 121/151/1 9/13/1
f 63/83/1 192/222/1 121/151/1
f 192/222/1 49/63/1 121/151/1
f 191/221/2 82/104/2 46/60/2
f 191/221/2 87/109/2 82/104/2
f 87/109/2 6/9/2 82/104/2
f 189/219/2 191/221/2 46/60/2
f 189/219/2 190/220/2 191/221/2
f 190/220/2 15/22/2 191/221/2
f 90/114/2 118/148/2 9/13/2
f 90/114/2 189/219/2 118/148/2
f 189/219/2 46/60/2 118/148/2
f 188/218/3 79/101/3 43/57/3
f 188/218/3 62/82/3 79/101/3
f 62/82/3 8/12/3 79/101/3
f 186/216/3 188/218/3 43/57/3
f 186/216/3 187/217/3 188/218/3
f 187/217/3 26/38/3 188/218/3
f 61/81/3 115/145/3 7/10/3
f 61/81/3 186/216/3 115/145/3
f 186/216/3 43/57/3 115/145/3
f 185/215/4 76/98/4 40/54/4
f 185/215/4 92/116/4 76/98/4
f 92/116/4 11/16/4 76/98/4
f 183/213/4 185/215/4 40/54/4
f 183/213/4 184/214/4 185/215/4
f 184/214/4 20/29/4 185/215/4
f 91/115/4 112/142/4 10/14/4
f 91/115/4 183/213/4 112/142/4
f 183/213/4 40/54/4 112/142/4
f 182/212/5 73/95/5 37/51/5
f 182/212/5 94/119/5 73/95/5
f 94/119/5 13/18/5 73/95/5
f 180/210/5 182/212/5 37/51/5
f 180/210/5 181/211/5 182/212/5
f 181/211/5 22/32/5 182/212/5
f 64/84/5 109/139/5 10/14/5
f 64/84/5 180/210/5 109/139/5
f 180/210/5 37/51/5 109/139/5
f 179/209/6 70/92/6 34/48/6
f 179/209/6 95/121/6 70/92/6
f 95/121/6 14/20/6 70/92/6
f 177/207/6 179/209/6 34/48/6
f 177/207/6 178/208/6 179/209/6
f 178/208/6 23/33/6 179/209/6
f 92/117/6 106/136/6 11/15/6
f 92/117/6 177/207/6 106/136/6
f 177/207/6 34/48/6 106/136/6
f 176/206/6 93/118/6 21/30/6
f 176/206/6 69/91/6 93/118/6
f 69/91/6 12/17/6 93/118/6
f 174/204/6 176/206/6 21/30/6
f 174/204/6 175/205/6 176/206/6
f 175/205/6 33/47/6 176/206/6
f 101/129/6 57/74/6 3/5/6
f 101/129/6 174/204/6 57/74/6
f 174/204/6 21/30/6 57/74/6
f 173/203/6 71/93/6 35/49/6
f 173/203/6 70/92/6 71/93/6
f 70/92/6 14/20/6 71/93/6
f 171/201/6 173/203/6 35/49/6
f 171/201/6 172/202/6 173/203/6
f 172/202/6 34/48/6 173/203/6
f 69/91/6 107/137/6 12/17/6
f 69/91/6 171/201/6 107/137/6
f 171/201/6 35/49/6 107/137/6
f 170/200/6 102/131/6 30/43/6
f 170/200/6 104/134/6 102/131/6
f 104/134/6 2/2/6 102/131/6
f 168/198/6 170/200/6 30/43/6
f 168/198/6 169/199/6 170/200/6
f 169/199/6 32/46/6 170/200/6
f 107/137/6 66/87/6 12/17/6
f 107/137/6 168/198/6 66/87/6
f 168/198/6 30/43/6 66/87/6
f 167/197/5 95/121/5 23/33/5
f 167/197/5 72/94/5 95/121/5
f 72/94/5 14/20/5 95/121/5
f 165/195/5 167/197/5 23/33/5
f 165/195/5 166/196/5 167/197/5
f 166/196/5 36/50/5 167/197/5
f 55/71/5 59/77/5 5/7/5
f 55/71/5 165/195/5 59/77/5
f 165/195/5 23/33/5 59/77/5
f 164/194/5 74/96/5 38/52/5
f 164/194/5 73/95/5 74/96/5
f 73/95/5 13/18/5 74/96/5
f 162/192/5 164/194/5 38/52/5
f 162/192/5 163/193/5 164/194/5
f 163/193/5 37/51/5 164/194/5
f 72/94/5 110/140/5 14/20/5
f 72/94/5 162/192/5 110/140/5
f 162/192/5 38/52/5 110/140/5
f 161/191/5 104/134/5 32/46/5
f 161/191/5 103/132/5 104/134/5
f 103/132/5 2/2/5 104/134/5
f 159/189/5 161/191/5 32/46/5
f 159/189/5 160/190/5 161/191/5
f 160/190/5 31/45/5 161/191/5
f 110/140/5 68/90/5 14/20/5
f 110/140/5 159/189/5 68/90/5
f 159/189/5 32/46/5 68/90/5
f 158/188/4 87/110/4 15/21/4
f 158/188/4 75/97/4 87/110/4
f 75/97/4 6/8/4 87/110/4
f 156/186/4 158/188/4 15/21/4
f 156/186/4 157/187/4 158/188/4
f 157/187/4 39/53/4 158/188/4
f 100/128/4 51/65/4 4/6/4
f 100/128/4 156/186/4 51/65/4
f 156/186/4 15/21/4 51/65/4
f 155/185/4 77/99/4 41/55/4
f 155/185/4 76/98/4 77/99/4
f 76/98/4 11/16/4 77/99/4
f 153/183/4 155/185/4 41/55/4
f 153/183/4 154/184/4 155/185/4
f 154/184/4 40/54/4 155/185/4
f 75/97/4 113/143/4 6/8/4
f 75/97/4 153/183/4 113/143/4
f 153/183/4 41/55/4 113/143/4
f 152/182/4 96/122/4 24/34/4
f 152/182/4 101/130/4 96/122/4
f 101/130/4 3/4/4 96/122/4
f 150/180/4 152/182/4 24/34/4
f 150/180/4 151/181/4 152/182/4
f 151/181/4 29/41/4 152/182/4
f 113/143/4 60/78/4 6/8/4
f 113/143/4 150/180/4 60/78/4
f 150/180/4 24/34/4 60/78/4
f 149/179/3 66/87/3 30/43/3
f 149/179/3 78/100/3 66/87/3
f 78/100/3 12/17/3 66/87/3
f 147/177/3 149/179/3 30/43/3
f 147/177/3 148/178/3 149/179/3
f 148/178/3 42/56/3 149/179/3
f 52/67/3 102/131/3 2/2/3
f 52/67/3 147/177/3 102/131/3
f 147/177/3 30/43/3 102/131/3
f 146/176/3 80/102/3 44/58/3
f 146/176/3 79/101/3 80/102/3
f 79/101/3 8/12/3 80/102/3
f 144/174/3 146/176/3 44/58/3
f 144/174/3 145/175/3 146/176/3
f 145/175/3 43/57/3 146/176/3
f 78/100/3 116/146/3 12/17/3
f 78/100/3 144/174/3 116/146/3
f 144/174/3 44/58/3 116/146/3
f 143/173/3 57/74/3 21/30/3
f 143/173/3 53/69/3 57/74/3
f 53/69/3 3/5/3 57/74/3
f 141/171/3 143/173/3 21/30/3
f 141/171/3 142/172/3 143/173/3
f 142/172/3 17/25/3 143/173/3
f 116/146/3 93/118/3 12/17/3
f 116/146/3 141/171/3 93/118/3
f 141/171/3 21/30/3 93/118/3
f 140/170/2 62/82/2 26/38/2
f 140/170/2 81/103/2 62/82/2
f 81/103/2 8/12/2 62/82/2
f 138/168/2 140/170/2 26/38/2
f 138/168/2 139/169/2 140/170/2
f 139/169/2 45/59/2 140/170/2
f 99/127/2 98/126/2 1/1/2
f 99/127/2 138/168/2 98/126/2
f 138/168/2 26/38/2 98/126/2
f 137/167/2 83/105/2 47/61/2
f 137/167/2 82/104/2 83/105/2
f 82/104/2 6/9/2 83/105/2
f 135/165/2 137/167/2 47/61/2
f 135/165/2 136/166/2 137/167/2
f 136/166/2 46/60/2 137/167/2
f 81/103/2 119/149/2 8/12/2
f 81/103/2 135/165/2 119/149/2
f 135/165/2 47/61/2 119/149/2
f 134/164/2 53/69/2 17/25/2
f 134/164/2 96/123/2 53/69/2
f 96/123/2 3/5/2 53/69/2
f 132/162/2 134/164/2 17/25/2
f 132/162/2 133/163/2 134/164/2
f 133/163/2 24/35/2 134/164/2
f 119/149/2 89/113/2 8/12/2
f 119/149/2 132/162/2 89/113/2
f 132/162/2 17/25/2 89/113/2
f 131/161/1 94/120/1 22/31/1
f 131/161/1 84/106/1 94/120/1
f 84/106/1 13/19/1 94/120/1
f 129/159/1 131/161/1 22/31/1
f 129/159/1 130/160/1 131/161/1
f 130/160/1 48/62/1 131/161/1
f 54/70/1 58/75/1 4/6/1
f 54/70/1 129/159/1 58/75/1
f 129/159/1 22/31/1 58/75/1
f 128/158/1 86/108/1 50/64/1
f 128/158/1 85/107/1 86/108/1
f 85/107/1 7/11/1 86/108/1
f 126/156/1 128/158/1 50/64/1
f 126/156/1 127/157/1 128/158/1
f 127/157/1 49/63/1 128/158/1
f 84/106/1 122/152/1 13/19/1
f 84/106/1 126/156/1 122/152/1
f 126/156/1 50/64/1 122/152/1
f 125/155/1 103/133/1 31/44/1
f 125/155/1 52/68/1 103/133/1
f 52/68/1 2/3/1 103/133/1
f 123/153/1 125/155/1 31/44/1
f 123/153/1 124/154/1 125/155/1
f 124/154/1 16/23/1 125/155/1
f 122/152/1 67/88/1 13/19/1
f 122/152/1 123/153/1 67/88/1
f 123/153/1 31/44/1 67/88/1
f 86/108/1 124/154/1 50/64/1
f 86/108/1 88/111/1 124/154/1
f 88/111/1 16/23/1 124/154/1
f 120/150/1 127/157/1 48/62/1
f 120/150/1 121/151/1 127/157/1
f 121/151/1 49/63/1 127/157/1
f 90/114/1 130/160/1 18/26/1
f 90/114/1 120/150/1 130/160/1
f 120/150/1 48/62/1 130/160/1
f 83/105/2 133/163/2 47/61/2
f 83/105/2 60/79/2 133/163/2
f 60/79/2 24/35/2 133/163/2
f 117/147/2 136/166/2 45/59/2
f 117/147/2 118/148/2 136/166/2
f 118/148/2 46/60/2 136/166/2
f 63/83/2 139/169/2 27/39/2
f 63/83/2 117/147/2 139/169/2
f 117/147/2 45/59/2 139/169/2
f 80/102/3 142/172/3 44/58/3
f 80/102/3 89/113/3 142/172/3
f 89/113/3 17/25/3 142/172/3
f 114/144/3 145/175/3 42/56/3
f 114/144/3 115/145/3 145/175/3
f 115/145/3 43/57/3 145/175/3
f 88/112/3 148/178/3 16/24/3
f 88/112/3 114/144/3 148/178/3
f 114/144/3 42/56/3 148/178/3
f 77/99/4 151/181/4 41/55/4
f 77/99/4 65/85/4 151/181/4
f 65/85/4 29/41/4 151/181/4
f 111/141/4 154/184/4 39/53/4
f 111/141/4 112/142/4 154/184/4
f 112/142/4 40/54/4 154/184/4
f 64/84/4 157/187/4 28/40/4
f 64/84/4 111/141/4 157/187/4
f 111/141/4 39/53/4 157/187/4
f 74/96/5 160/190/5 38/52/5
f 74/96/5 67/89/5 160/190/5
f 67/89/5 31/45/5 160/190/5
f 108/138/5 163/193/5 36/50/5
f 108/138/5 109/139/5 163/193/5
f 109/139/5 37/51/5 163/193/5
f 91/115/5 166/196/5 19/27/5
f 91/115/5 108/138/5 166/196/5
f 108/138/5 36/50/5 166/196/5
f 71/93/6 169/199/6 35/49/6
f 71/93/6 68/90/6 169/199/6
f 68/90/6 32/46/6 169/199/6
f 105/135/6 172/202/6 33/47/6
f 105/135/6 106/136/6 172/202/6
f 106/136/6 34/48/6 172/202/6
f 65/86/6 175/205/6 29/42/6
f 65/86/6 105/135/6 175/205/6
f 105/135/6 33/47/6 175/205/6
f 56/72/6 178/208/6 20/28/6
f 56/72/6 59/77/6 178/208/6
f 59/77/6 23/33/6 178/208/6
f 100/128/5 181/211/5 28/40/5
f 100/128/5 58/76/5 181/211/5
f 58/76/5 22/32/5 181/211/5
f 55/71/4 184/214/4 19/27/4
f 55/71/4 56/73/4 184/214/4
f 56/73/4 20/29/4 184/214/4
f 97/124/3 187/217/3 25/36/3
f 97/124/3 98/126/3 187/217/3
f 98/126/3 26/38/3 187/217/3
f 54/70/2 190/220/2 18/26/2
f 54/70/2 51/66/2 190/220/2
f 51/66/2 15/22/2 190/220/2
f 99/127/1 193/223/1 27/39/1
f 99/127/1 97/125/1 193/223/1
f 97/125/1 25/37/1 193/223/1
