# Blender 3.3.1
# www.blender.org
mtllib BattleShip2.mtl
o ボディ_立方体.002
v 0.000000 -0.364481 -0.660380
v 0.000000 0.395755 0.500000
v 0.000000 -0.065182 -0.379863
v 0.000000 1.115521 -2.018850
v 0.000000 -0.000002 3.282621
v -0.476523 0.625752 -1.000000
v -1.000939 0.004847 -0.556585
v -1.160923 -0.311861 -0.839595
v -1.160923 1.122854 -2.071683
v -1.307235 -0.108959 -0.830661
v -1.307235 0.149680 -0.843386
v -1.307235 -0.108959 -0.347864
v -1.307235 0.128349 -0.345959
v -1.160923 0.009695 1.308437
v -1.307235 0.009695 -0.215610
v -4.046899 -0.489302 -2.534720
v -3.585675 -0.489302 -1.115387
v 0.476523 0.625752 -1.000000
v 1.000939 0.004847 -0.556585
v 1.160923 -0.311861 -0.839595
v 1.160923 1.122854 -2.071683
v 1.307235 -0.108959 -0.830661
v 1.307235 0.149680 -0.843386
v 1.307235 -0.108959 -0.347864
v 1.307235 0.128349 -0.345959
v 1.160923 0.009695 1.308437
v 1.307235 0.009695 -0.215610
v 4.046899 -0.489302 -2.534720
v 3.585675 -0.489302 -1.115387
vn -0.3732 -0.7737 -0.5120
vn -0.3440 -0.7603 -0.5510
vn -0.3660 -0.7673 -0.5266
vn -0.4005 0.9051 0.1428
vn -0.4453 0.8800 0.1654
vn -0.4395 0.8838 0.1606
vn -0.4954 0.8238 0.2757
vn -0.4968 0.8246 0.2708
vn -0.4755 0.8318 0.2863
vn -0.1226 -0.9902 0.0671
vn -0.1262 -0.9829 0.1339
vn -0.1536 -0.9877 -0.0282
vn -0.9805 0.0798 0.1798
vn -0.9847 0.0913 0.1486
vn -0.9838 0.0892 0.1557
vn -0.9736 -0.1626 0.1605
vn -0.9713 -0.1575 0.1780
vn -0.9762 -0.1672 0.1382
vn -0.6460 -0.4973 -0.5791
vn 1.0000 -0.0013 -0.0062
vn 1.0000 -0.0000 -0.0000
vn -0.8580 0.5137 -0.0000
vn 0.2267 -0.9723 -0.0566
vn 0.2257 -0.9720 -0.0655
vn 0.2267 -0.9725 -0.0536
vn 0.2291 -0.9731 -0.0232
vn 0.2288 -0.9734 -0.0128
vn 0.2286 -0.9735 -0.0026
vn -0.2885 0.9529 0.0937
vn -0.2889 0.9527 0.0938
vn 0.8209 0.5174 0.2415
vn 0.8192 0.5424 0.1863
vn 0.8194 0.5354 0.2045
vn 0.5732 -0.0042 -0.8194
vn 0.5732 -0.0016 -0.8194
vn 0.5733 -0.0014 -0.8194
vn 0.1326 -0.6389 -0.7578
vn 0.1201 -0.6374 -0.7611
vn 0.0955 -0.6568 -0.7480
vn -0.3413 0.0999 -0.9346
vn -0.2349 0.2081 -0.9495
vn -0.1357 0.2539 -0.9577
vn -0.5909 0.8037 0.0698
vn -0.6701 0.7344 0.1076
vn -0.7050 0.6488 0.2864
vn 0.9689 -0.0034 0.2475
vn 0.9796 0.0080 0.2007
vn 0.9804 0.0088 0.1968
vn -0.4064 0.0005 0.9137
vn -0.4065 0.0004 0.9136
vn -0.4065 0.0005 0.9137
vn -0.8659 -0.0000 -0.5001
vn -0.8660 -0.0000 -0.5001
vn -0.4065 0.0006 0.9136
vn -0.4065 0.0006 0.9137
vn 0.2137 -0.9769 -0.0031
vn 0.2138 -0.9769 -0.0026
vn 0.2132 -0.9770 -0.0084
vn -0.2683 0.9633 -0.0000
vn -0.8746 0.4512 0.1774
vn -0.8740 0.4582 0.1620
vn -0.8738 0.4608 0.1552
vn -0.7754 -0.6246 0.0934
vn -0.7754 -0.6244 0.0944
vn -0.7754 -0.6245 0.0935
vn 0.3732 -0.7737 -0.5120
vn 0.3660 -0.7673 -0.5266
vn 0.3440 -0.7603 -0.5510
vn 0.4005 0.9051 0.1428
vn 0.4395 0.8838 0.1606
vn 0.4453 0.8800 0.1654
vn 0.4954 0.8238 0.2757
vn 0.4755 0.8318 0.2863
vn 0.4968 0.8246 0.2708
vn 0.1226 -0.9902 0.0671
vn 0.1536 -0.9877 -0.0282
vn 0.1262 -0.9829 0.1339
vn 0.9805 0.0798 0.1798
vn 0.9838 0.0892 0.1557
vn 0.9847 0.0913 0.1486
vn 0.9736 -0.1626 0.1605
vn 0.9762 -0.1672 0.1382
vn 0.9713 -0.1575 0.1780
vn 0.6460 -0.4973 -0.5791
vn -1.0000 -0.0013 -0.0062
vn -1.0000 -0.0000 -0.0000
vn 0.8580 0.5137 -0.0000
vn -0.2267 -0.9723 -0.0566
vn -0.2267 -0.9725 -0.0536
vn -0.2257 -0.9720 -0.0655
vn -0.2291 -0.9731 -0.0232
vn -0.2286 -0.9735 -0.0026
vn -0.2288 -0.9734 -0.0128
vn 0.2885 0.9529 0.0937
vn 0.2889 0.9527 0.0938
vn -0.8209 0.5174 0.2415
vn -0.8194 0.5354 0.2045
vn -0.8192 0.5424 0.1863
vn -0.5732 -0.0042 -0.8194
vn -0.5733 -0.0014 -0.8194
vn -0.5732 -0.0016 -0.8194
vn -0.1326 -0.6389 -0.7578
vn -0.0955 -0.6568 -0.7480
vn -0.1201 -0.6374 -0.7611
vn 0.3413 0.0999 -0.9346
vn 0.1357 0.2539 -0.9577
vn 0.2349 0.2081 -0.9495
vn 0.5909 0.8037 0.0698
vn 0.7050 0.6488 0.2864
vn 0.6701 0.7344 0.1076
vn -0.9689 -0.0034 0.2475
vn -0.9804 0.0088 0.1968
vn -0.9796 0.0080 0.2007
vn 0.4064 0.0005 0.9137
vn 0.4065 0.0005 0.9137
vn 0.4065 0.0004 0.9136
vn 0.8659 -0.0000 -0.5001
vn 0.8660 -0.0000 -0.5001
vn 0.4065 0.0006 0.9137
vn 0.4065 0.0006 0.9136
vn -0.2137 -0.9769 -0.0031
vn -0.2132 -0.9770 -0.0084
vn -0.2138 -0.9769 -0.0026
vn 0.2683 0.9633 -0.0000
vn 0.8746 0.4512 0.1774
vn 0.8738 0.4608 0.1552
vn 0.8740 0.4582 0.1620
vn 0.7754 -0.6246 0.0934
vn 0.7754 -0.6245 0.0935
vn 0.7754 -0.6244 0.0944
vt 0.299668 0.014160
vt 0.198570 0.021995
vt 0.873629 0.346950
vt 0.174076 0.376335
vt 0.265362 0.202592
vt 0.156582 0.085144
vt 0.231286 0.489490
vt 0.130123 0.119011
vt 0.251459 0.289015
vt 0.191847 0.051946
vt 0.207004 0.307934
vt 0.130123 0.326697
vt 0.873506 0.021017
vt 0.171190 0.023854
vt 0.293664 0.508509
vt 0.235372 0.161663
vt 0.937160 0.158357
vt 0.178735 0.393046
vt 0.117812 0.567222
vt 0.183426 0.023672
vt 0.144932 0.501896
vt 0.310522 0.018008
vt 0.037803 0.501470
vt 0.419466 0.909508
vt 0.441362 0.862185
vt 0.177031 0.986266
vt 0.643998 0.984755
vt 0.376523 0.875095
vt 0.192788 0.842298
vt 0.148252 0.011737
vt 0.124990 0.863718
vt 0.017912 0.510427
vt 0.063412 0.001883
vt 0.180587 0.955336
vt 0.137378 0.010782
vt 0.050304 0.510630
vt 0.199305 0.929879
vt 0.230085 0.007393
vt 0.018725 0.964544
vt 0.185308 0.869020
vt 0.221360 0.057265
vt 0.123743 0.007034
vt 0.006792 0.990572
vt 0.156881 0.919141
vt 0.109683 0.065562
vt 0.168478 0.015288
vt 0.426380 0.811387
vt 0.143112 0.988585
vt 0.393992 0.866688
vt 0.197797 0.984139
vt 0.633026 0.839209
vt 0.022095 0.898653
vt 0.023984 0.979127
vt 0.233962 0.046287
vt 0.092276 0.059087
vt 0.153768 0.419026
vt 0.137378 0.421225
vt 0.006945 0.295402
vt 0.273472 0.275417
vt 0.013165 0.281805
vt 0.295472 0.353417
vt 0.039165 0.367805
vt 0.003180 0.287503
vt 0.296416 0.298052
vt 0.066527 0.205377
vt 0.820641 0.155040
vt 0.160019 0.195488
vt 0.321442 0.021426
vt 0.282639 0.499063
vt 0.430806 0.030715
vt 0.257386 0.179699
vt 0.066649 0.039841
vt 0.230778 0.062288
vt 0.479956 0.864529
vt 0.470814 0.813557
vt 0.226901 0.922317
vt 0.265106 0.912755
vt 0.023673 0.800733
vt 0.068639 0.884588
vt 0.030595 0.043972
vt 0.136438 0.042489
vt 0.220396 0.899123
vt 0.062009 0.040566
vt 0.208680 0.868923
vt 0.154172 0.052948
vt 0.277857 0.880026
vt 0.129097 0.881239
vt 0.085494 0.009761
vt 0.207730 0.021494
vt 0.268724 0.851780
vt 0.337293 0.885312
vt 0.620306 0.910165
vt 0.469871 0.799181
vt 0.288918 0.860710
vt 0.070236 0.002940
vt 0.221917 0.009507
vt 0.137154 0.435949
vt 0.149462 0.421208
vt 0.024037 0.448267
vt 0.018241 0.291786
vt 0.272496 0.285515
s 0
usemtl マテリアル
f 3/6/1 6/16/2 4/11/3
f 2/3/4 4/13/5 6/17/6
f 7/23/7 5/14/8 2/4/9
f 1/1/10 5/15/11 7/20/12
f 12/39/13 14/48/14 15/53/15
f 15/53/16 14/48/17 13/43/18
f 8/26/19 10/34/19 9/28/19
f 8/25/20 9/27/21 7/24/21
f 9/28/22 11/37/22 13/44/22
f 10/30/23 17/59/24 16/56/25
f 14/49/26 12/40/27 10/31/28
f 17/60/29 11/35/30 16/57/29
f 7/24/31 9/27/32 14/50/33
f 16/58/34 11/36/35 10/32/36
f 3/7/37 7/21/38 6/18/39
f 3/10/40 1/2/41 7/22/42
f 7/23/43 2/4/44 6/19/45
f 8/25/46 7/24/47 14/50/48
f 17/61/49 12/41/50 15/54/51
f 9/28/52 10/34/52 11/37/53
f 15/55/51 13/45/54 17/62/55
f 10/33/56 12/42/57 17/63/58
f 17/64/59 13/46/59 11/38/59
f 13/47/60 14/51/61 9/29/62
f 8/26/63 14/52/64 10/34/65
f 3/8/66 4/12/67 18/65/68
f 2/3/69 18/66/70 4/13/71
f 19/69/72 2/4/73 5/14/74
f 1/1/75 19/70/76 5/15/77
f 24/86/78 27/94/79 26/93/80
f 27/94/81 25/90/82 26/93/83
f 20/76/84 21/78/84 22/82/84
f 20/75/85 19/74/86 21/77/86
f 21/78/87 25/90/87 23/84/87
f 22/81/88 28/97/89 29/100/90
f 26/91/91 22/79/92 24/87/93
f 29/101/94 28/98/94 23/85/95
f 19/74/96 26/92/97 21/77/98
f 28/99/99 22/80/100 23/83/101
f 3/9/102 18/67/103 19/71/104
f 3/10/105 19/72/106 1/2/107
f 19/73/108 18/68/109 2/5/110
f 20/75/111 26/92/112 19/74/113
f 29/100/114 27/95/115 24/88/116
f 21/78/117 23/84/118 22/82/117
f 27/96/115 29/101/119 25/89/120
f 22/81/121 29/100/122 24/88/123
f 29/101/124 23/85/124 25/89/124
f 25/90/125 21/78/126 26/93/127
f 20/76/128 22/82/129 26/93/130
