# Blender 4.2.3 LTS
# www.blender.org
mtllib skydome.mtl
o Sphere
v 0.000000 0.831470 -0.555570
v 0.000000 0.555570 -0.831470
v 0.000000 0.195090 -0.980785
v 0.000000 -0.000000 -1.000000
v 0.000000 -0.195090 -0.980785
v 0.000000 -0.555570 -0.831470
v 0.038060 0.980785 -0.191342
v 0.074658 0.923880 -0.375330
v 0.108386 0.831470 -0.544895
v 0.137950 0.707107 -0.693520
v 0.162212 0.555570 -0.815493
v 0.180240 0.382683 -0.906127
v 0.191342 0.195090 -0.961940
v 0.195090 -0.000000 -0.980785
v 0.191342 -0.195090 -0.961940
v 0.180240 -0.382683 -0.906127
v 0.162212 -0.555570 -0.815493
v 0.137950 -0.707107 -0.693520
v 0.108386 -0.831470 -0.544895
v 0.074658 -0.923880 -0.375330
v 0.038060 -0.980785 -0.191342
v 0.074658 0.980785 -0.180240
v 0.146447 0.923880 -0.353553
v 0.212608 0.831470 -0.513280
v 0.270598 0.707107 -0.653281
v 0.318190 0.555570 -0.768178
v 0.353553 0.382683 -0.853553
v 0.375330 0.195090 -0.906127
v 0.382683 -0.000000 -0.923879
v 0.375330 -0.195090 -0.906127
v 0.353553 -0.382683 -0.853553
v 0.318190 -0.555570 -0.768178
v 0.270598 -0.707107 -0.653281
v 0.212608 -0.831470 -0.513280
v 0.146447 -0.923880 -0.353553
v 0.074658 -0.980785 -0.180240
v 0.108386 0.980785 -0.162212
v 0.212608 0.923880 -0.318190
v 0.308658 0.831470 -0.461940
v 0.392847 0.707107 -0.587938
v 0.461940 0.555570 -0.691342
v 0.513280 0.382683 -0.768178
v 0.544895 0.195090 -0.815493
v 0.555570 -0.000000 -0.831469
v 0.544895 -0.195090 -0.815493
v 0.513280 -0.382683 -0.768178
v 0.461940 -0.555570 -0.691342
v 0.392847 -0.707107 -0.587938
v 0.308658 -0.831470 -0.461940
v 0.212608 -0.923880 -0.318190
v 0.108386 -0.980785 -0.162212
v 0.137950 0.980785 -0.137950
v 0.270598 0.923880 -0.270598
v 0.392847 0.831470 -0.392847
v 0.500000 0.707107 -0.500000
v 0.587938 0.555570 -0.587938
v 0.653281 0.382683 -0.653281
v 0.693520 0.195090 -0.693520
v 0.707107 -0.000000 -0.707107
v 0.693520 -0.195090 -0.693520
v 0.653281 -0.382683 -0.653281
v 0.587938 -0.555570 -0.587938
v 0.500000 -0.707107 -0.500000
v 0.392847 -0.831470 -0.392847
v 0.270598 -0.923880 -0.270598
v 0.137950 -0.980785 -0.137950
v 0.162212 0.980785 -0.108386
v 0.318190 0.923880 -0.212608
v 0.461940 0.831470 -0.308658
v 0.587938 0.707107 -0.392847
v 0.691342 0.555570 -0.461940
v 0.768178 0.382683 -0.513280
v 0.815493 0.195090 -0.544895
v 0.831470 -0.000000 -0.555570
v 0.815493 -0.195090 -0.544895
v 0.768178 -0.382683 -0.513280
v 0.691342 -0.555570 -0.461940
v 0.587938 -0.707107 -0.392847
v 0.461940 -0.831470 -0.308658
v 0.318190 -0.923880 -0.212608
v 0.162212 -0.980785 -0.108386
v 0.000000 1.000000 -0.000000
v 0.180240 0.980785 -0.074658
v 0.353553 0.923880 -0.146447
v 0.513280 0.831470 -0.212607
v 0.653281 0.707107 -0.270598
v 0.768178 0.555570 -0.318190
v 0.853553 0.382683 -0.353553
v 0.906127 0.195090 -0.375330
v 0.923879 -0.000000 -0.382683
v 0.906127 -0.195090 -0.375330
v 0.853553 -0.382683 -0.353553
v 0.768178 -0.555570 -0.318190
v 0.653281 -0.707107 -0.270598
v 0.513280 -0.831470 -0.212607
v 0.353553 -0.923880 -0.146447
v 0.180240 -0.980785 -0.074658
v 0.191342 0.980785 -0.038060
v 0.375330 0.923880 -0.074658
v 0.544895 0.831470 -0.108386
v 0.693520 0.707107 -0.137950
v 0.815493 0.555570 -0.162212
v 0.906127 0.382683 -0.180240
v 0.961940 0.195090 -0.191342
v 0.980785 -0.000000 -0.195090
v 0.961940 -0.195090 -0.191342
v 0.906127 -0.382683 -0.180240
v 0.815493 -0.555570 -0.162212
v 0.693520 -0.707107 -0.137950
v 0.544895 -0.831470 -0.108386
v 0.375330 -0.923880 -0.074658
v 0.191342 -0.980785 -0.038060
v 0.195090 0.980785 -0.000000
v 0.382683 0.923880 -0.000000
v 0.555570 0.831470 -0.000000
v 0.707107 0.707107 -0.000000
v 0.831469 0.555570 -0.000000
v 0.923879 0.382683 -0.000000
v 0.980785 0.195090 -0.000000
v 1.000000 0.000000 0.000000
v 0.980785 -0.195090 0.000000
v 0.923879 -0.382683 0.000000
v 0.831469 -0.555570 0.000000
v 0.707107 -0.707107 0.000000
v 0.555570 -0.831470 0.000000
v 0.382683 -0.923880 0.000000
v 0.195090 -0.980785 0.000000
v 0.191342 0.980785 0.038060
v 0.375330 0.923880 0.074658
v 0.544895 0.831470 0.108386
v 0.693520 0.707107 0.137950
v 0.815493 0.555570 0.162212
v 0.906127 0.382683 0.180240
v 0.961940 0.195090 0.191342
v 0.980785 0.000000 0.195090
v 0.961940 -0.195090 0.191342
v 0.906127 -0.382683 0.180240
v 0.815493 -0.555570 0.162212
v 0.693520 -0.707107 0.137950
v 0.544895 -0.831470 0.108386
v 0.375330 -0.923880 0.074658
v 0.191342 -0.980785 0.038060
v 0.180240 0.980785 0.074658
v 0.353553 0.923880 0.146447
v 0.513280 0.831470 0.212608
v 0.653281 0.707107 0.270598
v 0.768178 0.555570 0.318190
v 0.853553 0.382683 0.353553
v 0.906127 0.195090 0.375330
v 0.923879 0.000000 0.382683
v 0.906127 -0.195090 0.375330
v 0.853553 -0.382683 0.353553
v 0.768178 -0.555570 0.318190
v 0.653281 -0.707107 0.270598
v 0.513280 -0.831470 0.212608
v 0.353553 -0.923880 0.146447
v 0.180240 -0.980785 0.074658
v 0.162212 0.980785 0.108386
v 0.318190 0.923880 0.212608
v 0.461940 0.831470 0.308658
v 0.587938 0.707107 0.392847
v 0.691341 0.555570 0.461940
v 0.768178 0.382683 0.513280
v 0.815493 0.195090 0.544895
v 0.831469 0.000000 0.555570
v 0.815493 -0.195090 0.544895
v 0.768178 -0.382683 0.513280
v 0.691341 -0.555570 0.461940
v 0.587938 -0.707107 0.392847
v 0.461940 -0.831470 0.308658
v 0.318190 -0.923880 0.212608
v 0.162212 -0.980785 0.108386
v 0.137950 0.980785 0.137950
v 0.270598 0.923880 0.270598
v 0.392847 0.831470 0.392847
v 0.500000 0.707107 0.500000
v 0.587938 0.555570 0.587938
v 0.653281 0.382683 0.653281
v 0.693520 0.195090 0.693520
v 0.707106 0.000000 0.707107
v 0.693520 -0.195090 0.693520
v 0.653281 -0.382683 0.653281
v 0.587938 -0.555570 0.587938
v 0.500000 -0.707107 0.500000
v 0.392847 -0.831470 0.392847
v 0.270598 -0.923880 0.270598
v 0.137950 -0.980785 0.137950
v 0.108386 0.980785 0.162212
v 0.212607 0.923880 0.318190
v 0.308658 0.831470 0.461940
v 0.392847 0.707107 0.587938
v 0.461940 0.555570 0.691342
v 0.513280 0.382683 0.768178
v 0.544895 0.195090 0.815493
v 0.555570 0.000000 0.831469
v 0.544895 -0.195090 0.815493
v 0.513280 -0.382683 0.768178
v 0.461940 -0.555570 0.691342
v 0.392847 -0.707107 0.587938
v 0.308658 -0.831470 0.461940
v 0.212607 -0.923880 0.318190
v 0.108386 -0.980785 0.162212
v 0.074658 0.980785 0.180240
v 0.146447 0.923880 0.353553
v 0.212607 0.831470 0.513280
v 0.270598 0.707107 0.653281
v 0.318189 0.555570 0.768178
v 0.353553 0.382683 0.853553
v 0.375330 0.195090 0.906127
v 0.382683 0.000000 0.923879
v 0.375330 -0.195090 0.906127
v 0.353553 -0.382683 0.853553
v 0.318189 -0.555570 0.768178
v 0.270598 -0.707107 0.653281
v 0.212607 -0.831470 0.513280
v 0.146447 -0.923880 0.353553
v 0.074658 -0.980785 0.180240
v 0.038060 0.980785 0.191342
v 0.074658 0.923880 0.375330
v 0.108386 0.831470 0.544895
v 0.137950 0.707107 0.693520
v 0.162212 0.555570 0.815493
v 0.180240 0.382683 0.906127
v 0.191342 0.195090 0.961939
v 0.195090 0.000000 0.980785
v 0.191342 -0.195090 0.961939
v 0.180240 -0.382683 0.906127
v 0.162212 -0.555570 0.815493
v 0.137950 -0.707107 0.693520
v 0.108386 -0.831470 0.544895
v 0.074658 -0.923880 0.375330
v 0.038060 -0.980785 0.191342
v 0.000000 0.980785 0.195090
v 0.000000 0.923880 0.382683
v 0.000000 0.831470 0.555570
v 0.000000 0.707107 0.707107
v 0.000000 0.555570 0.831469
v 0.000000 0.382683 0.923879
v 0.000000 0.195090 0.980785
v 0.000000 0.000000 0.999999
v 0.000000 -0.195090 0.980785
v 0.000000 -0.382683 0.923879
v 0.000000 -0.555570 0.831469
v 0.000000 -0.707107 0.707107
v 0.000000 -0.831470 0.555570
v 0.000000 -0.923880 0.382683
v 0.000000 -0.980785 0.195090
v -0.038060 0.980785 0.191342
v -0.074658 0.923880 0.375330
v -0.108386 0.831470 0.544895
v -0.137950 0.707107 0.693520
v -0.162212 0.555570 0.815493
v -0.180240 0.382683 0.906127
v -0.191342 0.195090 0.961939
v -0.195091 0.000000 0.980785
v -0.191342 -0.195090 0.961939
v -0.180240 -0.382683 0.906127
v -0.162212 -0.555570 0.815493
v -0.137950 -0.707107 0.693520
v -0.108386 -0.831470 0.544895
v -0.074658 -0.923880 0.375330
v -0.038060 -0.980785 0.191342
v -0.074658 0.980785 0.180240
v -0.146447 0.923880 0.353553
v -0.212608 0.831470 0.513280
v -0.270598 0.707107 0.653281
v -0.318190 0.555570 0.768177
v -0.353553 0.382683 0.853553
v -0.375330 0.195090 0.906127
v -0.382683 0.000000 0.923879
v -0.375330 -0.195090 0.906127
v -0.353553 -0.382683 0.853553
v -0.318190 -0.555570 0.768177
v -0.270598 -0.707107 0.653281
v -0.212608 -0.831470 0.513280
v -0.146447 -0.923880 0.353553
v -0.074658 -0.980785 0.180240
v -0.108386 0.980785 0.162212
v -0.212608 0.923880 0.318190
v -0.308658 0.831470 0.461939
v -0.392847 0.707107 0.587938
v -0.461940 0.555570 0.691341
v -0.513280 0.382683 0.768178
v -0.544895 0.195090 0.815493
v -0.555570 0.000000 0.831469
v -0.544895 -0.195090 0.815493
v -0.513280 -0.382683 0.768178
v -0.461940 -0.555570 0.691341
v -0.392847 -0.707107 0.587938
v -0.308658 -0.831470 0.461939
v -0.212608 -0.923880 0.318190
v -0.108386 -0.980785 0.162212
v -0.137950 0.980785 0.137950
v -0.270598 0.923880 0.270598
v -0.392847 0.831470 0.392847
v -0.500000 0.707107 0.500000
v -0.587938 0.555570 0.587937
v -0.653281 0.382683 0.653281
v -0.693520 0.195090 0.693520
v -0.707106 0.000000 0.707106
v -0.693520 -0.195090 0.693520
v -0.653281 -0.382683 0.653281
v -0.587938 -0.555570 0.587937
v -0.500000 -0.707107 0.500000
v -0.392847 -0.831470 0.392847
v -0.270598 -0.923880 0.270598
v -0.137950 -0.980785 0.137950
v 0.000000 -1.000000 0.000000
v -0.162212 0.980785 0.108386
v -0.318190 0.923880 0.212607
v -0.461940 0.831470 0.308658
v -0.587938 0.707107 0.392847
v -0.691341 0.555570 0.461939
v -0.768177 0.382683 0.513280
v -0.815493 0.195090 0.544895
v -0.831469 0.000000 0.555569
v -0.815493 -0.195090 0.544895
v -0.768177 -0.382683 0.513280
v -0.691341 -0.555570 0.461939
v -0.587938 -0.707107 0.392847
v -0.461940 -0.831470 0.308658
v -0.318190 -0.923880 0.212607
v -0.162212 -0.980785 0.108386
v -0.180240 0.980785 0.074658
v -0.353553 0.923880 0.146447
v -0.513280 0.831470 0.212607
v -0.653281 0.707107 0.270598
v -0.768177 0.555570 0.318189
v -0.853553 0.382683 0.353553
v -0.906127 0.195090 0.375330
v -0.923879 0.000000 0.382683
v -0.906127 -0.195090 0.375330
v -0.853553 -0.382683 0.353553
v -0.768177 -0.555570 0.318189
v -0.653281 -0.707107 0.270598
v -0.513280 -0.831470 0.212607
v -0.353553 -0.923880 0.146447
v -0.180240 -0.980785 0.074658
v -0.191342 0.980785 0.038060
v -0.375330 0.923880 0.074658
v -0.544895 0.831470 0.108386
v -0.693520 0.707107 0.137950
v -0.815493 0.555570 0.162211
v -0.906127 0.382683 0.180240
v -0.961939 0.195090 0.191341
v -0.980784 0.000000 0.195090
v -0.961939 -0.195090 0.191341
v -0.906127 -0.382683 0.180240
v -0.815493 -0.555570 0.162211
v -0.693520 -0.707107 0.137950
v -0.544895 -0.831470 0.108386
v -0.375330 -0.923880 0.074658
v -0.191342 -0.980785 0.038060
v -0.195090 0.980785 -0.000000
v -0.382683 0.923880 -0.000000
v -0.555570 0.831470 -0.000000
v -0.707107 0.707107 -0.000000
v -0.831469 0.555570 -0.000000
v -0.923879 0.382683 -0.000000
v -0.980785 0.195090 -0.000000
v -0.999999 0.000000 0.000000
v -0.980785 -0.195090 0.000000
v -0.923879 -0.382683 0.000000
v -0.831469 -0.555570 0.000000
v -0.707107 -0.707107 0.000000
v -0.555570 -0.831470 0.000000
v -0.382683 -0.923880 0.000000
v -0.195090 -0.980785 0.000000
v -0.191342 0.980785 -0.038060
v -0.375330 0.923880 -0.074658
v -0.544895 0.831470 -0.108386
v -0.693520 0.707107 -0.137950
v -0.815493 0.555570 -0.162212
v -0.906127 0.382683 -0.180240
v -0.961939 0.195090 -0.191342
v -0.980784 -0.000000 -0.195091
v -0.961939 -0.195090 -0.191342
v -0.906127 -0.382683 -0.180240
v -0.815493 -0.555570 -0.162212
v -0.693520 -0.707107 -0.137950
v -0.544895 -0.831470 -0.108386
v -0.375330 -0.923880 -0.074658
v -0.191342 -0.980785 -0.038060
v -0.180240 0.980785 -0.074658
v -0.353553 0.923880 -0.146447
v -0.513279 0.831470 -0.212607
v -0.653281 0.707107 -0.270598
v -0.768177 0.555570 -0.318190
v -0.853553 0.382683 -0.353553
v -0.906127 0.195090 -0.375330
v -0.923878 -0.000000 -0.382683
v -0.906127 -0.195090 -0.375330
v -0.853553 -0.382683 -0.353553
v -0.768177 -0.555570 -0.318190
v -0.653281 -0.707107 -0.270598
v -0.513279 -0.831470 -0.212607
v -0.353553 -0.923880 -0.146447
v -0.180240 -0.980785 -0.074658
v -0.162212 0.980785 -0.108386
v -0.318189 0.923880 -0.212607
v -0.461939 0.831470 -0.308658
v -0.587938 0.707107 -0.392847
v -0.691341 0.555570 -0.461940
v -0.768177 0.382683 -0.513280
v -0.815493 0.195090 -0.544895
v -0.831468 -0.000000 -0.555570
v -0.815493 -0.195090 -0.544895
v -0.768177 -0.382683 -0.513280
v -0.691341 -0.555570 -0.461940
v -0.587938 -0.707107 -0.392847
v -0.461939 -0.831470 -0.308658
v -0.318189 -0.923880 -0.212607
v -0.162212 -0.980785 -0.108386
v -0.137950 0.980785 -0.137950
v -0.270598 0.923880 -0.270598
v -0.392847 0.831470 -0.392847
v -0.500000 0.707107 -0.500000
v -0.587937 0.555570 -0.587938
v -0.653281 0.382683 -0.653281
v -0.693519 0.195090 -0.693520
v -0.707106 -0.000000 -0.707106
v -0.693519 -0.195090 -0.693520
v -0.653281 -0.382683 -0.653281
v -0.587937 -0.555570 -0.587938
v -0.500000 -0.707107 -0.500000
v -0.392847 -0.831470 -0.392847
v -0.270598 -0.923880 -0.270598
v -0.137950 -0.980785 -0.137950
v -0.108386 0.980785 -0.162212
v -0.212607 0.923880 -0.318190
v -0.308658 0.831470 -0.461939
v -0.392847 0.707107 -0.587938
v -0.461939 0.555570 -0.691341
v -0.513280 0.382683 -0.768177
v -0.544895 0.195090 -0.815493
v -0.555569 -0.000000 -0.831469
v -0.544895 -0.195090 -0.815493
v -0.513280 -0.382683 -0.768177
v -0.461939 -0.555570 -0.691341
v -0.392847 -0.707107 -0.587938
v -0.308658 -0.831470 -0.461939
v -0.212607 -0.923880 -0.318190
v -0.108386 -0.980785 -0.162212
v -0.074658 0.980785 -0.180240
v -0.146446 0.923880 -0.353553
v -0.212607 0.831470 -0.513279
v -0.270598 0.707107 -0.653281
v -0.318189 0.555570 -0.768177
v -0.353553 0.382683 -0.853553
v -0.375330 0.195090 -0.906127
v -0.382683 -0.000000 -0.923879
v -0.375330 -0.195090 -0.906127
v -0.353553 -0.382683 -0.853553
v -0.318189 -0.555570 -0.768177
v -0.270598 -0.707107 -0.653281
v -0.212607 -0.831470 -0.513279
v -0.146446 -0.923880 -0.353553
v -0.074658 -0.980785 -0.180240
v -0.038060 0.980785 -0.191342
v -0.074658 0.923880 -0.375330
v -0.108386 0.831470 -0.544895
v -0.137950 0.707107 -0.693520
v -0.162211 0.555570 -0.815493
v -0.180240 0.382683 -0.906127
v -0.191341 0.195090 -0.961939
v -0.195090 -0.000000 -0.980784
v -0.191341 -0.195090 -0.961939
v -0.180240 -0.382683 -0.906127
v -0.162211 -0.555570 -0.815493
v -0.137950 -0.707107 -0.693520
v -0.108386 -0.831470 -0.544895
v -0.074658 -0.923880 -0.375330
v -0.038060 -0.980785 -0.191342
v 0.000000 0.980785 -0.195090
v 0.000000 0.923880 -0.382683
v 0.000000 0.707107 -0.707107
v 0.000000 0.382683 -0.923879
v 0.000000 -0.382683 -0.923879
v 0.000000 -0.707107 -0.707107
v 0.000000 -0.831470 -0.555570
v 0.000000 -0.923880 -0.382683
v 0.000000 -0.980785 -0.195090
vn -0.0759 -0.6326 0.7708
vn -0.0624 0.7715 0.6332
vn -0.0865 -0.4696 0.8786
vn -0.0464 0.8810 0.4709
vn -0.0938 -0.2890 0.9527
vn -0.0286 0.9566 0.2902
vn -0.0976 -0.0976 0.9904
vn -0.0097 -0.9951 0.0980
vn -0.0097 0.9951 0.0980
vn -0.0975 0.0976 0.9904
vn -0.0286 -0.9566 0.2902
vn -0.0938 0.2890 0.9527
vn -0.0464 -0.8810 0.4709
vn -0.0865 0.4696 0.8786
vn -0.0624 -0.7715 0.6332
vn -0.0759 0.6326 0.7708
vn -0.1847 -0.7715 0.6088
vn -0.2248 0.6326 0.7412
vn -0.2248 -0.6326 0.7412
vn -0.1847 0.7715 0.6088
vn -0.2563 -0.4696 0.8448
vn -0.1374 0.8810 0.4528
vn -0.2779 -0.2890 0.9161
vn -0.0846 0.9566 0.2790
vn -0.2889 -0.0975 0.9524
vn -0.0286 -0.9951 0.0942
vn -0.0286 0.9951 0.0942
vn -0.2889 0.0975 0.9524
vn -0.0846 -0.9566 0.2790
vn -0.2779 0.2890 0.9161
vn -0.1374 -0.8810 0.4528
vn -0.2563 0.4696 0.8448
vn -0.4691 -0.0975 0.8777
vn -0.0464 -0.9951 0.0869
vn -0.0464 0.9951 0.0869
vn -0.4691 0.0975 0.8777
vn -0.1374 -0.9566 0.2571
vn -0.4513 0.2890 0.8443
vn -0.2231 -0.8810 0.4173
vn -0.4162 0.4696 0.7786
vn -0.2999 -0.7715 0.5611
vn -0.3651 0.6326 0.6831
vn -0.3651 -0.6326 0.6831
vn -0.2999 0.7715 0.5611
vn -0.4162 -0.4696 0.7786
vn -0.2230 0.8810 0.4173
vn -0.4513 -0.2890 0.8443
vn -0.1374 0.9566 0.2571
vn -0.4913 0.6326 0.5987
vn -0.4913 -0.6326 0.5987
vn -0.4036 0.7715 0.4918
vn -0.5601 -0.4696 0.6825
vn -0.3002 0.8810 0.3658
vn -0.6073 -0.2890 0.7400
vn -0.1850 0.9566 0.2254
vn -0.6314 -0.0976 0.7693
vn -0.0625 -0.9951 0.0761
vn -0.0625 0.9951 0.0761
vn -0.6314 0.0975 0.7693
vn -0.1850 -0.9566 0.2254
vn -0.6073 0.2890 0.7400
vn -0.3002 -0.8810 0.3658
vn -0.5601 0.4696 0.6825
vn -0.4036 -0.7715 0.4918
vn -0.0761 -0.9951 0.0625
vn -0.0761 0.9951 0.0625
vn -0.7693 0.0976 0.6314
vn -0.2254 -0.9566 0.1850
vn -0.7400 0.2890 0.6073
vn -0.3658 -0.8810 0.3002
vn -0.6825 0.4696 0.5601
vn -0.4918 -0.7715 0.4036
vn -0.5987 0.6326 0.4913
vn -0.5987 -0.6326 0.4913
vn -0.4918 0.7715 0.4036
vn -0.6825 -0.4696 0.5601
vn -0.3658 0.8810 0.3002
vn -0.7400 -0.2890 0.6073
vn -0.2254 0.9566 0.1850
vn -0.7693 -0.0976 0.6314
vn -0.6831 -0.6326 0.3651
vn -0.5611 0.7715 0.2999
vn -0.7786 -0.4696 0.4162
vn -0.4173 0.8810 0.2230
vn -0.8443 -0.2890 0.4513
vn -0.2571 0.9566 0.1374
vn -0.8777 -0.0975 0.4691
vn -0.0869 -0.9951 0.0464
vn -0.0869 0.9951 0.0464
vn -0.8777 0.0976 0.4691
vn -0.2571 -0.9566 0.1374
vn -0.8443 0.2890 0.4513
vn -0.4173 -0.8810 0.2231
vn -0.7786 0.4696 0.4162
vn -0.5611 -0.7715 0.2999
vn -0.6831 0.6326 0.3651
vn -0.9524 0.0975 0.2889
vn -0.2790 -0.9566 0.0846
vn -0.9161 0.2890 0.2779
vn -0.4528 -0.8810 0.1374
vn -0.8448 0.4696 0.2563
vn -0.6088 -0.7715 0.1847
vn -0.7412 0.6326 0.2248
vn -0.7412 -0.6326 0.2248
vn -0.6088 0.7715 0.1847
vn -0.8448 -0.4696 0.2563
vn -0.4528 0.8810 0.1374
vn -0.9161 -0.2890 0.2779
vn -0.2790 0.9566 0.0846
vn -0.9524 -0.0975 0.2889
vn -0.0942 -0.9951 0.0286
vn -0.0942 0.9951 0.0286
vn -0.6332 0.7715 0.0624
vn -0.8786 -0.4696 0.0865
vn -0.4709 0.8810 0.0464
vn -0.9527 -0.2890 0.0938
vn -0.2902 0.9566 0.0286
vn -0.9904 -0.0976 0.0976
vn -0.0980 -0.9951 0.0097
vn -0.0980 0.9951 0.0097
vn -0.9904 0.0975 0.0975
vn -0.2902 -0.9566 0.0286
vn -0.9527 0.2890 0.0938
vn -0.4709 -0.8810 0.0464
vn -0.8786 0.4696 0.0865
vn -0.6332 -0.7715 0.0624
vn -0.7708 0.6326 0.0759
vn -0.7708 -0.6326 0.0759
vn -0.9527 0.2890 -0.0938
vn -0.4709 -0.8810 -0.0464
vn -0.8786 0.4696 -0.0865
vn -0.6332 -0.7715 -0.0624
vn -0.7708 0.6326 -0.0759
vn -0.7708 -0.6326 -0.0759
vn -0.6332 0.7715 -0.0624
vn -0.8786 -0.4696 -0.0865
vn -0.4709 0.8810 -0.0464
vn -0.9527 -0.2890 -0.0938
vn -0.2902 0.9566 -0.0286
vn -0.9904 -0.0975 -0.0976
vn -0.0980 -0.9951 -0.0096
vn -0.0980 0.9951 -0.0097
vn -0.9904 0.0976 -0.0975
vn -0.2902 -0.9566 -0.0286
vn -0.4528 0.8810 -0.1374
vn -0.9161 -0.2890 -0.2779
vn -0.2790 0.9566 -0.0846
vn -0.9524 -0.0975 -0.2889
vn -0.0942 -0.9951 -0.0286
vn -0.0942 0.9951 -0.0286
vn -0.9524 0.0975 -0.2889
vn -0.2790 -0.9566 -0.0846
vn -0.9161 0.2890 -0.2779
vn -0.4528 -0.8810 -0.1374
vn -0.8449 0.4696 -0.2563
vn -0.6088 -0.7715 -0.1847
vn -0.7412 0.6326 -0.2248
vn -0.7412 -0.6326 -0.2248
vn -0.6088 0.7715 -0.1847
vn -0.8448 -0.4696 -0.2563
vn -0.4173 -0.8810 -0.2231
vn -0.7786 0.4696 -0.4162
vn -0.5611 -0.7715 -0.2999
vn -0.6831 0.6326 -0.3651
vn -0.6831 -0.6326 -0.3651
vn -0.5611 0.7715 -0.2999
vn -0.7786 -0.4696 -0.4162
vn -0.4173 0.8810 -0.2230
vn -0.8443 -0.2890 -0.4513
vn -0.2571 0.9566 -0.1374
vn -0.8777 -0.0975 -0.4691
vn -0.0869 -0.9951 -0.0464
vn -0.0869 0.9951 -0.0464
vn -0.8777 0.0975 -0.4691
vn -0.2571 -0.9566 -0.1374
vn -0.8443 0.2890 -0.4513
vn -0.7400 -0.2890 -0.6073
vn -0.2254 0.9566 -0.1850
vn -0.7693 -0.0975 -0.6314
vn -0.0761 -0.9951 -0.0625
vn -0.0761 0.9951 -0.0625
vn -0.7693 0.0975 -0.6314
vn -0.2254 -0.9566 -0.1850
vn -0.7400 0.2890 -0.6073
vn -0.3658 -0.8810 -0.3002
vn -0.6825 0.4696 -0.5601
vn -0.4918 -0.7715 -0.4036
vn -0.5987 0.6326 -0.4913
vn -0.5987 -0.6326 -0.4913
vn -0.4918 0.7715 -0.4036
vn -0.6825 -0.4696 -0.5601
vn -0.3658 0.8810 -0.3002
vn -0.5601 0.4696 -0.6825
vn -0.4036 -0.7715 -0.4918
vn -0.4913 0.6326 -0.5987
vn -0.4913 -0.6326 -0.5987
vn -0.4036 0.7715 -0.4918
vn -0.5601 -0.4696 -0.6825
vn -0.3002 0.8810 -0.3658
vn -0.6073 -0.2890 -0.7400
vn -0.1850 0.9565 -0.2254
vn -0.6314 -0.0975 -0.7693
vn -0.0625 -0.9951 -0.0761
vn -0.0625 0.9951 -0.0761
vn -0.6314 0.0975 -0.7693
vn -0.1850 -0.9566 -0.2254
vn -0.6073 0.2890 -0.7400
vn -0.3002 -0.8810 -0.3658
vn -0.1374 0.9565 -0.2571
vn -0.4691 -0.0975 -0.8777
vn -0.0464 -0.9951 -0.0869
vn -0.0464 0.9951 -0.0869
vn -0.4691 0.0975 -0.8777
vn -0.1374 -0.9566 -0.2571
vn -0.4513 0.2890 -0.8443
vn -0.2230 -0.8810 -0.4173
vn -0.4162 0.4696 -0.7786
vn -0.2999 -0.7715 -0.5611
vn -0.3651 0.6326 -0.6831
vn -0.3651 -0.6326 -0.6831
vn -0.2999 0.7715 -0.5611
vn -0.4162 -0.4696 -0.7786
vn -0.2230 0.8810 -0.4173
vn -0.4513 -0.2890 -0.8443
vn -0.1847 -0.7715 -0.6088
vn -0.2248 0.6326 -0.7412
vn -0.2248 -0.6326 -0.7412
vn -0.1847 0.7715 -0.6088
vn -0.2563 -0.4696 -0.8448
vn -0.1374 0.8810 -0.4528
vn -0.2779 -0.2890 -0.9161
vn -0.0846 0.9566 -0.2790
vn -0.2889 -0.0976 -0.9524
vn -0.0286 -0.9951 -0.0942
vn -0.0286 0.9951 -0.0942
vn -0.2889 0.0975 -0.9524
vn -0.0846 -0.9566 -0.2790
vn -0.2779 0.2890 -0.9161
vn -0.1374 -0.8810 -0.4528
vn -0.2563 0.4696 -0.8448
vn -0.0975 -0.0975 -0.9904
vn -0.0097 -0.9951 -0.0980
vn -0.0097 0.9951 -0.0980
vn -0.0976 0.0976 -0.9904
vn -0.0286 -0.9566 -0.2902
vn -0.0938 0.2890 -0.9527
vn -0.0464 -0.8810 -0.4709
vn -0.0865 0.4696 -0.8786
vn -0.0624 -0.7715 -0.6332
vn -0.0759 0.6326 -0.7708
vn -0.0759 -0.6326 -0.7708
vn -0.0624 0.7715 -0.6332
vn -0.0865 -0.4696 -0.8786
vn -0.0464 0.8810 -0.4709
vn -0.0938 -0.2890 -0.9527
vn -0.0286 0.9566 -0.2902
vn 0.0759 0.6326 -0.7708
vn 0.0759 -0.6326 -0.7708
vn 0.0624 0.7715 -0.6332
vn 0.0865 -0.4696 -0.8786
vn 0.0464 0.8810 -0.4709
vn 0.0938 -0.2890 -0.9527
vn 0.0286 0.9566 -0.2902
vn 0.0975 -0.0976 -0.9904
vn 0.0097 -0.9951 -0.0980
vn 0.0097 0.9951 -0.0980
vn 0.0976 0.0975 -0.9904
vn 0.0286 -0.9566 -0.2902
vn 0.0938 0.2890 -0.9527
vn 0.0464 -0.8810 -0.4709
vn 0.0865 0.4696 -0.8786
vn 0.0624 -0.7715 -0.6332
vn 0.0286 0.9951 -0.0942
vn 0.2889 0.0976 -0.9524
vn 0.0846 -0.9566 -0.2790
vn 0.2779 0.2890 -0.9161
vn 0.1374 -0.8810 -0.4528
vn 0.2563 0.4696 -0.8448
vn 0.1847 -0.7715 -0.6088
vn 0.2248 0.6326 -0.7412
vn 0.2248 -0.6326 -0.7412
vn 0.1847 0.7715 -0.6088
vn 0.2563 -0.4696 -0.8448
vn 0.1374 0.8810 -0.4528
vn 0.2779 -0.2890 -0.9161
vn 0.0846 0.9566 -0.2790
vn 0.2889 -0.0975 -0.9524
vn 0.0286 -0.9951 -0.0942
vn 0.2999 0.7715 -0.5611
vn 0.4162 -0.4696 -0.7786
vn 0.2230 0.8810 -0.4173
vn 0.4513 -0.2890 -0.8443
vn 0.1374 0.9566 -0.2571
vn 0.4691 -0.0975 -0.8777
vn 0.0464 -0.9951 -0.0869
vn 0.0464 0.9951 -0.0869
vn 0.4691 0.0975 -0.8777
vn 0.1374 -0.9566 -0.2571
vn 0.4513 0.2890 -0.8443
vn 0.2231 -0.8810 -0.4173
vn 0.4162 0.4696 -0.7786
vn 0.2999 -0.7715 -0.5611
vn 0.3651 0.6326 -0.6831
vn 0.3651 -0.6326 -0.6831
vn 0.1850 -0.9566 -0.2254
vn 0.6073 0.2890 -0.7400
vn 0.3002 -0.8810 -0.3658
vn 0.5601 0.4696 -0.6825
vn 0.4036 -0.7715 -0.4918
vn 0.4913 0.6326 -0.5987
vn 0.4913 -0.6326 -0.5987
vn 0.4036 0.7715 -0.4918
vn 0.5601 -0.4696 -0.6825
vn 0.3002 0.8810 -0.3658
vn 0.6073 -0.2890 -0.7400
vn 0.1850 0.9565 -0.2254
vn 0.6314 -0.0975 -0.7693
vn 0.0625 -0.9951 -0.0761
vn 0.0625 0.9951 -0.0761
vn 0.6314 0.0975 -0.7693
vn 0.6825 -0.4696 -0.5601
vn 0.3658 0.8810 -0.3002
vn 0.7400 -0.2890 -0.6073
vn 0.2254 0.9566 -0.1850
vn 0.7693 -0.0975 -0.6314
vn 0.0761 -0.9951 -0.0625
vn 0.0761 0.9951 -0.0625
vn 0.7693 0.0975 -0.6314
vn 0.2254 -0.9566 -0.1850
vn 0.7400 0.2890 -0.6073
vn 0.3658 -0.8810 -0.3002
vn 0.6825 0.4696 -0.5601
vn 0.4918 -0.7715 -0.4036
vn 0.5987 0.6326 -0.4913
vn 0.5987 -0.6326 -0.4913
vn 0.4918 0.7715 -0.4036
vn 0.8443 0.2890 -0.4513
vn 0.4173 -0.8810 -0.2230
vn 0.7786 0.4696 -0.4162
vn 0.5611 -0.7715 -0.2999
vn 0.6831 0.6326 -0.3651
vn 0.6831 -0.6326 -0.3651
vn 0.5611 0.7715 -0.2999
vn 0.7786 -0.4696 -0.4162
vn 0.4173 0.8810 -0.2230
vn 0.8443 -0.2890 -0.4513
vn 0.2571 0.9566 -0.1374
vn 0.8777 -0.0975 -0.4692
vn 0.0869 -0.9951 -0.0464
vn 0.0869 0.9951 -0.0464
vn 0.8777 0.0975 -0.4691
vn 0.2571 -0.9566 -0.1374
vn 0.4528 0.8810 -0.1374
vn 0.9161 -0.2890 -0.2779
vn 0.2790 0.9566 -0.0846
vn 0.9524 -0.0975 -0.2889
vn 0.0942 -0.9951 -0.0286
vn 0.0942 0.9951 -0.0286
vn 0.9524 0.0975 -0.2889
vn 0.2790 -0.9566 -0.0846
vn 0.9161 0.2890 -0.2779
vn 0.4528 -0.8810 -0.1374
vn 0.8448 0.4696 -0.2563
vn 0.6088 -0.7715 -0.1847
vn 0.7412 0.6326 -0.2248
vn 0.7412 -0.6326 -0.2248
vn 0.6088 0.7715 -0.1847
vn 0.8448 -0.4696 -0.2563
vn 0.4709 -0.8810 -0.0464
vn 0.8786 0.4696 -0.0865
vn 0.6332 -0.7715 -0.0624
vn 0.7708 0.6326 -0.0759
vn 0.7708 -0.6326 -0.0759
vn 0.6332 0.7715 -0.0624
vn 0.8786 -0.4696 -0.0865
vn 0.4709 0.8810 -0.0464
vn 0.9527 -0.2890 -0.0938
vn 0.2902 0.9566 -0.0286
vn 0.9904 -0.0975 -0.0976
vn 0.0980 -0.9951 -0.0096
vn 0.0980 0.9951 -0.0097
vn 0.9904 0.0975 -0.0976
vn 0.2902 -0.9566 -0.0286
vn 0.9527 0.2890 -0.0938
vn 0.9527 -0.2890 0.0938
vn 0.2902 0.9566 0.0286
vn 0.9904 -0.0975 0.0976
vn 0.0980 -0.9951 0.0097
vn 0.0980 0.9951 0.0097
vn 0.9904 0.0975 0.0976
vn 0.2902 -0.9566 0.0286
vn 0.9527 0.2890 0.0938
vn 0.4709 -0.8810 0.0464
vn 0.8786 0.4696 0.0865
vn 0.6332 -0.7715 0.0624
vn 0.7708 0.6326 0.0759
vn 0.7708 -0.6326 0.0759
vn 0.6332 0.7715 0.0624
vn 0.8786 -0.4696 0.0865
vn 0.4709 0.8810 0.0464
vn 0.8448 0.4696 0.2563
vn 0.6088 -0.7715 0.1847
vn 0.7412 0.6326 0.2248
vn 0.7412 -0.6326 0.2248
vn 0.6088 0.7715 0.1847
vn 0.8448 -0.4696 0.2563
vn 0.4528 0.8810 0.1374
vn 0.9161 -0.2890 0.2779
vn 0.2790 0.9566 0.0846
vn 0.9524 -0.0975 0.2889
vn 0.0942 -0.9951 0.0286
vn 0.0942 0.9951 0.0286
vn 0.9524 0.0975 0.2889
vn 0.2790 -0.9566 0.0846
vn 0.9161 0.2890 0.2779
vn 0.4528 -0.8810 0.1374
vn 0.2571 0.9566 0.1374
vn 0.8777 -0.0975 0.4691
vn 0.0869 -0.9951 0.0464
vn 0.0869 0.9951 0.0464
vn 0.8777 0.0975 0.4691
vn 0.2571 -0.9566 0.1374
vn 0.8443 0.2890 0.4513
vn 0.4173 -0.8810 0.2230
vn 0.7786 0.4696 0.4162
vn 0.5611 -0.7715 0.2999
vn 0.6831 0.6326 0.3651
vn 0.6831 -0.6326 0.3651
vn 0.5611 0.7715 0.2999
vn 0.7786 -0.4696 0.4162
vn 0.4173 0.8810 0.2231
vn 0.8443 -0.2890 0.4513
vn 0.5987 0.6326 0.4913
vn 0.5987 -0.6326 0.4913
vn 0.4918 0.7715 0.4036
vn 0.6825 -0.4696 0.5601
vn 0.3658 0.8810 0.3002
vn 0.7400 -0.2890 0.6073
vn 0.2254 0.9566 0.1850
vn 0.7693 -0.0975 0.6314
vn 0.0761 -0.9951 0.0625
vn 0.0761 0.9951 0.0625
vn 0.7693 0.0975 0.6314
vn 0.2254 -0.9566 0.1850
vn 0.7400 0.2890 0.6073
vn 0.3658 -0.8810 0.3002
vn 0.6825 0.4696 0.5601
vn 0.4918 -0.7715 0.4036
vn 0.0625 -0.9951 0.0761
vn 0.0625 0.9951 0.0761
vn 0.6314 0.0975 0.7693
vn 0.1850 -0.9566 0.2254
vn 0.6073 0.2890 0.7400
vn 0.3002 -0.8810 0.3658
vn 0.5601 0.4696 0.6825
vn 0.4036 -0.7715 0.4918
vn 0.4913 0.6326 0.5987
vn 0.4913 -0.6326 0.5987
vn 0.4036 0.7715 0.4918
vn 0.5601 -0.4696 0.6825
vn 0.3002 0.8810 0.3658
vn 0.6073 -0.2890 0.7400
vn 0.1850 0.9565 0.2254
vn 0.6314 -0.0975 0.7693
vn 0.3651 -0.6326 0.6831
vn 0.2999 0.7715 0.5611
vn 0.4162 -0.4696 0.7786
vn 0.2230 0.8810 0.4173
vn 0.4513 -0.2890 0.8443
vn 0.1374 0.9565 0.2571
vn 0.4692 -0.0975 0.8777
vn 0.0464 -0.9951 0.0869
vn 0.0464 0.9951 0.0869
vn 0.4691 0.0975 0.8777
vn 0.1374 -0.9566 0.2571
vn 0.4513 0.2890 0.8443
vn 0.2230 -0.8810 0.4173
vn 0.4162 0.4696 0.7786
vn 0.2999 -0.7715 0.5611
vn 0.3651 0.6326 0.6831
vn 0.2889 0.0975 0.9524
vn 0.0846 -0.9566 0.2790
vn 0.2779 0.2890 0.9161
vn 0.1374 -0.8810 0.4528
vn 0.2563 0.4696 0.8448
vn 0.1847 -0.7715 0.6088
vn 0.2248 0.6326 0.7412
vn 0.2248 -0.6326 0.7412
vn 0.1847 0.7715 0.6088
vn 0.2563 -0.4696 0.8448
vn 0.1374 0.8810 0.4528
vn 0.2779 -0.2890 0.9161
vn 0.0846 0.9566 0.2790
vn 0.2889 -0.0975 0.9524
vn 0.0286 -0.9951 0.0942
vn 0.0286 0.9951 0.0942
vn 0.0624 0.7715 0.6332
vn 0.0865 -0.4696 0.8786
vn 0.0464 0.8810 0.4709
vn 0.0938 -0.2890 0.9527
vn 0.0286 0.9565 0.2902
vn 0.0976 -0.0976 0.9904
vn 0.0097 -0.9951 0.0980
vn 0.0097 0.9951 0.0980
vn 0.0976 0.0975 0.9904
vn 0.0286 -0.9566 0.2902
vn 0.0938 0.2890 0.9527
vn 0.0464 -0.8810 0.4709
vn 0.0865 0.4696 0.8786
vn 0.0624 -0.7715 0.6332
vn 0.0759 0.6326 0.7708
vn 0.0759 -0.6326 0.7708
vn -0.0975 -0.0975 0.9904
vn -0.0976 0.0975 0.9904
vn -0.2563 -0.4696 0.8449
vn -0.2563 0.4696 0.8449
vn -0.2230 -0.8810 0.4173
vn -0.2231 0.8810 0.4173
vn -0.6314 -0.0975 0.7693
vn -0.6314 0.0976 0.7693
vn -0.1850 -0.9565 0.2254
vn -0.8777 -0.0976 0.4691
vn -0.8777 0.0975 0.4691
vn -0.4173 -0.8810 0.2230
vn -0.9904 -0.0975 0.0975
vn -0.9904 0.0976 0.0976
vn -0.9904 -0.0976 -0.0975
vn -0.9904 0.0975 -0.0976
vn -0.8448 0.4696 -0.2563
vn -0.8449 -0.4696 -0.2563
vn -0.4173 -0.8810 -0.2230
vn -0.4173 0.8810 -0.2231
vn -0.1850 0.9566 -0.2254
vn -0.1850 -0.9565 -0.2254
vn -0.1374 0.9566 -0.2571
vn -0.2889 -0.0975 -0.9524
vn -0.2889 0.0976 -0.9524
vn -0.0976 -0.0976 -0.9904
vn -0.0975 0.0975 -0.9904
vn 0.0976 -0.0975 -0.9904
vn 0.0975 0.0976 -0.9904
vn 0.2889 0.0975 -0.9524
vn 0.2889 -0.0976 -0.9524
vn 0.2231 0.8810 -0.4173
vn 0.2230 -0.8810 -0.4173
vn 0.1850 -0.9565 -0.2254
vn 0.1850 0.9566 -0.2254
vn 0.8777 -0.0975 -0.4691
vn 0.8777 0.0975 -0.4692
vn 0.4173 -0.8810 0.2231
vn 0.4173 0.8810 0.2230
vn 0.1850 0.9566 0.2254
vn 0.1374 0.9566 0.2571
vn 0.4691 -0.0975 0.8777
vn 0.4692 0.0975 0.8777
vn 0.0286 0.9566 0.2902
vn 0.0976 -0.0975 0.9904
vn 0.0976 0.0976 0.9904
vt 0.750000 0.587539
vt 0.718750 0.587539
vt 0.718750 0.616719
vt 0.750000 0.383281
vt 0.750000 0.354101
vt 0.718750 0.354101
vt 0.750000 0.558360
vt 0.718750 0.558360
vt 0.750000 0.324922
vt 0.718750 0.324922
vt 0.750000 0.529180
vt 0.718750 0.529180
vt 0.750000 0.295742
vt 0.718750 0.295742
vt 0.750000 0.500000
vt 0.718750 0.500000
vt 0.750000 0.704258
vt 0.718750 0.704258
vt 0.734375 0.733438
vt 0.734375 0.266562
vt 0.750000 0.470820
vt 0.718750 0.470820
vt 0.750000 0.675078
vt 0.718750 0.675078
vt 0.750000 0.441640
vt 0.718750 0.441641
vt 0.750000 0.645899
vt 0.718750 0.645899
vt 0.750000 0.412461
vt 0.718750 0.412461
vt 0.750000 0.616719
vt 0.718750 0.383281
vt 0.687500 0.616719
vt 0.687500 0.383281
vt 0.687500 0.587539
vt 0.687500 0.354101
vt 0.687500 0.558359
vt 0.687500 0.324922
vt 0.687500 0.529180
vt 0.687500 0.295742
vt 0.687500 0.500000
vt 0.687500 0.704258
vt 0.703125 0.733438
vt 0.703125 0.266562
vt 0.687500 0.470820
vt 0.687500 0.675078
vt 0.687500 0.441641
vt 0.687500 0.645899
vt 0.687500 0.412461
vt 0.656250 0.500000
vt 0.656250 0.704258
vt 0.671875 0.733438
vt 0.671875 0.266562
vt 0.656250 0.295742
vt 0.656250 0.470820
vt 0.656250 0.675078
vt 0.656250 0.441641
vt 0.656250 0.645899
vt 0.656250 0.412461
vt 0.656250 0.616719
vt 0.656250 0.383281
vt 0.656250 0.587539
vt 0.656250 0.354101
vt 0.656250 0.558360
vt 0.656250 0.324922
vt 0.656250 0.529180
vt 0.625000 0.383281
vt 0.625000 0.587539
vt 0.625000 0.354101
vt 0.625000 0.558360
vt 0.625000 0.324922
vt 0.625000 0.529180
vt 0.625000 0.295742
vt 0.625000 0.500000
vt 0.625000 0.704258
vt 0.640625 0.733438
vt 0.640625 0.266562
vt 0.625000 0.470820
vt 0.625000 0.675078
vt 0.625000 0.441641
vt 0.625000 0.645899
vt 0.625000 0.412461
vt 0.625000 0.616719
vt 0.593750 0.704258
vt 0.609375 0.733438
vt 0.609375 0.266562
vt 0.593750 0.295742
vt 0.593750 0.470820
vt 0.593750 0.675078
vt 0.593750 0.441641
vt 0.593750 0.645899
vt 0.593750 0.412461
vt 0.593750 0.616719
vt 0.593750 0.383281
vt 0.593750 0.587539
vt 0.593750 0.354101
vt 0.593750 0.558360
vt 0.593750 0.324922
vt 0.593750 0.529180
vt 0.593750 0.500000
vt 0.562500 0.587539
vt 0.562500 0.616719
vt 0.562500 0.354101
vt 0.562500 0.558360
vt 0.562500 0.324922
vt 0.562500 0.529180
vt 0.562500 0.295742
vt 0.562500 0.500000
vt 0.562500 0.704258
vt 0.578125 0.733438
vt 0.578125 0.266562
vt 0.562500 0.470820
vt 0.562500 0.675078
vt 0.562500 0.441641
vt 0.562500 0.645899
vt 0.562500 0.412461
vt 0.562500 0.383281
vt 0.531250 0.470820
vt 0.531250 0.675078
vt 0.531250 0.704258
vt 0.531250 0.441641
vt 0.531250 0.645899
vt 0.531250 0.412461
vt 0.531250 0.616719
vt 0.531250 0.383281
vt 0.531250 0.587539
vt 0.531250 0.354101
vt 0.531250 0.558360
vt 0.531250 0.324922
vt 0.531250 0.529180
vt 0.531250 0.295742
vt 0.531250 0.500000
vt 0.546875 0.733438
vt 0.546875 0.266562
vt 0.500000 0.354101
vt 0.500000 0.383281
vt 0.500000 0.558360
vt 0.500000 0.324922
vt 0.500000 0.529180
vt 0.500000 0.295742
vt 0.500000 0.500000
vt 0.500000 0.704258
vt 0.515625 0.733438
vt 0.515625 0.266562
vt 0.500000 0.470820
vt 0.500000 0.675078
vt 0.500000 0.441641
vt 0.500000 0.645899
vt 0.500000 0.412461
vt 0.500000 0.616719
vt 0.500000 0.587539
vt 0.468750 0.441641
vt 0.468750 0.645899
vt 0.468750 0.412461
vt 0.468750 0.616719
vt 0.468750 0.383281
vt 0.468750 0.587539
vt 0.468750 0.354101
vt 0.468750 0.558360
vt 0.468750 0.324922
vt 0.468750 0.529180
vt 0.468750 0.295742
vt 0.468750 0.500000
vt 0.468750 0.704258
vt 0.484375 0.733438
vt 0.484375 0.266562
vt 0.468750 0.470820
vt 0.468750 0.675078
vt 0.437500 0.324922
vt 0.437500 0.529180
vt 0.437500 0.558360
vt 0.437500 0.295742
vt 0.437500 0.500000
vt 0.437500 0.704258
vt 0.453125 0.733438
vt 0.453125 0.266562
vt 0.437500 0.470820
vt 0.437500 0.675078
vt 0.437500 0.441641
vt 0.437500 0.645899
vt 0.437500 0.412461
vt 0.437500 0.616719
vt 0.437500 0.383281
vt 0.437500 0.587539
vt 0.437500 0.354101
vt 0.406250 0.645899
vt 0.406250 0.675078
vt 0.406250 0.412461
vt 0.406250 0.441641
vt 0.406250 0.616719
vt 0.406250 0.383281
vt 0.406250 0.587539
vt 0.406250 0.354101
vt 0.406250 0.558360
vt 0.406250 0.324922
vt 0.406250 0.529180
vt 0.406250 0.295742
vt 0.406250 0.500000
vt 0.406250 0.704258
vt 0.421875 0.733438
vt 0.421875 0.266562
vt 0.406250 0.470820
vt 0.375000 0.529180
vt 0.375000 0.558360
vt 0.375000 0.295742
vt 0.375000 0.324922
vt 0.375000 0.500000
vt 0.375000 0.704258
vt 0.390625 0.733438
vt 0.390625 0.266562
vt 0.375000 0.470820
vt 0.375000 0.675078
vt 0.375000 0.441641
vt 0.375000 0.645899
vt 0.375000 0.412461
vt 0.375000 0.616719
vt 0.375000 0.383281
vt 0.375000 0.587539
vt 0.375000 0.354101
vt 0.343750 0.412461
vt 0.343750 0.441641
vt 0.343750 0.616719
vt 0.343750 0.383281
vt 0.343750 0.587539
vt 0.343750 0.354101
vt 0.343750 0.558360
vt 0.343750 0.324922
vt 0.343750 0.529180
vt 0.343750 0.295742
vt 0.343750 0.500000
vt 0.343750 0.704258
vt 0.359375 0.733438
vt 0.359375 0.266562
vt 0.343750 0.470820
vt 0.343750 0.675078
vt 0.343750 0.645899
vt 0.312500 0.295742
vt 0.312500 0.500000
vt 0.312500 0.529180
vt 0.312500 0.704258
vt 0.328125 0.733438
vt 0.328125 0.266562
vt 0.312500 0.470820
vt 0.312500 0.675078
vt 0.312500 0.441641
vt 0.312500 0.645899
vt 0.312500 0.412461
vt 0.312500 0.616719
vt 0.312500 0.383281
vt 0.312500 0.587539
vt 0.312500 0.354101
vt 0.312500 0.558360
vt 0.312500 0.324922
vt 0.281250 0.616719
vt 0.281250 0.383281
vt 0.281250 0.587539
vt 0.281250 0.354101
vt 0.281250 0.558360
vt 0.281250 0.324922
vt 0.281250 0.529180
vt 0.281250 0.295742
vt 0.281250 0.500000
vt 0.281250 0.704258
vt 0.296875 0.733438
vt 0.296875 0.266562
vt 0.281250 0.470820
vt 0.281250 0.675078
vt 0.281250 0.441641
vt 0.281250 0.645899
vt 0.281250 0.412461
vt 0.250000 0.500000
vt 0.250000 0.529180
vt 0.250000 0.704258
vt 0.265625 0.733438
vt 0.265625 0.266562
vt 0.250000 0.295742
vt 0.250000 0.470820
vt 0.250000 0.675078
vt 0.250000 0.441641
vt 0.250000 0.645899
vt 0.250000 0.412461
vt 0.250000 0.616719
vt 0.250000 0.383281
vt 0.250000 0.587539
vt 0.250000 0.354101
vt 0.250000 0.558360
vt 0.250000 0.324922
vt 0.218750 0.383281
vt 0.218750 0.587539
vt 0.218750 0.616719
vt 0.218750 0.354101
vt 0.218750 0.558360
vt 0.218750 0.324922
vt 0.218750 0.529180
vt 0.218750 0.295742
vt 0.218750 0.500000
vt 0.218750 0.704258
vt 0.234375 0.733438
vt 0.234375 0.266562
vt 0.218750 0.470820
vt 0.218750 0.675078
vt 0.218750 0.441641
vt 0.218750 0.645899
vt 0.218750 0.412461
vt 0.203125 0.266562
vt 0.187500 0.295742
vt 0.187500 0.470820
vt 0.187500 0.675078
vt 0.187500 0.704258
vt 0.187500 0.441640
vt 0.187500 0.645899
vt 0.187500 0.412461
vt 0.187500 0.616719
vt 0.187500 0.383281
vt 0.187500 0.587539
vt 0.187500 0.354101
vt 0.187500 0.558360
vt 0.187500 0.324922
vt 0.187500 0.529180
vt 0.187500 0.500000
vt 0.203125 0.733438
vt 0.156250 0.354101
vt 0.156250 0.383281
vt 0.156250 0.558360
vt 0.156250 0.324922
vt 0.156250 0.529180
vt 0.156250 0.295742
vt 0.156250 0.500000
vt 0.156250 0.704258
vt 0.171875 0.733438
vt 0.171875 0.266562
vt 0.156250 0.470820
vt 0.156250 0.675078
vt 0.156250 0.441640
vt 0.156250 0.645899
vt 0.156250 0.412461
vt 0.156250 0.616719
vt 0.156250 0.587539
vt 0.125000 0.675078
vt 0.125000 0.441640
vt 0.125000 0.645899
vt 0.125000 0.412461
vt 0.125000 0.616719
vt 0.125000 0.383281
vt 0.125000 0.587539
vt 0.125000 0.354101
vt 0.125000 0.558360
vt 0.125000 0.324922
vt 0.125000 0.529180
vt 0.125000 0.295742
vt 0.125000 0.500000
vt 0.125000 0.704258
vt 0.140625 0.733438
vt 0.140625 0.266562
vt 0.125000 0.470820
vt 0.093750 0.558360
vt 0.093750 0.324922
vt 0.093750 0.529180
vt 0.093750 0.295742
vt 0.093750 0.500000
vt 0.093750 0.704258
vt 0.109375 0.733438
vt 0.109375 0.266562
vt 0.093750 0.470820
vt 0.093750 0.675078
vt 0.093750 0.441640
vt 0.093750 0.645899
vt 0.093750 0.412461
vt 0.093750 0.616719
vt 0.093750 0.383281
vt 0.093750 0.587539
vt 0.093750 0.354101
vt 0.062500 0.441640
vt 0.062500 0.645899
vt 0.062500 0.412461
vt 0.062500 0.616719
vt 0.062500 0.383281
vt 0.062500 0.587539
vt 0.062500 0.354101
vt 0.062500 0.558360
vt 0.062500 0.324922
vt 0.062500 0.529180
vt 0.062500 0.295742
vt 0.062500 0.500000
vt 0.062500 0.704258
vt 0.078125 0.733438
vt 0.078125 0.266562
vt 0.062500 0.470820
vt 0.062500 0.675078
vt 0.031250 0.324922
vt 0.031250 0.529180
vt 0.031250 0.558360
vt 0.031250 0.295742
vt 0.031250 0.500000
vt 0.031250 0.704258
vt 0.046875 0.733438
vt 0.046875 0.266562
vt 0.031250 0.470820
vt 0.031250 0.675078
vt 0.031250 0.441640
vt 0.031250 0.645899
vt 0.031250 0.412461
vt 0.031250 0.616719
vt 0.031250 0.383281
vt 0.031250 0.587539
vt 0.031250 0.354101
vt 0.000000 0.645899
vt 0.000000 0.675078
vt 0.000000 0.412461
vt 0.000000 0.441640
vt 0.000000 0.616719
vt 0.000000 0.383281
vt 0.000000 0.587539
vt 0.000000 0.354101
vt 0.000000 0.558360
vt 0.000000 0.324922
vt 0.000000 0.529180
vt 0.000000 0.295742
vt 0.000000 0.500000
vt 0.000000 0.704258
vt 0.015625 0.733438
vt 0.015625 0.266562
vt 0.000000 0.470820
vt 1.000000 0.529180
vt 0.968750 0.529180
vt 0.968750 0.558360
vt 1.000000 0.324922
vt 1.000000 0.295742
vt 0.968750 0.295742
vt 1.000000 0.500000
vt 0.968750 0.500000
vt 1.000000 0.704258
vt 0.968750 0.704258
vt 0.984375 0.733438
vt 0.984375 0.266562
vt 1.000000 0.470820
vt 0.968750 0.470820
vt 1.000000 0.675078
vt 0.968750 0.675078
vt 1.000000 0.441640
vt 0.968750 0.441640
vt 1.000000 0.645899
vt 0.968750 0.645899
vt 1.000000 0.412461
vt 0.968750 0.412461
vt 1.000000 0.616719
vt 0.968750 0.616719
vt 1.000000 0.383281
vt 0.968750 0.383281
vt 1.000000 0.587539
vt 0.968750 0.587539
vt 1.000000 0.354101
vt 0.968750 0.354101
vt 1.000000 0.558360
vt 0.968750 0.324922
vt 0.937500 0.412461
vt 0.937500 0.441640
vt 0.937500 0.616719
vt 0.937500 0.383281
vt 0.937500 0.587539
vt 0.937500 0.354101
vt 0.937500 0.558360
vt 0.937500 0.324922
vt 0.937500 0.529180
vt 0.937500 0.295742
vt 0.937500 0.500000
vt 0.937500 0.704258
vt 0.953125 0.733438
vt 0.953125 0.266562
vt 0.937500 0.470820
vt 0.937500 0.675078
vt 0.937500 0.645899
vt 0.906250 0.295742
vt 0.906250 0.500000
vt 0.906250 0.529180
vt 0.906250 0.704258
vt 0.921875 0.733438
vt 0.921875 0.266562
vt 0.906250 0.470820
vt 0.906250 0.675078
vt 0.906250 0.441640
vt 0.906250 0.645899
vt 0.906250 0.412461
vt 0.906250 0.616719
vt 0.906250 0.383281
vt 0.906250 0.587539
vt 0.906250 0.354101
vt 0.906250 0.558360
vt 0.906250 0.324922
vt 0.875000 0.383281
vt 0.875000 0.587539
vt 0.875000 0.616719
vt 0.875000 0.354101
vt 0.875000 0.558360
vt 0.875000 0.324922
vt 0.875000 0.529180
vt 0.875000 0.295742
vt 0.875000 0.500000
vt 0.875000 0.704258
vt 0.890625 0.733438
vt 0.890625 0.266562
vt 0.875000 0.470820
vt 0.875000 0.675078
vt 0.875000 0.441640
vt 0.875000 0.645899
vt 0.875000 0.412461
vt 0.843750 0.704258
vt 0.859375 0.733438
vt 0.859375 0.266562
vt 0.843750 0.295742
vt 0.843750 0.470820
vt 0.843750 0.675078
vt 0.843750 0.441640
vt 0.843750 0.645899
vt 0.843750 0.412461
vt 0.843750 0.616719
vt 0.843750 0.383281
vt 0.843750 0.587539
vt 0.843750 0.354101
vt 0.843750 0.558360
vt 0.843750 0.324922
vt 0.843750 0.529180
vt 0.843750 0.500000
vt 0.812500 0.587539
vt 0.812500 0.616719
vt 0.812500 0.354101
vt 0.812500 0.383281
vt 0.812500 0.558360
vt 0.812500 0.324922
vt 0.812500 0.529180
vt 0.812500 0.295742
vt 0.812500 0.500000
vt 0.812500 0.704258
vt 0.828125 0.733438
vt 0.828125 0.266562
vt 0.812500 0.470820
vt 0.812500 0.675078
vt 0.812500 0.441640
vt 0.812500 0.645899
vt 0.812500 0.412461
vt 0.781250 0.470820
vt 0.781250 0.675078
vt 0.781250 0.441640
vt 0.781250 0.645899
vt 0.781250 0.412461
vt 0.781250 0.616719
vt 0.781250 0.383281
vt 0.781250 0.587539
vt 0.781250 0.354101
vt 0.781250 0.558360
vt 0.781250 0.324922
vt 0.781250 0.529180
vt 0.781250 0.295742
vt 0.781250 0.500000
vt 0.781250 0.704258
vt 0.796875 0.733438
vt 0.796875 0.266562
vt 0.765625 0.733438
vt 0.765625 0.266562
s 0
usemtl Material.001
f 2/1/1 11/2/1 10/3/1
f 479/4/2 480/5/2 19/6/2
f 477/7/3 12/8/3 11/2/3
f 480/5/4 481/9/4 20/10/4
f 3/11/5 13/12/5 12/8/5
f 481/9/6 482/13/6 21/14/6
f 3/11/7 4/15/7 14/16/7
f 474/17/8 7/18/8 82/19/8
f 308/20/9 21/14/9 482/13/9
f 4/15/10 5/21/10 15/22/10
f 475/23/11 8/24/11 7/18/11
f 5/21/12 478/25/12 16/26/12
f 1/27/13 9/28/13 8/24/13
f 478/25/14 6/29/14 17/30/14
f 476/31/15 10/3/15 9/28/15
f 6/29/16 479/4/16 18/32/16
f 9/28/17 10/3/17 25/33/17
f 17/30/18 18/32/18 33/34/18
f 10/3/19 11/2/19 26/35/19
f 19/6/20 34/36/20 33/34/20
f 11/2/21 12/8/21 27/37/21
f 20/10/22 35/38/22 34/36/22
f 13/12/23 28/39/23 27/37/23
f 20/10/24 21/14/24 36/40/24
f 13/12/25 14/16/25 29/41/25
f 7/18/26 22/42/26 82/43/26
f 308/44/27 36/40/27 21/14/27
f 14/16/28 15/22/28 30/45/28
f 7/18/29 8/24/29 23/46/29
f 15/22/30 16/26/30 31/47/30
f 8/24/31 9/28/31 24/48/31
f 16/26/32 17/30/32 32/49/32
f 28/39/33 29/41/33 44/50/33
f 22/42/34 37/51/34 82/52/34
f 308/53/35 51/54/35 36/40/35
f 30/45/36 45/55/36 44/50/36
f 22/42/37 23/46/37 38/56/37
f 30/45/38 31/47/38 46/57/38
f 23/46/39 24/48/39 39/58/39
f 32/49/40 47/59/40 46/57/40
f 24/48/41 25/33/41 40/60/41
f 33/34/42 48/61/42 47/59/42
f 25/33/43 26/35/43 41/62/43
f 34/36/44 49/63/44 48/61/44
f 26/35/45 27/37/45 42/64/45
f 34/36/46 35/38/46 50/65/46
f 27/37/47 28/39/47 43/66/47
f 35/38/48 36/40/48 51/54/48
f 47/59/49 48/61/49 63/67/49
f 40/60/50 41/62/50 56/68/50
f 48/61/51 49/63/51 64/69/51
f 41/62/52 42/64/52 57/70/52
f 49/63/53 50/65/53 65/71/53
f 43/66/54 58/72/54 57/70/54
f 50/65/55 51/54/55 66/73/55
f 44/50/56 59/74/56 58/72/56
f 37/51/57 52/75/57 82/76/57
f 308/77/58 66/73/58 51/54/58
f 44/50/59 45/55/59 60/78/59
f 37/51/60 38/56/60 53/79/60
f 45/55/61 46/57/61 61/80/61
f 38/56/62 39/58/62 54/81/62
f 47/59/63 62/82/63 61/80/63
f 39/58/64 40/60/64 55/83/64
f 52/75/65 67/84/65 82/85/65
f 308/86/66 81/87/66 66/73/66
f 59/74/67 60/78/67 75/88/67
f 52/75/68 53/79/68 68/89/68
f 60/78/69 61/80/69 76/90/69
f 53/79/70 54/81/70 69/91/70
f 62/82/71 77/92/71 76/90/71
f 54/81/72 55/83/72 70/93/72
f 62/82/73 63/67/73 78/94/73
f 56/68/74 71/95/74 70/93/74
f 63/67/75 64/69/75 79/96/75
f 56/68/76 57/70/76 72/97/76
f 65/71/77 80/98/77 79/96/77
f 58/72/78 73/99/78 72/97/78
f 65/71/79 66/73/79 81/87/79
f 59/74/80 74/100/80 73/99/80
f 71/95/81 87/101/81 86/102/81
f 78/94/82 79/96/82 95/103/82
f 71/95/83 72/97/83 88/104/83
f 79/96/84 80/98/84 96/105/84
f 73/99/85 89/106/85 88/104/85
f 81/87/86 97/107/86 96/105/86
f 74/100/87 90/108/87 89/106/87
f 67/84/88 83/109/88 82/110/88
f 308/111/89 97/107/89 81/87/89
f 74/100/90 75/88/90 91/112/90
f 67/84/91 68/89/91 84/113/91
f 75/88/92 76/90/92 92/114/92
f 68/89/93 69/91/93 85/115/93
f 77/92/94 93/116/94 92/114/94
f 69/91/95 70/93/95 86/102/95
f 77/92/96 78/94/96 94/117/96
f 90/108/97 91/112/97 106/118/97
f 84/113/98 99/119/98 98/120/98
f 91/112/99 92/114/99 107/121/99
f 84/113/100 85/115/100 100/122/100
f 93/116/101 108/123/101 107/121/101
f 85/115/102 86/102/102 101/124/102
f 93/116/103 94/117/103 109/125/103
f 87/101/104 102/126/104 101/124/104
f 95/103/105 110/127/105 109/125/105
f 87/101/106 88/104/106 103/128/106
f 96/105/107 111/129/107 110/127/107
f 89/106/108 104/130/108 103/128/108
f 96/105/109 97/107/109 112/131/109
f 90/108/110 105/132/110 104/130/110
f 83/109/111 98/120/111 82/133/111
f 308/134/112 112/131/112 97/107/112
f 110/127/113 125/135/113 124/136/113
f 102/126/114 103/128/114 118/137/114
f 110/127/115 111/129/115 126/138/115
f 104/130/116 119/139/116 118/137/116
f 111/129/117 112/131/117 127/140/117
f 105/132/118 120/141/118 119/139/118
f 98/120/119 113/142/119 82/143/119
f 308/144/120 127/140/120 112/131/120
f 105/132/121 106/118/121 121/145/121
f 99/119/122 114/146/122 113/142/122
f 106/118/123 107/121/123 122/147/123
f 99/119/124 100/122/124 115/148/124
f 108/123/125 123/149/125 122/147/125
f 100/122/126 101/124/126 116/150/126
f 108/123/127 109/125/127 124/136/127
f 102/126/128 117/151/128 116/150/128
f 121/145/129 122/147/129 137/152/129
f 114/146/130 115/148/130 130/153/130
f 123/149/131 138/154/131 137/152/131
f 115/148/132 116/150/132 131/155/132
f 123/149/133 124/136/133 139/156/133
f 117/151/134 132/157/134 131/155/134
f 125/135/135 140/158/135 139/156/135
f 117/151/136 118/137/136 133/159/136
f 125/135/137 126/138/137 141/160/137
f 119/139/138 134/161/138 133/159/138
f 126/138/139 127/140/139 142/162/139
f 120/141/140 135/163/140 134/161/140
f 113/142/141 128/164/141 82/165/141
f 308/166/142 142/162/142 127/140/142
f 120/141/143 121/145/143 136/167/143
f 113/142/144 114/146/144 129/168/144
f 140/158/145 141/160/145 156/169/145
f 134/161/146 149/170/146 148/171/146
f 142/162/147 157/172/147 156/169/147
f 135/163/148 150/173/148 149/170/148
f 128/164/149 143/174/149 82/175/149
f 308/176/150 157/172/150 142/162/150
f 135/163/151 136/167/151 151/177/151
f 128/164/152 129/168/152 144/178/152
f 136/167/153 137/152/153 152/179/153
f 130/153/154 145/180/154 144/178/154
f 138/154/155 153/181/155 152/179/155
f 130/153/156 131/155/156 146/182/156
f 138/154/157 139/156/157 154/183/157
f 132/157/158 147/184/158 146/182/158
f 140/158/159 155/185/159 154/183/159
f 132/157/160 133/159/160 148/171/160
f 145/180/161 160/186/161 159/187/161
f 153/181/162 168/188/162 167/189/162
f 145/180/163 146/182/163 161/190/163
f 153/181/164 154/183/164 169/191/164
f 147/184/165 162/192/165 161/190/165
f 155/185/166 170/193/166 169/191/166
f 147/184/167 148/171/167 163/194/167
f 155/185/168 156/169/168 171/195/168
f 149/170/169 164/196/169 163/194/169
f 156/169/170 157/172/170 172/197/170
f 150/173/171 165/198/171 164/196/171
f 143/174/172 158/199/172 82/200/172
f 308/201/173 172/197/173 157/172/173
f 150/173/174 151/177/174 166/202/174
f 143/174/175 144/178/175 159/187/175
f 151/177/176 152/179/176 167/189/176
f 164/196/177 179/203/177 178/204/177
f 172/197/178 187/205/178 186/206/178
f 165/198/179 180/207/179 179/203/179
f 158/199/180 173/208/180 82/209/180
f 308/210/181 187/205/181 172/197/181
f 165/198/182 166/202/182 181/211/182
f 158/199/183 159/187/183 174/212/183
f 166/202/184 167/189/184 182/213/184
f 159/187/185 160/186/185 175/214/185
f 168/188/186 183/215/186 182/213/186
f 160/186/187 161/190/187 176/216/187
f 168/188/188 169/191/188 184/217/188
f 162/192/189 177/218/189 176/216/189
f 169/191/190 170/193/190 185/219/190
f 162/192/191 163/194/191 178/204/191
f 171/195/192 186/206/192 185/219/192
f 183/215/193 198/220/193 197/221/193
f 175/214/194 176/216/194 191/222/194
f 183/215/195 184/217/195 199/223/195
f 177/218/196 192/224/196 191/222/196
f 185/219/197 200/225/197 199/223/197
f 177/218/198 178/204/198 193/226/198
f 185/219/199 186/206/199 201/227/199
f 179/203/200 194/228/200 193/226/200
f 186/206/201 187/205/201 202/229/201
f 180/207/202 195/230/202 194/228/202
f 173/208/203 188/231/203 82/232/203
f 308/233/204 202/229/204 187/205/204
f 180/207/205 181/211/205 196/234/205
f 174/212/206 189/235/206 188/231/206
f 181/211/207 182/213/207 197/221/207
f 175/214/208 190/236/208 189/235/208
f 201/227/209 202/229/209 217/237/209
f 195/230/210 210/238/210 209/239/210
f 188/231/211 203/240/211 82/241/211
f 308/242/212 217/237/212 202/229/212
f 195/230/213 196/234/213 211/243/213
f 188/231/214 189/235/214 204/244/214
f 196/234/215 197/221/215 212/245/215
f 189/235/216 190/236/216 205/246/216
f 198/220/217 213/247/217 212/245/217
f 190/236/218 191/222/218 206/248/218
f 198/220/219 199/223/219 214/249/219
f 192/224/220 207/250/220 206/248/220
f 200/225/221 215/251/221 214/249/221
f 192/224/222 193/226/222 208/252/222
f 200/225/223 201/227/223 216/253/223
f 194/228/224 209/239/224 208/252/224
f 205/246/225 206/248/225 221/254/225
f 213/247/226 214/249/226 229/255/226
f 207/250/227 222/256/227 221/254/227
f 215/251/228 230/257/228 229/255/228
f 207/250/229 208/252/229 223/258/229
f 215/251/230 216/253/230 231/259/230
f 209/239/231 224/260/231 223/258/231
f 216/253/232 217/237/232 232/261/232
f 210/238/233 225/262/233 224/260/233
f 203/240/234 218/263/234 82/264/234
f 308/265/235 232/261/235 217/237/235
f 210/238/236 211/243/236 226/266/236
f 203/240/237 204/244/237 219/267/237
f 211/243/238 212/245/238 227/268/238
f 204/244/239 205/246/239 220/269/239
f 213/247/240 228/270/240 227/268/240
f 225/262/241 240/271/241 239/272/241
f 218/263/242 233/273/242 82/274/242
f 308/275/243 247/276/243 232/261/243
f 225/262/244 226/266/244 241/277/244
f 218/263/245 219/267/245 234/278/245
f 226/266/246 227/268/246 242/279/246
f 220/269/247 235/280/247 234/278/247
f 228/270/248 243/281/248 242/279/248
f 220/269/249 221/254/249 236/282/249
f 228/270/250 229/255/250 244/283/250
f 222/256/251 237/284/251 236/282/251
f 230/257/252 245/285/252 244/283/252
f 222/256/253 223/258/253 238/286/253
f 230/257/254 231/259/254 246/287/254
f 224/260/255 239/272/255 238/286/255
f 232/261/256 247/276/256 246/287/256
f 243/281/257 244/283/257 259/288/257
f 237/284/258 252/289/258 251/290/258
f 245/285/259 260/291/259 259/288/259
f 237/284/260 238/286/260 253/292/260
f 245/285/261 246/287/261 261/293/261
f 239/272/262 254/294/262 253/292/262
f 246/287/263 247/276/263 262/295/263
f 240/271/264 255/296/264 254/294/264
f 233/273/265 248/297/265 82/298/265
f 308/299/266 262/295/266 247/276/266
f 240/271/267 241/277/267 256/300/267
f 233/273/268 234/278/268 249/301/268
f 241/277/269 242/279/269 257/302/269
f 234/278/270 235/280/270 250/303/270
f 243/281/271 258/304/271 257/302/271
f 235/280/272 236/282/272 251/290/272
f 308/305/273 277/306/273 262/295/273
f 255/296/274 256/300/274 271/307/274
f 249/301/275 264/308/275 263/309/275
f 256/300/276 257/302/276 272/310/276
f 249/301/277 250/303/277 265/311/277
f 258/304/278 273/312/278 272/310/278
f 250/303/279 251/290/279 266/313/279
f 258/304/280 259/288/280 274/314/280
f 252/289/281 267/315/281 266/313/281
f 260/291/282 275/316/282 274/314/282
f 252/289/283 253/292/283 268/317/283
f 260/291/284 261/293/284 276/318/284
f 254/294/285 269/319/285 268/317/285
f 261/293/286 262/295/286 277/306/286
f 255/296/287 270/320/287 269/319/287
f 248/297/288 263/309/288 82/321/288
f 275/316/289 290/322/289 289/323/289
f 267/315/290 268/317/290 283/324/290
f 275/316/291 276/318/291 291/325/291
f 269/319/292 284/326/292 283/324/292
f 277/306/293 292/327/293 291/325/293
f 270/320/294 285/328/294 284/326/294
f 263/309/295 278/329/295 82/330/295
f 308/331/296 292/327/296 277/306/296
f 270/320/297 271/307/297 286/332/297
f 264/308/298 279/333/298 278/329/298
f 271/307/299 272/310/299 287/334/299
f 264/308/300 265/311/300 280/335/300
f 273/312/301 288/336/301 287/334/301
f 265/311/302 266/313/302 281/337/302
f 273/312/303 274/314/303 289/323/303
f 267/315/304 282/338/304 281/337/304
f 278/329/305 279/333/305 294/339/305
f 286/332/306 287/334/306 302/340/306
f 279/333/307 280/335/307 295/341/307
f 288/336/308 303/342/308 302/340/308
f 280/335/309 281/337/309 296/343/309
f 288/336/310 289/323/310 304/344/310
f 282/338/311 297/345/311 296/343/311
f 290/322/312 305/346/312 304/344/312
f 282/338/313 283/324/313 298/347/313
f 290/322/314 291/325/314 306/348/314
f 284/326/315 299/349/315 298/347/315
f 292/327/316 307/350/316 306/348/316
f 285/328/317 300/351/317 299/349/317
f 278/329/318 293/352/318 82/353/318
f 308/354/319 307/350/319 292/327/319
f 285/328/320 286/332/320 301/355/320
f 297/345/321 298/347/321 314/356/321
f 305/346/322 306/348/322 322/357/322
f 299/349/323 315/358/323 314/356/323
f 306/348/324 307/350/324 323/359/324
f 300/351/325 316/360/325 315/358/325
f 293/352/326 309/361/326 82/362/326
f 308/363/327 323/359/327 307/350/327
f 300/351/328 301/355/328 317/364/328
f 293/352/329 294/339/329 310/365/329
f 301/355/330 302/340/330 318/366/330
f 294/339/331 295/341/331 311/367/331
f 303/342/332 319/368/332 318/366/332
f 295/341/333 296/343/333 312/369/333
f 303/342/334 304/344/334 320/370/334
f 297/345/335 313/371/335 312/369/335
f 305/346/336 321/372/336 320/370/336
f 317/364/337 318/366/337 333/373/337
f 310/365/338 311/367/338 326/374/338
f 319/368/339 334/375/339 333/373/339
f 311/367/340 312/369/340 327/376/340
f 319/368/341 320/370/341 335/377/341
f 312/369/342 313/371/342 328/378/342
f 321/372/343 336/379/343 335/377/343
f 313/371/344 314/356/344 329/380/344
f 321/372/345 322/357/345 337/381/345
f 315/358/346 330/382/346 329/380/346
f 322/357/347 323/359/347 338/383/347
f 316/360/348 331/384/348 330/382/348
f 309/361/349 324/385/349 82/386/349
f 308/387/350 338/383/350 323/359/350
f 316/360/351 317/364/351 332/388/351
f 309/361/352 310/365/352 325/389/352
f 336/379/353 337/381/353 352/390/353
f 330/382/354 345/391/354 344/392/354
f 337/381/355 338/383/355 353/393/355
f 331/384/356 346/394/356 345/391/356
f 324/385/357 339/395/357 82/396/357
f 308/397/358 353/393/358 338/383/358
f 331/384/359 332/388/359 347/398/359
f 324/385/360 325/389/360 340/399/360
f 332/388/361 333/373/361 348/400/361
f 325/389/362 326/374/362 341/401/362
f 334/375/363 349/402/363 348/400/363
f 326/374/364 327/376/364 342/403/364
f 334/375/365 335/377/365 350/404/365
f 328/378/366 343/405/366 342/403/366
f 336/379/367 351/406/367 350/404/367
f 328/378/368 329/380/368 344/392/368
f 341/401/369 356/407/369 355/408/369
f 349/402/370 364/409/370 363/410/370
f 341/401/371 342/403/371 357/411/371
f 349/402/372 350/404/372 365/412/372
f 343/405/373 358/413/373 357/411/373
f 351/406/374 366/414/374 365/412/374
f 343/405/375 344/392/375 359/415/375
f 351/406/376 352/390/376 367/416/376
f 345/391/377 360/417/377 359/415/377
f 352/390/378 353/393/378 368/418/378
f 346/394/379 361/419/379 360/417/379
f 339/395/380 354/420/380 82/421/380
f 308/422/381 368/418/381 353/393/381
f 346/394/382 347/398/382 362/423/382
f 339/395/383 340/399/383 355/408/383
f 347/398/384 348/400/384 363/410/384
f 360/424/385 375/425/385 374/426/385
f 367/427/386 368/428/386 383/429/386
f 361/430/387 376/431/387 375/425/387
f 354/432/388 369/433/388 82/434/388
f 308/435/389 383/429/389 368/428/389
f 361/430/390 362/436/390 377/437/390
f 354/432/391 355/438/391 370/439/391
f 362/436/392 363/440/392 378/441/392
f 356/442/393 371/443/393 370/439/393
f 364/444/394 379/445/394 378/441/394
f 356/442/395 357/446/395 372/447/395
f 364/444/396 365/448/396 380/449/396
f 358/450/397 373/451/397 372/447/397
f 366/452/398 381/453/398 380/449/398
f 358/450/399 359/454/399 374/426/399
f 366/452/400 367/427/400 382/455/400
f 379/445/401 394/456/401 393/457/401
f 371/443/402 372/447/402 387/458/402
f 379/445/403 380/449/403 395/459/403
f 373/451/404 388/460/404 387/458/404
f 381/453/405 396/461/405 395/459/405
f 373/451/406 374/426/406 389/462/406
f 381/453/407 382/455/407 397/463/407
f 375/425/408 390/464/408 389/462/408
f 382/455/409 383/429/409 398/465/409
f 376/431/410 391/466/410 390/464/410
f 369/433/411 384/467/411 82/468/411
f 308/469/412 398/465/412 383/429/412
f 376/431/413 377/437/413 392/470/413
f 369/433/414 370/439/414 385/471/414
f 377/437/415 378/441/415 393/457/415
f 371/443/416 386/472/416 385/471/416
f 397/463/417 398/465/417 413/473/417
f 391/466/418 406/474/418 405/475/418
f 384/467/419 399/476/419 82/477/419
f 308/478/420 413/473/420 398/465/420
f 391/466/421 392/470/421 407/479/421
f 385/471/422 400/480/422 399/476/422
f 392/470/423 393/457/423 408/481/423
f 385/471/424 386/472/424 401/482/424
f 394/456/425 409/483/425 408/481/425
f 386/472/426 387/458/426 402/484/426
f 394/456/427 395/459/427 410/485/427
f 388/460/428 403/486/428 402/484/428
f 396/461/429 411/487/429 410/485/429
f 388/460/430 389/462/430 404/488/430
f 397/463/431 412/489/431 411/487/431
f 390/464/432 405/475/432 404/488/432
f 409/483/433 410/485/433 425/490/433
f 403/486/434 418/491/434 417/492/434
f 411/487/435 426/493/435 425/490/435
f 403/486/436 404/488/436 419/494/436
f 411/487/437 412/489/437 427/495/437
f 405/475/438 420/496/438 419/494/438
f 412/489/439 413/473/439 428/497/439
f 406/474/440 421/498/440 420/496/440
f 399/476/441 414/499/441 82/500/441
f 308/501/442 428/497/442 413/473/442
f 406/474/443 407/479/443 422/502/443
f 399/476/444 400/480/444 415/503/444
f 407/479/445 408/481/445 423/504/445
f 401/482/446 416/505/446 415/503/446
f 409/483/447 424/506/447 423/504/447
f 401/482/448 402/484/448 417/492/448
f 414/499/449 429/507/449 82/508/449
f 308/509/450 443/510/450 428/497/450
f 421/498/451 422/502/451 437/511/451
f 414/499/452 415/503/452 430/512/452
f 422/502/453 423/504/453 438/513/453
f 416/505/454 431/514/454 430/512/454
f 424/506/455 439/515/455 438/513/455
f 416/505/456 417/492/456 432/516/456
f 424/506/457 425/490/457 440/517/457
f 418/491/458 433/518/458 432/516/458
f 426/493/459 441/519/459 440/517/459
f 418/491/460 419/494/460 434/520/460
f 426/493/461 427/495/461 442/521/461
f 420/496/462 435/522/462 434/520/462
f 427/495/463 428/497/463 443/510/463
f 421/498/464 436/523/464 435/522/464
f 433/518/465 448/524/465 447/525/465
f 441/519/466 456/526/466 455/527/466
f 433/518/467 434/520/467 449/528/467
f 441/519/468 442/521/468 457/529/468
f 435/522/469 450/530/469 449/528/469
f 442/521/470 443/510/470 458/531/470
f 436/523/471 451/532/471 450/530/471
f 429/507/472 444/533/472 82/534/472
f 308/535/473 458/531/473 443/510/473
f 436/523/474 437/511/474 452/536/474
f 430/512/475 445/537/475 444/533/475
f 437/511/476 438/513/476 453/538/476
f 430/512/477 431/514/477 446/539/477
f 439/515/478 454/540/478 453/538/478
f 431/514/479 432/516/479 447/525/479
f 439/515/480 440/517/480 455/527/480
f 451/532/481 452/536/481 467/541/481
f 444/533/482 445/537/482 460/542/482
f 452/536/483 453/538/483 468/543/483
f 446/539/484 461/544/484 460/542/484
f 454/540/485 469/545/485 468/543/485
f 446/539/486 447/525/486 462/546/486
f 454/540/487 455/527/487 470/547/487
f 448/524/488 463/548/488 462/546/488
f 456/526/489 471/549/489 470/547/489
f 448/524/490 449/528/490 464/550/490
f 456/526/491 457/529/491 472/551/491
f 450/530/492 465/552/492 464/550/492
f 458/531/493 473/553/493 472/551/493
f 451/532/494 466/554/494 465/552/494
f 444/533/495 459/555/495 82/556/495
f 308/557/496 473/553/496 458/531/496
f 471/549/497 480/5/497 479/4/497
f 464/550/498 477/7/498 2/1/498
f 471/549/499 472/551/499 481/9/499
f 465/552/500 3/11/500 477/7/500
f 472/551/501 473/553/501 482/13/501
f 466/554/502 4/15/502 3/11/502
f 459/555/503 474/17/503 82/558/503
f 308/559/504 482/13/504 473/553/504
f 466/554/505 467/541/505 5/21/505
f 460/542/506 475/23/506 474/17/506
f 467/541/507 468/543/507 478/25/507
f 461/544/508 1/27/508 475/23/508
f 468/543/509 469/545/509 6/29/509
f 462/546/510 476/31/510 1/27/510
f 469/545/511 470/547/511 479/4/511
f 463/548/512 2/1/512 476/31/512
f 2/1/1 10/3/1 476/31/1
f 479/4/2 19/6/2 18/32/2
f 477/7/3 11/2/3 2/1/3
f 480/5/4 20/10/4 19/6/4
f 3/11/5 12/8/5 477/7/5
f 481/9/6 21/14/6 20/10/6
f 3/11/513 14/16/513 13/12/513
f 4/15/514 15/22/514 14/16/514
f 475/23/11 7/18/11 474/17/11
f 5/21/12 16/26/12 15/22/12
f 1/27/13 8/24/13 475/23/13
f 478/25/14 17/30/14 16/26/14
f 476/31/15 9/28/15 1/27/15
f 6/29/16 18/32/16 17/30/16
f 9/28/17 25/33/17 24/48/17
f 17/30/18 33/34/18 32/49/18
f 10/3/19 26/35/19 25/33/19
f 19/6/20 33/34/20 18/32/20
f 11/2/515 27/37/515 26/35/515
f 20/10/22 34/36/22 19/6/22
f 13/12/23 27/37/23 12/8/23
f 20/10/24 36/40/24 35/38/24
f 13/12/25 29/41/25 28/39/25
f 14/16/28 30/45/28 29/41/28
f 7/18/29 23/46/29 22/42/29
f 15/22/30 31/47/30 30/45/30
f 8/24/31 24/48/31 23/46/31
f 16/26/516 32/49/516 31/47/516
f 28/39/33 44/50/33 43/66/33
f 30/45/36 44/50/36 29/41/36
f 22/42/37 38/56/37 37/51/37
f 30/45/38 46/57/38 45/55/38
f 23/46/517 39/58/517 38/56/517
f 32/49/40 46/57/40 31/47/40
f 24/48/41 40/60/41 39/58/41
f 33/34/42 47/59/42 32/49/42
f 25/33/43 41/62/43 40/60/43
f 34/36/44 48/61/44 33/34/44
f 26/35/45 42/64/45 41/62/45
f 34/36/518 50/65/518 49/63/518
f 27/37/47 43/66/47 42/64/47
f 35/38/48 51/54/48 50/65/48
f 47/59/49 63/67/49 62/82/49
f 40/60/50 56/68/50 55/83/50
f 48/61/51 64/69/51 63/67/51
f 41/62/52 57/70/52 56/68/52
f 49/63/53 65/71/53 64/69/53
f 43/66/54 57/70/54 42/64/54
f 50/65/55 66/73/55 65/71/55
f 44/50/519 58/72/519 43/66/519
f 44/50/520 60/78/520 59/74/520
f 37/51/521 53/79/521 52/75/521
f 45/55/61 61/80/61 60/78/61
f 38/56/62 54/81/62 53/79/62
f 47/59/63 61/80/63 46/57/63
f 39/58/64 55/83/64 54/81/64
f 59/74/67 75/88/67 74/100/67
f 52/75/68 68/89/68 67/84/68
f 60/78/69 76/90/69 75/88/69
f 53/79/70 69/91/70 68/89/70
f 62/82/71 76/90/71 61/80/71
f 54/81/72 70/93/72 69/91/72
f 62/82/73 78/94/73 77/92/73
f 56/68/74 70/93/74 55/83/74
f 63/67/75 79/96/75 78/94/75
f 56/68/76 72/97/76 71/95/76
f 65/71/77 79/96/77 64/69/77
f 58/72/78 72/97/78 57/70/78
f 65/71/79 81/87/79 80/98/79
f 59/74/80 73/99/80 58/72/80
f 71/95/81 86/102/81 70/93/81
f 78/94/82 95/103/82 94/117/82
f 71/95/83 88/104/83 87/101/83
f 79/96/84 96/105/84 95/103/84
f 73/99/85 88/104/85 72/97/85
f 81/87/86 96/105/86 80/98/86
f 74/100/522 89/106/522 73/99/522
f 74/100/523 91/112/523 90/108/523
f 67/84/91 84/113/91 83/109/91
f 75/88/92 92/114/92 91/112/92
f 68/89/524 85/115/524 84/113/524
f 77/92/94 92/114/94 76/90/94
f 69/91/95 86/102/95 85/115/95
f 77/92/96 94/117/96 93/116/96
f 90/108/97 106/118/97 105/132/97
f 84/113/98 98/120/98 83/109/98
f 91/112/99 107/121/99 106/118/99
f 84/113/100 100/122/100 99/119/100
f 93/116/101 107/121/101 92/114/101
f 85/115/102 101/124/102 100/122/102
f 93/116/103 109/125/103 108/123/103
f 87/101/104 101/124/104 86/102/104
f 95/103/105 109/125/105 94/117/105
f 87/101/106 103/128/106 102/126/106
f 96/105/107 110/127/107 95/103/107
f 89/106/108 103/128/108 88/104/108
f 96/105/109 112/131/109 111/129/109
f 90/108/110 104/130/110 89/106/110
f 110/127/113 124/136/113 109/125/113
f 102/126/114 118/137/114 117/151/114
f 110/127/115 126/138/115 125/135/115
f 104/130/116 118/137/116 103/128/116
f 111/129/117 127/140/117 126/138/117
f 105/132/525 119/139/525 104/130/525
f 105/132/526 121/145/526 120/141/526
f 99/119/122 113/142/122 98/120/122
f 106/118/123 122/147/123 121/145/123
f 99/119/124 115/148/124 114/146/124
f 108/123/125 122/147/125 107/121/125
f 100/122/126 116/150/126 115/148/126
f 108/123/127 124/136/127 123/149/127
f 102/126/128 116/150/128 101/124/128
f 121/145/129 137/152/129 136/167/129
f 114/146/130 130/153/130 129/168/130
f 123/149/131 137/152/131 122/147/131
f 115/148/132 131/155/132 130/153/132
f 123/149/133 139/156/133 138/154/133
f 117/151/134 131/155/134 116/150/134
f 125/135/135 139/156/135 124/136/135
f 117/151/136 133/159/136 132/157/136
f 125/135/137 141/160/137 140/158/137
f 119/139/138 133/159/138 118/137/138
f 126/138/139 142/162/139 141/160/139
f 120/141/527 134/161/527 119/139/527
f 120/141/528 136/167/528 135/163/528
f 113/142/144 129/168/144 128/164/144
f 140/158/145 156/169/145 155/185/145
f 134/161/146 148/171/146 133/159/146
f 142/162/147 156/169/147 141/160/147
f 135/163/148 149/170/148 134/161/148
f 135/163/151 151/177/151 150/173/151
f 128/164/152 144/178/152 143/174/152
f 136/167/153 152/179/153 151/177/153
f 130/153/154 144/178/154 129/168/154
f 138/154/529 152/179/529 137/152/529
f 130/153/156 146/182/156 145/180/156
f 138/154/157 154/183/157 153/181/157
f 132/157/158 146/182/158 131/155/158
f 140/158/159 154/183/159 139/156/159
f 132/157/530 148/171/530 147/184/530
f 145/180/531 159/187/531 144/178/531
f 153/181/162 167/189/162 152/179/162
f 145/180/163 161/190/163 160/186/163
f 153/181/164 169/191/164 168/188/164
f 147/184/165 161/190/165 146/182/165
f 155/185/166 169/191/166 154/183/166
f 147/184/167 163/194/167 162/192/167
f 155/185/532 171/195/532 170/193/532
f 149/170/169 163/194/169 148/171/169
f 156/169/170 172/197/170 171/195/170
f 150/173/171 164/196/171 149/170/171
f 150/173/174 166/202/174 165/198/174
f 143/174/175 159/187/175 158/199/175
f 151/177/176 167/189/176 166/202/176
f 164/196/177 178/204/177 163/194/177
f 172/197/178 186/206/178 171/195/178
f 165/198/179 179/203/179 164/196/179
f 165/198/182 181/211/182 180/207/182
f 158/199/183 174/212/183 173/208/183
f 166/202/184 182/213/184 181/211/184
f 159/187/185 175/214/185 174/212/185
f 168/188/186 182/213/186 167/189/186
f 160/186/187 176/216/187 175/214/187
f 168/188/188 184/217/188 183/215/188
f 162/192/189 176/216/189 161/190/189
f 169/191/190 185/219/190 184/217/190
f 162/192/191 178/204/191 177/218/191
f 171/195/192 185/219/192 170/193/192
f 183/215/193 197/221/193 182/213/193
f 175/214/194 191/222/194 190/236/194
f 183/215/195 199/223/195 198/220/195
f 177/218/196 191/222/196 176/216/196
f 185/219/197 199/223/197 184/217/197
f 177/218/198 193/226/198 192/224/198
f 185/219/199 201/227/199 200/225/199
f 179/203/200 193/226/200 178/204/200
f 186/206/533 202/229/533 201/227/533
f 180/207/202 194/228/202 179/203/202
f 180/207/205 196/234/205 195/230/205
f 174/212/534 188/231/534 173/208/534
f 181/211/207 197/221/207 196/234/207
f 175/214/208 189/235/208 174/212/208
f 201/227/535 217/237/535 216/253/535
f 195/230/210 209/239/210 194/228/210
f 195/230/213 211/243/213 210/238/213
f 188/231/214 204/244/214 203/240/214
f 196/234/215 212/245/215 211/243/215
f 189/235/216 205/246/216 204/244/216
f 198/220/217 212/245/217 197/221/217
f 190/236/218 206/248/218 205/246/218
f 198/220/219 214/249/219 213/247/219
f 192/224/220 206/248/220 191/222/220
f 200/225/221 214/249/221 199/223/221
f 192/224/222 208/252/222 207/250/222
f 200/225/223 216/253/223 215/251/223
f 194/228/224 208/252/224 193/226/224
f 205/246/225 221/254/225 220/269/225
f 213/247/226 229/255/226 228/270/226
f 207/250/227 221/254/227 206/248/227
f 215/251/228 229/255/228 214/249/228
f 207/250/229 223/258/229 222/256/229
f 215/251/230 231/259/230 230/257/230
f 209/239/231 223/258/231 208/252/231
f 216/253/232 232/261/232 231/259/232
f 210/238/536 224/260/536 209/239/536
f 210/238/537 226/266/537 225/262/537
f 203/240/237 219/267/237 218/263/237
f 211/243/238 227/268/238 226/266/238
f 204/244/239 220/269/239 219/267/239
f 213/247/240 227/268/240 212/245/240
f 225/262/538 239/272/538 224/260/538
f 225/262/539 241/277/539 240/271/539
f 218/263/245 234/278/245 233/273/245
f 226/266/246 242/279/246 241/277/246
f 220/269/247 234/278/247 219/267/247
f 228/270/248 242/279/248 227/268/248
f 220/269/249 236/282/249 235/280/249
f 228/270/250 244/283/250 243/281/250
f 222/256/251 236/282/251 221/254/251
f 230/257/252 244/283/252 229/255/252
f 222/256/253 238/286/253 237/284/253
f 230/257/254 246/287/254 245/285/254
f 224/260/255 238/286/255 223/258/255
f 232/261/256 246/287/256 231/259/256
f 243/281/257 259/288/257 258/304/257
f 237/284/258 251/290/258 236/282/258
f 245/285/259 259/288/259 244/283/259
f 237/284/260 253/292/260 252/289/260
f 245/285/261 261/293/261 260/291/261
f 239/272/262 253/292/262 238/286/262
f 246/287/263 262/295/263 261/293/263
f 240/271/540 254/294/540 239/272/540
f 240/271/541 256/300/541 255/296/541
f 233/273/268 249/301/268 248/297/268
f 241/277/269 257/302/269 256/300/269
f 234/278/270 250/303/270 249/301/270
f 243/281/271 257/302/271 242/279/271
f 235/280/272 251/290/272 250/303/272
f 255/296/542 271/307/542 270/320/542
f 249/301/275 263/309/275 248/297/275
f 256/300/276 272/310/276 271/307/276
f 249/301/277 265/311/277 264/308/277
f 258/304/278 272/310/278 257/302/278
f 250/303/279 266/313/279 265/311/279
f 258/304/280 274/314/280 273/312/280
f 252/289/281 266/313/281 251/290/281
f 260/291/282 274/314/282 259/288/282
f 252/289/283 268/317/283 267/315/283
f 260/291/284 276/318/284 275/316/284
f 254/294/285 268/317/285 253/292/285
f 261/293/286 277/306/286 276/318/286
f 255/296/543 269/319/543 254/294/543
f 275/316/289 289/323/289 274/314/289
f 267/315/290 283/324/290 282/338/290
f 275/316/544 291/325/544 290/322/544
f 269/319/292 283/324/292 268/317/292
f 277/306/293 291/325/293 276/318/293
f 270/320/294 284/326/294 269/319/294
f 270/320/297 286/332/297 285/328/297
f 264/308/298 278/329/298 263/309/298
f 271/307/299 287/334/299 286/332/299
f 264/308/545 280/335/545 279/333/545
f 273/312/301 287/334/301 272/310/301
f 265/311/302 281/337/302 280/335/302
f 273/312/303 289/323/303 288/336/303
f 267/315/304 281/337/304 266/313/304
f 278/329/546 294/339/546 293/352/546
f 286/332/306 302/340/306 301/355/306
f 279/333/307 295/341/307 294/339/307
f 288/336/308 302/340/308 287/334/308
f 280/335/309 296/343/309 295/341/309
f 288/336/310 304/344/310 303/342/310
f 282/338/311 296/343/311 281/337/311
f 290/322/312 304/344/312 289/323/312
f 282/338/313 298/347/313 297/345/313
f 290/322/314 306/348/314 305/346/314
f 284/326/315 298/347/315 283/324/315
f 292/327/547 306/348/547 291/325/547
f 285/328/317 299/349/317 284/326/317
f 285/328/320 301/355/320 300/351/320
f 297/345/321 314/356/321 313/371/321
f 305/346/322 322/357/322 321/372/322
f 299/349/323 314/356/323 298/347/323
f 306/348/324 323/359/324 322/357/324
f 300/351/325 315/358/325 299/349/325
f 300/351/328 317/364/328 316/360/328
f 293/352/329 310/365/329 309/361/329
f 301/355/330 318/366/330 317/364/330
f 294/339/331 311/367/331 310/365/331
f 303/342/332 318/366/332 302/340/332
f 295/341/333 312/369/333 311/367/333
f 303/342/334 320/370/334 319/368/334
f 297/345/335 312/369/335 296/343/335
f 305/346/336 320/370/336 304/344/336
f 317/364/337 333/373/337 332/388/337
f 310/365/338 326/374/338 325/389/338
f 319/368/339 333/373/339 318/366/339
f 311/367/340 327/376/340 326/374/340
f 319/368/341 335/377/341 334/375/341
f 312/369/342 328/378/342 327/376/342
f 321/372/343 335/377/343 320/370/343
f 313/371/344 329/380/344 328/378/344
f 321/372/345 337/381/345 336/379/345
f 315/358/346 329/380/346 314/356/346
f 322/357/347 338/383/347 337/381/347
f 316/360/548 330/382/548 315/358/548
f 316/360/549 332/388/549 331/384/549
f 309/361/352 325/389/352 324/385/352
f 336/379/353 352/390/353 351/406/353
f 330/382/354 344/392/354 329/380/354
f 337/381/355 353/393/355 352/390/355
f 331/384/356 345/391/356 330/382/356
f 331/384/359 347/398/359 346/394/359
f 324/385/360 340/399/360 339/395/360
f 332/388/361 348/400/361 347/398/361
f 325/389/362 341/401/362 340/399/362
f 334/375/363 348/400/363 333/373/363
f 326/374/364 342/403/364 341/401/364
f 334/375/365 350/404/365 349/402/365
f 328/378/366 342/403/366 327/376/366
f 336/379/367 350/404/367 335/377/367
f 328/378/368 344/392/368 343/405/368
f 341/401/369 355/408/369 340/399/369
f 349/402/370 363/410/370 348/400/370
f 341/401/371 357/411/371 356/407/371
f 349/402/372 365/412/372 364/409/372
f 343/405/373 357/411/373 342/403/373
f 351/406/374 365/412/374 350/404/374
f 343/405/375 359/415/375 358/413/375
f 351/406/376 367/416/376 366/414/376
f 345/391/377 359/415/377 344/392/377
f 352/390/378 368/418/378 367/416/378
f 346/394/379 360/417/379 345/391/379
f 346/394/382 362/423/382 361/419/382
f 339/395/383 355/408/383 354/420/383
f 347/398/384 363/410/384 362/423/384
f 360/424/385 374/426/385 359/454/385
f 367/427/386 383/429/386 382/455/386
f 361/430/387 375/425/387 360/424/387
f 361/430/390 377/437/390 376/431/390
f 354/432/391 370/439/391 369/433/391
f 362/436/392 378/441/392 377/437/392
f 356/442/393 370/439/393 355/438/393
f 364/444/394 378/441/394 363/440/394
f 356/442/395 372/447/395 371/443/395
f 364/444/396 380/449/396 379/445/396
f 358/450/397 372/447/397 357/446/397
f 366/452/398 380/449/398 365/448/398
f 358/450/399 374/426/399 373/451/399
f 366/452/400 382/455/400 381/453/400
f 379/445/401 393/457/401 378/441/401
f 371/443/402 387/458/402 386/472/402
f 379/445/403 395/459/403 394/456/403
f 373/451/404 387/458/404 372/447/404
f 381/453/405 395/459/405 380/449/405
f 373/451/406 389/462/406 388/460/406
f 381/453/407 397/463/407 396/461/407
f 375/425/408 389/462/408 374/426/408
f 382/455/409 398/465/409 397/463/409
f 376/431/410 390/464/410 375/425/410
f 376/431/413 392/470/413 391/466/413
f 369/433/414 385/471/414 384/467/414
f 377/437/415 393/457/415 392/470/415
f 371/443/416 385/471/416 370/439/416
f 397/463/417 413/473/417 412/489/417
f 391/466/418 405/475/418 390/464/418
f 391/466/421 407/479/421 406/474/421
f 385/471/422 399/476/422 384/467/422
f 392/470/423 408/481/423 407/479/423
f 385/471/550 401/482/550 400/480/550
f 394/456/425 408/481/425 393/457/425
f 386/472/426 402/484/426 401/482/426
f 394/456/427 410/485/427 409/483/427
f 388/460/428 402/484/428 387/458/428
f 396/461/429 410/485/429 395/459/429
f 388/460/430 404/488/430 403/486/430
f 397/463/551 411/487/551 396/461/551
f 390/464/432 404/488/432 389/462/432
f 409/483/433 425/490/433 424/506/433
f 403/486/434 417/492/434 402/484/434
f 411/487/435 425/490/435 410/485/435
f 403/486/436 419/494/436 418/491/436
f 411/487/437 427/495/437 426/493/437
f 405/475/438 419/494/438 404/488/438
f 412/489/439 428/497/439 427/495/439
f 406/474/440 420/496/440 405/475/440
f 406/474/443 422/502/443 421/498/443
f 399/476/444 415/503/444 414/499/444
f 407/479/445 423/504/445 422/502/445
f 401/482/446 415/503/446 400/480/446
f 409/483/447 423/504/447 408/481/447
f 401/482/448 417/492/448 416/505/448
f 421/498/451 437/511/451 436/523/451
f 414/499/452 430/512/452 429/507/452
f 422/502/453 438/513/453 437/511/453
f 416/505/454 430/512/454 415/503/454
f 424/506/455 438/513/455 423/504/455
f 416/505/456 432/516/456 431/514/456
f 424/506/457 440/517/457 439/515/457
f 418/491/458 432/516/458 417/492/458
f 426/493/459 440/517/459 425/490/459
f 418/491/460 434/520/460 433/518/460
f 426/493/461 442/521/461 441/519/461
f 420/496/462 434/520/462 419/494/462
f 427/495/552 443/510/552 442/521/552
f 421/498/464 435/522/464 420/496/464
f 433/518/465 447/525/465 432/516/465
f 441/519/466 455/527/466 440/517/466
f 433/518/467 449/528/467 448/524/467
f 441/519/468 457/529/468 456/526/468
f 435/522/469 449/528/469 434/520/469
f 442/521/553 458/531/553 457/529/553
f 436/523/554 450/530/554 435/522/554
f 436/523/555 452/536/555 451/532/555
f 430/512/475 444/533/475 429/507/475
f 437/511/476 453/538/476 452/536/476
f 430/512/477 446/539/477 445/537/477
f 439/515/478 453/538/478 438/513/478
f 431/514/479 447/525/479 446/539/479
f 439/515/480 455/527/480 454/540/480
f 451/532/481 467/541/481 466/554/481
f 444/533/482 460/542/482 459/555/482
f 452/536/483 468/543/483 467/541/483
f 446/539/484 460/542/484 445/537/484
f 454/540/485 468/543/485 453/538/485
f 446/539/486 462/546/486 461/544/486
f 454/540/487 470/547/487 469/545/487
f 448/524/488 462/546/488 447/525/488
f 456/526/489 470/547/489 455/527/489
f 448/524/490 464/550/490 463/548/490
f 456/526/491 472/551/491 471/549/491
f 450/530/492 464/550/492 449/528/492
f 458/531/493 472/551/493 457/529/493
f 451/532/494 465/552/494 450/530/494
f 471/549/497 479/4/497 470/547/497
f 464/550/498 2/1/498 463/548/498
f 471/549/499 481/9/499 480/5/499
f 465/552/500 477/7/500 464/550/500
f 472/551/556 482/13/556 481/9/556
f 466/554/557 3/11/557 465/552/557
f 466/554/558 5/21/558 4/15/558
f 460/542/506 474/17/506 459/555/506
f 467/541/507 478/25/507 5/21/507
f 461/544/508 475/23/508 460/542/508
f 468/543/509 6/29/509 478/25/509
f 462/546/510 1/27/510 461/544/510
f 469/545/511 479/4/511 6/29/511
f 463/548/512 476/31/512 462/546/512
