# Blender 3.3.1
# www.blender.org
mtllib BlasterCore.mtl
o ICO球
v 0.000000 -4.800000 -0.000001
v 4.800000 0.000000 0.000000
v 0.000000 -0.000001 4.800000
v -4.800000 0.000000 0.000000
v 0.000000 0.000001 -4.800000
v 0.000000 4.800000 0.000001
vn 0.5774 -0.5774 0.5774
vn -0.5774 -0.5774 0.5774
vn -0.5774 -0.5774 -0.5774
vn 0.5774 -0.5774 -0.5774
vn 0.5774 0.5774 0.5774
vn -0.5774 0.5774 0.5774
vn -0.5774 0.5774 -0.5774
vn 0.5774 0.5774 -0.5774
vt 0.500853 0.007154
vt 0.233833 0.479801
vt 0.226020 0.513666
vt 0.773733 0.479801
vt 0.779471 0.513666
vt 0.233833 0.479801
vt 0.226020 0.513666
vt 0.773733 0.479801
vt 0.779471 0.513666
vt 0.502745 0.992974
s 0
usemtl マテリアル.001
f 1/1/1 2/2/1 3/4/1
f 1/1/2 3/4/2 4/6/2
f 1/1/3 4/6/3 5/8/3
f 1/1/4 5/8/4 2/2/4
f 3/5/5 2/3/5 6/10/5
f 4/7/6 3/5/6 6/10/6
f 5/9/7 4/7/7 6/10/7
f 2/3/8 5/9/8 6/10/8
