# Blender v3.2.1 OBJ File: 'arrow.blend'
# www.blender.org
mtllib arrow.mtl
o 平面
v 0.500000 -1.000003 0.001315
v 0.108507 0.000000 0.200000
v 0.108507 0.000000 -0.200000
v -0.500000 0.000000 0.000000
v 0.500000 1.000003 -0.001315
vt 0.000000 0.000000
vt 1.000000 0.000000
vt 1.000000 1.000000
vt 0.000000 1.000000
vt 0.000000 1.000000
vt 0.000000 0.000000
vt 1.000000 0.000000
vn -0.2982 -0.2970 0.9071
vn -0.2979 -0.2991 -0.9065
vn 0.9312 0.3646 0.0000
vn -0.2982 0.2970 -0.9071
vn -0.2979 0.2991 0.9065
vn 0.9312 -0.3646 0.0000
usemtl マテリアル
s off
f 1/1/1 2/2/1 4/3/1
f 4/3/2 3/4/2 1/1/2
f 1/1/3 3/4/3 2/5/3
f 5/6/4 3/7/4 4/3/4
f 4/3/5 2/5/5 5/6/5
f 5/6/6 2/5/6 3/4/6
